<svg xmlns="http://www.w3.org/2000/svg" xmlns:xlink="http://www.w3.org/1999/xlink" viewBox="0 0 387.54 357.12"><defs><style>.cls-1{fill:none;}.cls-2{clip-path:url(#clip-path);}</style><clipPath id="clip-path" transform="translate(-18.83 -34.04)"><rect class="cls-1" width="425.2" height="425.2"/></clipPath></defs><title>logo</title><g id="Layer_2" data-name="Layer 2"><g id="Layer_1-2" data-name="Layer 1"><rect x="79.79" y="85.4" width="227.8" height="15.53"/><rect x="79.79" y="256.2" width="227.96" height="15.52"/><g class="cls-2"><path d="M326.58,211.29v-6.45h-228v5.83a83.78,83.78,0,0,1,0-166.94v5.84h227.8V34H98.62v6.44a87,87,0,0,0,0,173.43v6.45h228v-5.83a83.78,83.78,0,0,1,0,166.93v-5.82h-228v15.52h228v-6.45a87,87,0,0,0,0-173.42" transform="translate(-18.83 -34.04)"/></g></g></g></svg>