<svg xmlns="http://www.w3.org/2000/svg" viewBox="0 0 117.6 153.64"><title>icon-b</title><g id="Layer_2" data-name="Layer 2"><g id="Layer_1-2" data-name="Layer 1"><path d="M21,69.76c1.44-1.55,2.88-3.06,4.26-4.48,4.6-4.66,9.74-9.43,15.31-14.19.78-.72,1.56-1.42,2.31-2.09,1.33-1.17,2.61-2.28,3.82-3.33l.53-.44,1-.85,1.46-1.22.92-.76.89-.73q1.74-1.41,3.15-2.52l3.5-2.92a1,1,0,0,1,.65-.24,1,1,0,0,1,.64.23L66.58,42l6.5,5.49c.36.32.73.64,1.1,1,.57.49,1.14,1,1.71,1.51l1.25,1.13c5.49,4.7,10.62,9.46,15.24,14.14,1.32,1.34,2.68,2.76,4,4.21l.82.89a45.69,45.69,0,1,0-76.85,0ZM58.8,4.41A41.27,41.27,0,0,1,96.29,63l-.77-.78c-4.69-4.76-9.9-9.59-15.47-14.35l-1.22-1.11L77.11,45.2,76,44.2l0,0,0,0-6.5-5.49,0,0,0,0-7.17-5.8a5.43,5.43,0,0,0-6.91,0l-3.45,2.88-3.15,2.52-.91.75-.93.77c-.49.4-1,.81-1.48,1.24l-1,.87-.53.45c-1.24,1.06-2.53,2.18-3.9,3.39l-2.3,2.07C32,52.6,26.75,57.45,22.07,62.19l-.75.78A41.28,41.28,0,0,1,58.8,4.41Z"/><path d="M117.59,123.2h0a36.77,36.77,0,0,0-.76-6.28c-.28-1.33-.63-2.69-1-4.06A54,54,0,0,0,113.6,107c-.25-.56-.5-1.12-.77-1.7a79.06,79.06,0,0,0-4.79-8.6c-.21-.33-.42-.66-.64-1l-.07-.11c-.47-.71-1-1.43-1.45-2.15s-1-1.46-1.56-2.19-1.07-1.45-1.63-2.19l-.85-1.1c-2.29-2.94-4.85-6-7.63-9L93,77.65l-.77-.81-.5-.54c-.86-.9-1.74-1.81-2.63-2.71-2.69-2.73-5.59-5.52-8.63-8.29l-1.16-1.06c-.59-.54-1.19-1.06-1.74-1.55l-1.14-1c-.54-.47-1.06-.93-1.58-1.37l-5-4.23L68.49,55l-4.33-3.5-5.48-5.09-7.3,6.79c-.92.72-2,1.56-3.13,2.51l-.94.76-.9.74-1.48,1.24L43.37,59.8q-1.86,1.59-3.89,3.39-1.3,1.17-2.64,2.4c-2.94,2.69-5.74,5.39-8.32,8-.93.94-1.84,1.88-2.75,2.84l-.37.4-.92,1c-.44.48-.88,1-1.29,1.41C19.78,83,16.7,86.69,14,90.28q-1.21,1.62-2.34,3.24c-.49.71-1,1.42-1.43,2.13-.24.35-.46.71-.68,1-.38.59-.75,1.18-1.09,1.75-.53.88-1,1.75-1.52,2.62-.32.57-.63,1.15-.92,1.71-.45.85-.89,1.72-1.28,2.56-.27.56-.52,1.13-.76,1.68s-.49,1.13-.71,1.69c-.56,1.39-1,2.78-1.47,4.14-.11.35-.21.7-.31,1.05s-.21.79-.32,1.19c-.15.61-.29,1.21-.42,1.82s-.24,1.18-.31,1.7-.14.87-.19,1.28C.14,121,.05,122.11,0,123.2v.92c0,.63,0,1.26.05,1.87,0,.78.12,1.56.21,2.25,0,.16,0,.32.07.54.07.42.14.83.22,1.24l.08.4c.14.71.32,1.41.52,2.1s.46,1.48.73,2.17c.12.32.24.64.38,1s.2.47.3.69l0,.1a9,9,0,0,0,.4.83l.14.28.21.41c.28.53.58,1.06.91,1.59.21.34.42.68.63,1,.49.73,1,1.46,1.6,2.18s1.14,1.36,1.77,2a37.73,37.73,0,0,0,3.39,3.18,24.68,24.68,0,0,0,13.63,5.62h.27l.35,0,1.12,0h.62a22.36,22.36,0,0,0,2.85-.19q.6-.07,1.2-.18a24.64,24.64,0,0,0,2.94-.7c.39-.12.79-.25,1.16-.39A21.88,21.88,0,0,0,38.61,151c.37-.19.73-.38,1.06-.58l.57-.33c.54-.34,1.06-.69,1.54-1,.33-.24.65-.48,1-.76s.81-.68,1.2-1l-3.11-3.1-3.64,2.59-.63.34a19,19,0,0,1-2.3,1c-.3.11-.61.21-.95.31a19.33,19.33,0,0,1-2.39.57q-.49.09-1,.15a19.14,19.14,0,0,1-2.31.15h-.46l-1.06,0-.27,0H25.6a20.34,20.34,0,0,1-11.13-4.62,31.48,31.48,0,0,1-3-2.79c-.55-.59-1.08-1.19-1.57-1.8a23,23,0,0,1-1.37-1.87c-.18-.26-.36-.55-.53-.82-.28-.46-.53-.9-.77-1.36l-.16-.3-.2-.4c-.1-.19-.18-.37-.26-.55l-.07-.15c-.08-.16-.15-.32-.22-.5l0-.05,0,0c-.11-.26-.21-.51-.31-.8a18.13,18.13,0,0,1-.61-1.8c-.17-.59-.32-1.19-.44-1.74l-.07-.37c-.07-.35-.13-.71-.18-1.06,0-.16,0-.29-.07-.48-.08-.59-.14-1.25-.17-1.92,0-.48,0-1,0-1.58v-.36c0-.16,0-.32,0-.42v-.07c0-.93.11-1.89.23-2.87,0-.35.1-.73.16-1.1v-.1c.06-.4.16-.91.27-1.44s.24-1.08.37-1.61c.09-.37.19-.73.29-1.09s.18-.63.28-.94c.38-1.24.83-2.52,1.34-3.79.21-.52.42-1,.65-1.56s.47-1,.73-1.59c.36-.78.76-1.57,1.18-2.38.28-.54.58-1.08.87-1.61.46-.83.95-1.66,1.45-2.5.33-.54.67-1.09,1-1.66l.63-1q.68-1,1.38-2c.71-1,1.46-2.07,2.25-3.11,2.58-3.48,5.58-7.09,8.9-10.74.39-.44.81-.89,1.24-1.35l.91-1,.36-.39c.88-.93,1.77-1.85,2.68-2.78,2.53-2.56,5.27-5.2,8.17-7.86.87-.8,1.74-1.59,2.58-2.34,1.23-1.1,2.48-2.19,3.81-3.33l1.56-1.32,1.45-1.21.87-.72.94-.76c1.14-.94,2.17-1.76,3.07-2.47l.14-.11.13-.12,4.3-4,2.48,2.31.11.1.12.1,4.33,3.5,1.24,1,5,4.21q.76.64,1.56,1.35c.36.31.73.63,1.14,1s1.1,1,1.67,1.49l1.16,1c3,2.71,5.82,5.45,8.47,8.13.87.88,1.72,1.76,2.56,2.65l.28.3.21.22.19.21.55.58L91,82c2.7,3,5.19,5.91,7.41,8.76.27.36.55.71.82,1.06.54.72,1.07,1.42,1.59,2.14s1,1.38,1.48,2.07.94,1.39,1.39,2.06l.07.11.62,1a74.51,74.51,0,0,1,4.51,8.11c.25.54.49,1.06.72,1.59a51,51,0,0,1,2,5.33c.38,1.23.7,2.46,1,3.68a31.79,31.79,0,0,1,.67,5.51c0,.27,0,.53,0,.76,0,.55,0,1.1,0,1.66s-.09,1.3-.18,2a24,24,0,0,1-1.36,5.4c-.1.28-.21.55-.32.81s-.17.39-.26.6l-.32.68c-.11.23-.23.45-.36.71-.22.42-.48.87-.76,1.32-.17.28-.36.57-.54.84s-.29.43-.41.59c-.32.45-.63.86-1,1.27s-.65.8-1,1.18l-.53.58a33.72,33.72,0,0,1-3,2.83,20.29,20.29,0,0,1-6.18,3.53,17,17,0,0,1-1.68.51c-.55.15-1.12.27-1.7.37s-1.13.17-1.71.22-1.15.07-1.72.07-1,0-1.56-.06a17.53,17.53,0,0,1-1.9-.24l-.85-.16c-.53-.13-1-.26-1.58-.42l-.95-.32-.92-.36c-.46-.2-.91-.41-1.36-.64l-.07,0h0l-3.73-2.51-3.12,3.12.35.31c.56.48,1.15.93,1.76,1.36.32.23.65.45,1,.66s.68.41,1,.61.52.29.78.42c.54.28,1.11.54,1.66.78.39.16.77.31,1.15.44s.77.27,1.16.39c.6.18,1.22.35,1.86.5.36.08.72.15,1.09.21a21.86,21.86,0,0,0,2.39.3c.6,0,1.21.06,1.82.06s1.41,0,2.1-.09,1.41-.15,2.08-.26,1.39-.27,2.06-.44,1.36-.39,2-.63a26.18,26.18,0,0,0,2.93-1.27,25.63,25.63,0,0,0,4.59-3,38.1,38.1,0,0,0,3.41-3.2l.62-.67c.4-.45.78-.9,1.15-1.36s.71-.92,1.08-1.43l.49-.71c.23-.34.44-.68.64-1,.34-.53.65-1.08.92-1.6.14-.26.27-.53.4-.79s.27-.55.39-.81l.31-.7c.13-.32.26-.64.38-1a28.79,28.79,0,0,0,1.61-6.39c.1-.76.17-1.54.21-2.29s0-1.27,0-1.92C117.6,123.79,117.59,123.5,117.59,123.2Z"/><path d="M58.8,87A41.05,41.05,0,0,1,36.67,80.5l-3,3.34a45.67,45.67,0,0,0,50.15.06L81,80.47A41.05,41.05,0,0,1,58.8,87Z"/></g></g></svg>