<svg xmlns="http://www.w3.org/2000/svg" viewBox="0 0 886.3 102.58"><defs><style>.cls-1{fill:#fff;}.cls-2{opacity:0.5;}</style></defs><title>zrada-logo</title><g id="Layer_2" data-name="Layer 2"><g id="Layer_1-2" data-name="Layer 1"><path class="cls-1" d="M37.69,102.58H0V94.05L24.93,62.87H.67V54.34H37.56v7.93L12.29,94.05h25.4Z"/><path class="cls-1" d="M84.79,54.34h24.39c12.83,0,15.19,9.47,15.19,13.64,0,5.31-2.69,9.88-7.46,11.49,4,1.75,6.11,3.22,6.11,12.23,0,7,0,8.8,2.15,9.6v1.28H114a32.14,32.14,0,0,1-1.08-9.74c0-6.59-.4-9.14-7.86-9.14H94.67v18.88H84.79Zm21.7,21.23c5.24,0,7.8-1.81,7.8-6.58,0-2.56-1.14-6.32-7.06-6.32H94.67v12.9Z"/><path class="cls-1" d="M180.47,102.58H169.86l17.2-48.24h11.62l17,48.24h-11l-3.1-9.94h-17.8Zm6.05-18.27h12.29l-6-19.08h-.13Z"/><path class="cls-1" d="M262.44,54.34h21.3c16.26,0,19.62,13.84,19.62,23,0,10.35-4.1,25.26-20,25.26h-20.9Zm9.88,39.91h9.81c8.2,0,10.95-8.26,10.95-16.19,0-14.25-6.79-15.39-11.09-15.39h-9.67Z"/><path class="cls-1" d="M355.43,102.58H344.82L362,54.34h11.62l17,48.24H379.69l-3.09-9.94H358.79Zm6.05-18.27h12.3l-6-19.08h-.14Z"/><path class="cls-1" d="M507.22,102.58H497.14V54.34h10.08V74l18.4-19.62h13L519,74.09l20.83,28.49h-13L511.92,81.42l-4.7,4.83Z"/><path class="cls-1" d="M585.22,54.34h24.39c12.83,0,15.19,9.47,15.19,13.64,0,5.31-2.69,9.88-7.46,11.49,4,1.75,6.11,3.22,6.11,12.23,0,7,0,8.8,2.15,9.6v1.28H614.45a32.14,32.14,0,0,1-1.08-9.74c0-6.59-.4-9.14-7.86-9.14H595.1v18.88h-9.88Zm21.7,21.23c5.24,0,7.8-1.81,7.8-6.58,0-2.56-1.14-6.32-7.06-6.32H595.1v12.9Z"/><path class="cls-1" d="M680.9,102.58H670.29l17.2-48.24h11.62l17,48.24h-11l-3.1-9.94h-17.8ZM687,84.31h12.29l-6-19.08h-.13Zm9.14-34.81H689.3l6.31-9.8H706Z"/><path class="cls-1" d="M773,93.85h24v8.73H762.87V54.34H773Zm17.74-31.92c0,7.46-3.9,10.22-9,11.42h-.07V70.13c2.28-.81,4.77-1.88,5.1-7h-5.1v-8.8h9.07Z"/><path class="cls-1" d="M851.09,102.58H840.48l17.2-48.24H869.3l17,48.24H875.35l-3.09-9.94H854.45Zm6-18.27h12.3l-6-19.08h-.14Z"/><g class="cls-2"><path class="cls-1" d="M237.79,14a9.5,9.5,0,0,0,2.65-.57c.67-.3.74-1.21.74-1.81,0-2.05-1.21-3.53-4.33-3.53-2.79,0-4.71.91-5.08,3.93h-2.05c.3-4.1,3.36-5.74,7.16-5.74,3.53,0,6.32,1.37,6.32,5.41V21.2c0,1.58.4,1.95,2.11,1.34v1.58a5.19,5.19,0,0,1-1.58.34,3.76,3.76,0,0,1-.9-.1c-1.35-.2-1.58-1.38-1.62-2.59a8.54,8.54,0,0,1-6.48,2.89c-3.06,0-5.81-1.64-5.81-5,0-2.93,2-4.71,6.08-5.25Zm3.39,1A16.61,16.61,0,0,1,236,16c-3.06.23-4.9,1.34-4.9,3.69,0,2.12,1.84,3.13,3.76,3.13,3.19,0,6.35-1.55,6.35-5.08Z"/><path class="cls-1" d="M250.48,24.19h-2V6.79h2V9.21c1.62-1.72,3.2-2.89,5.62-2.89a6.06,6.06,0,0,1,5.3,2.48,6.58,6.58,0,0,1,.88,4V24.19h-2V12.83c0-3.12-1.27-4.7-4.5-4.7a5.08,5.08,0,0,0-4.84,3.39,9.09,9.09,0,0,0-.44,3.3Z"/><path class="cls-1" d="M267.35,3V0h2.22V3Zm.1,21.2V6.79h2v17.4Z"/><path class="cls-1" d="M276.35,24.19h-2V6.79h2V9.41h.07a6,6,0,0,1,5.38-3.09c3.22,0,4.36,1.51,5.1,3.36a6,6,0,0,1,5.68-3.36c4.74,0,5.41,3.39,5.41,6.88v11h-2v-12c0-2.48-.87-4-3.72-4a4.86,4.86,0,0,0-3.94,2,8.71,8.71,0,0,0-1.14,4.71v9.37h-2v-12c0-2.48-.88-4-3.73-4a4.86,4.86,0,0,0-3.94,2,8.71,8.71,0,0,0-1.14,4.71Z"/><path class="cls-1" d="M301.45,15.49c0-5.07,2.69-9.17,8.06-9.17s8.07,4.06,8.07,9.17c0,5.51-3.2,9.17-8.07,9.17C305.08,24.59,301.45,21.57,301.45,15.49Zm8.06-7.36c-4.23,0-5.91,3.6-5.91,7.36,0,4.33,2,7.36,5.91,7.36,4.24,0,5.92-3.63,5.92-7.36C315.39,11.39,313.78,8.13,309.51,8.13Z"/><path class="cls-1" d="M319.42,6.79h2.18l5.65,14.92,5.64-14.92h2.19l-6.76,17.4h-2.25Z"/><path class="cls-1" d="M346.06,14a9.57,9.57,0,0,0,2.66-.57c.67-.3.74-1.21.74-1.81,0-2.05-1.21-3.53-4.34-3.53-2.79,0-4.7.91-5.07,3.93H338c.3-4.1,3.36-5.74,7.16-5.74,3.52,0,6.31,1.37,6.31,5.41V21.2c0,1.58.41,1.95,2.12,1.34v1.58a5.26,5.26,0,0,1-1.58.34,3.85,3.85,0,0,1-.91-.1c-1.34-.2-1.58-1.38-1.61-2.59A8.54,8.54,0,0,1,343,24.66c-3.06,0-5.82-1.64-5.82-5,0-2.93,2-4.71,6.08-5.25Zm3.4,1a16.66,16.66,0,0,1-5.21,1c-3.06.23-4.91,1.34-4.91,3.69,0,2.12,1.85,3.13,3.77,3.13,3.19,0,6.35-1.55,6.35-5.08Z"/><path class="cls-1" d="M358.76,24.19h-2V6.79h2V9.21c1.61-1.72,3.19-2.89,5.61-2.89a6.07,6.07,0,0,1,5.31,2.48,6.65,6.65,0,0,1,.88,4V24.19h-2V12.83c0-3.12-1.28-4.7-4.5-4.7a5.08,5.08,0,0,0-4.84,3.39,9.09,9.09,0,0,0-.44,3.3Z"/><path class="cls-1" d="M375.29,28.93a9.3,9.3,0,0,0,1.68.2c2.28,0,2.62-3.29,3.39-4.8L373.61,6.79h2.25l5.58,15L387,6.79h2.18L382.72,24c-1.65,4.36-2.73,7.09-5.51,7.09a7.8,7.8,0,0,1-1.92-.24Zm4.2-24L383.22.24h2.59L381.2,4.91Z"/><path class="cls-1" d="M403.81,31.05h-2V6.79h2V9.84h.07a7,7,0,0,1,6.05-3.52c5.61,0,7.86,4,7.86,9.14,0,4.87-2.45,9.2-7.76,9.2a7.24,7.24,0,0,1-6.22-3.26Zm5.88-8.2c4.17,0,6.12-3.53,5.95-7.9s-2.55-6.82-5.95-6.82c-3.79,0-5.88,3.23-5.88,7.43C403.81,19.49,406,22.85,409.69,22.85Z"/><path class="cls-1" d="M424.2,24.19h-2V6.79h2v3.26h.07C425.38,7.26,427,6.32,430,6.32V8.5c-4.54-.1-5.75,3.26-5.75,7.16Z"/><path class="cls-1" d="M432,4.91,435.69.24h2.59l-4.6,4.67Zm1.52,19.28V6.79h2v17.4Z"/><path class="cls-1" d="M443,24.19h-2V0h2V9.58a7.24,7.24,0,0,1,6.22-3.26c5.31,0,7.76,4.33,7.76,9.2,0,5.14-2.25,9.14-7.86,9.14a7,7,0,0,1-6.05-3.53H443Zm5.88-1.34c3.4,0,5.92-2.46,5.95-6.82s-1.78-7.9-5.95-7.9c-3.66,0-5.88,3.36-5.88,7.29C443,19.62,445.07,22.85,448.86,22.85Z"/><path class="cls-1" d="M462.5,16c0,3.76,2,6.89,5.85,6.89a5.1,5.1,0,0,0,5.27-4h2.26c-1,3.29-3.1,5.81-7.53,5.81-5.58,0-8-4-8-9.1s3-9.24,8-9.24c4.77,0,7.69,3.39,7.66,9.64Zm11.36-1.68c0-3.39-1.88-6.15-5.51-6.15s-5.44,2.86-5.85,6.15Z"/><path class="cls-1" d="M479.94,24.19V0h2V9.21c1.62-1.72,3.2-2.89,5.61-2.89a6.07,6.07,0,0,1,5.31,2.48,6.65,6.65,0,0,1,.88,4V24.19h-2V12.83c0-3.12-1.28-4.7-4.5-4.7a5.08,5.08,0,0,0-4.84,3.39,9.09,9.09,0,0,0-.44,3.3v9.37Z"/><path class="cls-1" d="M510.21,31.05h-2V6.79h2V9.84h.06a7,7,0,0,1,6.05-3.52c5.61,0,7.87,4,7.87,9.14,0,4.87-2.46,9.2-7.77,9.2a7.21,7.21,0,0,1-6.21-3.26Zm5.88-8.2c4.16,0,6.11-3.53,5.94-7.9s-2.55-6.82-5.94-6.82c-3.8,0-5.88,3.23-5.88,7.43C510.21,19.49,512.43,22.85,516.09,22.85Z"/><path class="cls-1" d="M527.17,4.91,530.9.24h2.59l-4.6,4.67Zm1.52,19.28V6.79h2v17.4Z"/><path class="cls-1" d="M537.12,18.75c.64,3,2.18,4.1,5.2,4.1s4.31-1.55,4.31-3.23c0-5-11.16-1.48-11.16-8.33,0-2.89,2.25-5,6.12-5s6.21,1.54,6.72,5.47h-2c-.37-2.68-2.19-3.66-4.71-3.66s-3.93,1.21-3.93,3c0,4.74,11.16,1.78,11.16,8.47,0,3.33-3,5.07-7.09,5.07s-6.45-2.62-6.62-5.91Z"/><path class="cls-1" d="M554.48,24.19h-2V6.79h2V9.41h.07a6,6,0,0,1,5.38-3.09c3.22,0,4.37,1.51,5.11,3.36a6,6,0,0,1,5.67-3.36c4.74,0,5.41,3.39,5.41,6.88v11h-2v-12c0-2.48-.88-4-3.73-4a4.83,4.83,0,0,0-3.93,2,8.63,8.63,0,0,0-1.15,4.71v9.37h-2v-12c0-2.48-.88-4-3.73-4a4.84,4.84,0,0,0-3.93,2,8.63,8.63,0,0,0-1.15,4.71Z"/><path class="cls-1" d="M582,16c0,3.76,2,6.89,5.84,6.89a5.11,5.11,0,0,0,5.28-4h2.25c-1,3.29-3.09,5.81-7.53,5.81-5.57,0-8-4-8-9.1s3-9.24,8-9.24c4.77,0,7.7,3.39,7.66,9.64Zm11.35-1.68c0-3.39-1.88-6.15-5.51-6.15S582.37,11,582,14.28Z"/><path class="cls-1" d="M601.42,24.19h-2V6.79h2V9.21C603,7.49,604.61,6.32,607,6.32a6.07,6.07,0,0,1,5.31,2.48,6.65,6.65,0,0,1,.87,4V24.19h-2V12.83c0-3.12-1.28-4.7-4.51-4.7a5.09,5.09,0,0,0-4.84,3.39,9.09,9.09,0,0,0-.43,3.3Z"/><path class="cls-1" d="M618.28,3V0h2.22V3Zm.1,21.2V6.79h2v17.4Z"/><path class="cls-1" d="M626.78,16c0,3.76,2,6.89,5.85,6.89a5.1,5.1,0,0,0,5.27-4h2.25c-1,3.29-3.09,5.81-7.52,5.81-5.58,0-8-4-8-9.1s3-9.24,8-9.24c4.77,0,7.69,3.39,7.66,9.64Zm11.36-1.68c0-3.39-1.88-6.15-5.51-6.15s-5.44,2.86-5.85,6.15Z"/><path class="cls-1" d="M644.08,24.19V0h2V15.05l8.53-8.26h2.76l-6.52,6.28,7.29,11.12h-2.25l-6.52-9.71-3.29,3.13v6.58Z"/></g></g></g></svg>