<svg xmlns="http://www.w3.org/2000/svg" viewBox="0 0 565.02 104.42"><defs><style>.cls-1{opacity:0.5;}.cls-2{fill:#fff;}</style></defs><title>zrada-logo-en</title><g id="Layer_2" data-name="Layer 2"><g id="Layer_1-2" data-name="Layer 1"><g class="cls-1"><path class="cls-2" d="M75.33,14.53A10.27,10.27,0,0,0,78,14c.68-.31.74-1.21.74-1.82,0-2.05-1.21-3.53-4.33-3.53-2.8,0-4.71.91-5.08,3.93h-2c.3-4.1,3.36-5.75,7.16-5.75,3.53,0,6.32,1.38,6.32,5.42v9.48c0,1.58.41,1.95,2.12,1.35v1.58a5.63,5.63,0,0,1-1.58.33,3.79,3.79,0,0,1-.91-.1c-1.34-.2-1.58-1.38-1.61-2.59a8.53,8.53,0,0,1-6.49,2.9c-3.06,0-5.82-1.65-5.82-5,0-2.92,2-4.7,6.09-5.24Zm3.39,1a16.6,16.6,0,0,1-5.21,1c-3.06.24-4.91,1.35-4.91,3.7,0,2.12,1.85,3.13,3.77,3.13,3.19,0,6.35-1.55,6.35-5.08Z"/><path class="cls-2" d="M88,24.68H86V7.26h2V9.69c1.61-1.72,3.19-2.9,5.62-2.9A6.1,6.1,0,0,1,99,9.28a6.65,6.65,0,0,1,.87,4v11.4h-2V13.32c0-3.13-1.28-4.71-4.51-4.71A5.07,5.07,0,0,0,88.48,12,8.83,8.83,0,0,0,88,15.3Z"/><path class="cls-2" d="M104.92,3.46v-3h2.22v3Zm.1,21.22V7.26h2V24.68Z"/><path class="cls-2" d="M113.93,24.68h-2V7.26h2V9.89H114a6,6,0,0,1,5.38-3.1c3.23,0,4.37,1.52,5.11,3.37a6,6,0,0,1,5.68-3.37c4.75,0,5.42,3.4,5.42,6.9v11h-2v-12c0-2.48-.87-4-3.73-4a4.86,4.86,0,0,0-3.94,2,8.74,8.74,0,0,0-1.14,4.71v9.38h-2v-12c0-2.48-.87-4-3.73-4a4.83,4.83,0,0,0-3.93,2,8.66,8.66,0,0,0-1.15,4.71Z"/><path class="cls-2" d="M148.2,14.53a10.43,10.43,0,0,0,2.66-.57c.67-.31.74-1.21.74-1.82,0-2.05-1.22-3.53-4.34-3.53-2.79,0-4.71.91-5.08,3.93h-2.05c.3-4.1,3.36-5.75,7.16-5.75,3.53,0,6.32,1.38,6.32,5.42v9.48c0,1.58.41,1.95,2.12,1.35v1.58a5.63,5.63,0,0,1-1.58.33,3.85,3.85,0,0,1-.91-.1c-1.34-.2-1.58-1.38-1.61-2.59a8.53,8.53,0,0,1-6.49,2.9c-3.06,0-5.82-1.65-5.82-5,0-2.92,2-4.7,6.09-5.24Zm3.4,1a16.71,16.71,0,0,1-5.22,1c-3.06.24-4.91,1.35-4.91,3.7,0,2.12,1.85,3.13,3.77,3.13,3.19,0,6.36-1.55,6.36-5.08Z"/><path class="cls-2" d="M165,24.75a9.68,9.68,0,0,1-2.32.41c-2,0-3.09-.88-3.09-3.47V9h-2.46V7.26h2.46V2.42h2V7.26h3.26V9h-3.26V20.88c0,1.72.06,2.46,1.74,2.46A6.71,6.71,0,0,0,165,23.1Z"/><path class="cls-2" d="M169.48,16.45c0,3.76,2,6.89,5.86,6.89a5.11,5.11,0,0,0,5.28-4h2.25c-1,3.29-3.09,5.82-7.53,5.82-5.59,0-8-4-8-9.12s3-9.25,8-9.25c4.77,0,7.7,3.4,7.66,9.66Zm11.37-1.69c0-3.39-1.88-6.15-5.51-6.15s-5.45,2.86-5.86,6.15Z"/><path class="cls-2" d="M200.39.47h2V24.68h-2V21.62h-.07a7,7,0,0,1-6,3.54c-5.62,0-7.87-4-7.87-9.15,0-4.88,2.45-9.22,7.77-9.22a7.25,7.25,0,0,1,6.22,3.27ZM194.5,8.61c-4.17,0-6.12,3.53-5.95,7.9s2.56,6.83,5.95,6.83c3.8,0,5.89-3.23,5.89-7.43C200.39,12,198.17,8.61,194.5,8.61Z"/><path class="cls-2" d="M218,19.24c.64,3,2.19,4.1,5.21,4.1s4.31-1.55,4.31-3.23c0-5-11.17-1.48-11.17-8.34,0-2.89,2.25-5,6.12-5s6.22,1.55,6.73,5.49h-2.05c-.37-2.7-2.19-3.67-4.71-3.67s-3.94,1.21-3.94,3c0,4.74,11.17,1.78,11.17,8.48,0,3.33-3,5.08-7.1,5.08s-6.45-2.63-6.62-5.92Z"/><path class="cls-2" d="M239.77,24.75a9.78,9.78,0,0,1-2.32.41c-2,0-3.1-.88-3.1-3.47V9H231.9V7.26h2.45V2.42h2V7.26h3.26V9h-3.26V20.88c0,1.72.07,2.46,1.75,2.46a6.71,6.71,0,0,0,1.65-.24Z"/><path class="cls-2" d="M241.85,16c0-5.07,2.69-9.18,8.07-9.18S258,10.86,258,16c0,5.52-3.19,9.19-8.07,9.19C245.48,25.09,241.85,22.06,241.85,16Zm8.07-7.36c-4.23,0-5.92,3.6-5.92,7.36,0,4.34,2.06,7.37,5.92,7.37,4.24,0,5.92-3.63,5.92-7.37C255.81,11.87,254.19,8.61,249.92,8.61Z"/><path class="cls-2" d="M263.81,24.68h-2V7.26h2v3.27h.07c1.11-2.79,2.76-3.74,5.68-3.74V9c-4.54-.1-5.75,3.26-5.75,7.16Z"/><path class="cls-2" d="M272.76,29.43a9.19,9.19,0,0,0,1.68.2c2.28,0,2.62-3.3,3.39-4.81L271.07,7.26h2.26l5.58,15,5.58-15h2.19l-6.49,17.19c-1.65,4.37-2.73,7.09-5.52,7.09a8.26,8.26,0,0,1-1.91-.23Z"/><path class="cls-2" d="M297.91,16c0-5.07,2.69-9.18,8.07-9.18s8.07,4.07,8.07,9.18c0,5.52-3.19,9.19-8.07,9.19C301.54,25.09,297.91,22.06,297.91,16ZM306,8.61c-4.24,0-5.92,3.6-5.92,7.36,0,4.34,2.05,7.37,5.92,7.37,4.24,0,5.92-3.63,5.92-7.37C311.87,11.87,310.25,8.61,306,8.61Z"/><path class="cls-2" d="M316,9V7.26h2.59V4.51c0-2.76,1-4.51,3.7-4.51A9,9,0,0,1,324,.13V2a5.23,5.23,0,0,0-1.21-.16c-2.08,0-2.15,1.71-2.15,3.29V7.26H324V9h-3.36V24.68h-2V9Z"/><path class="cls-2" d="M342.57,24.75a9.78,9.78,0,0,1-2.32.41c-2,0-3.1-.88-3.1-3.47V9H334.7V7.26h2.45V2.42h2V7.26h3.26V9h-3.26V20.88c0,1.72.07,2.46,1.75,2.46a6.71,6.71,0,0,0,1.65-.24Z"/><path class="cls-2" d="M345.66,29.43a9.3,9.3,0,0,0,1.68.2c2.29,0,2.63-3.3,3.4-4.81L344,7.26h2.25l5.59,15,5.58-15h2.18l-6.49,17.19c-1.64,4.37-2.72,7.09-5.51,7.09a8.35,8.35,0,0,1-1.92-.23Z"/><path class="cls-2" d="M364.86,31.54h-2V7.26h2v3.06h.07A7,7,0,0,1,371,6.79c5.62,0,7.87,4,7.87,9.15,0,4.88-2.45,9.22-7.77,9.22a7.25,7.25,0,0,1-6.22-3.27Zm5.89-8.2c4.17,0,6.12-3.53,5.95-7.9s-2.56-6.83-5.95-6.83c-3.8,0-5.89,3.23-5.89,7.43C364.86,20,367.08,23.34,370.75,23.34Z"/><path class="cls-2" d="M382,16c0-5.07,2.69-9.18,8.07-9.18s8.08,4.07,8.08,9.18c0,5.52-3.2,9.19-8.08,9.19C385.64,25.09,382,22.06,382,16Zm8.07-7.36c-4.23,0-5.91,3.6-5.91,7.36,0,4.34,2.05,7.37,5.91,7.37,4.24,0,5.92-3.63,5.92-7.37C396,11.87,394.35,8.61,390.08,8.61Z"/><path class="cls-2" d="M415.31,7.26h2V23c0,4.68-1.54,8.81-8.17,8.81-5.11,0-7.23-2.92-7.36-5h2.15c.6,2.63,2.82,3.2,5.21,3.2,5.52,0,6.26-4.1,6.16-8.11a7.26,7.26,0,0,1-6.23,3.27c-5.31,0-7.76-4.34-7.76-9.22,0-5.15,2.25-9.15,7.86-9.15a7,7,0,0,1,6.06,3.53h.07Zm-5.89,1.35c-3.4,0-5.92,2.45-5.95,6.83s1.78,7.9,5.95,7.9c3.67,0,5.89-3.36,5.89-7.3C415.31,11.84,413.22,8.61,409.42,8.61Z"/><path class="cls-2" d="M424.52,24.68h-2V7.26h2v3.27h.07c1.11-2.79,2.75-3.74,5.68-3.74V9c-4.54-.1-5.75,3.26-5.75,7.16Z"/><path class="cls-2" d="M441.6,14.53a10.34,10.34,0,0,0,2.66-.57c.67-.31.74-1.21.74-1.82,0-2.05-1.21-3.53-4.34-3.53-2.79,0-4.71.91-5.08,3.93h-2.05c.3-4.1,3.36-5.75,7.16-5.75,3.53,0,6.33,1.38,6.33,5.42v9.48c0,1.58.4,1.95,2.11,1.35v1.58a5.55,5.55,0,0,1-1.58.33,3.76,3.76,0,0,1-.9-.1c-1.35-.2-1.58-1.38-1.62-2.59a8.53,8.53,0,0,1-6.49,2.9c-3.06,0-5.82-1.65-5.82-5,0-2.92,2-4.7,6.09-5.24Zm3.4,1a16.7,16.7,0,0,1-5.21,1c-3.07.24-4.91,1.35-4.91,3.7,0,2.12,1.84,3.13,3.76,3.13,3.2,0,6.36-1.55,6.36-5.08Z"/><path class="cls-2" d="M454.55,31.54h-2V7.26h2v3.06h.07a7,7,0,0,1,6.05-3.53c5.62,0,7.87,4,7.87,9.15,0,4.88-2.46,9.22-7.77,9.22a7.24,7.24,0,0,1-6.22-3.27Zm5.88-8.2c4.17,0,6.12-3.53,6-7.9s-2.56-6.83-6-6.83c-3.8,0-5.88,3.23-5.88,7.43C454.55,20,456.77,23.34,460.43,23.34Z"/><path class="cls-2" d="M472.84,24.68V.47h2V9.69c1.61-1.72,3.19-2.9,5.62-2.9a6.1,6.1,0,0,1,5.31,2.49,6.65,6.65,0,0,1,.87,4v11.4h-2V13.32c0-3.13-1.28-4.71-4.51-4.71A5.07,5.07,0,0,0,475.3,12a8.83,8.83,0,0,0-.44,3.29v9.38Z"/><path class="cls-2" d="M491.4,29.43a9.3,9.3,0,0,0,1.68.2c2.29,0,2.63-3.3,3.4-4.81L489.72,7.26H492l5.58,15,5.58-15h2.19l-6.49,17.19c-1.65,4.37-2.73,7.09-5.52,7.09a8.35,8.35,0,0,1-1.92-.23Z"/></g><path class="cls-2" d="M24.68,103.15H14.6V63.4H0V54.85H39.28V63.4H24.68Z"/><path class="cls-2" d="M85.55,54.85H110c12.85,0,15.21,9.49,15.21,13.66,0,5.31-2.69,9.88-7.47,11.5,4,1.75,6.12,3.23,6.12,12.24,0,7.06,0,8.81,2.15,9.62v1.28H114.81a32.3,32.3,0,0,1-1.08-9.76c0-6.59-.4-9.14-7.87-9.14H95.44v18.9H85.55Zm21.72,21.26c5.25,0,7.81-1.82,7.81-6.59,0-2.56-1.15-6.33-7.07-6.33H95.44V76.11Z"/><path class="cls-2" d="M209.91,63.4H184.28V73.55h23.54v8.54H184.28V94.6h26.77v8.55H174.39V54.85h35.52Z"/><path class="cls-2" d="M266.4,103.15H255.77L273,54.85h11.64l17,48.3h-11l-3.09-10H269.76Zm6.05-18.3h12.31l-6-19.1h-.14Z"/><path class="cls-2" d="M355.58,88.28c.07,2.69,1.41,7.8,10.22,7.8,4.78,0,10.09-1.14,10.09-6.25,0-3.77-3.63-4.78-8.74-6L362,82.63c-7.8-1.81-15.34-3.56-15.34-14.19,0-5.38,2.9-14.86,18.57-14.86,14.8,0,18.76,9.68,18.83,15.6h-9.68c-.27-2.15-1.08-7.26-9.89-7.26-3.83,0-8.41,1.41-8.41,5.78,0,3.77,3.1,4.57,5.11,5l11.77,2.89c6.6,1.61,12.65,4.3,12.65,13,0,14.53-14.8,15.8-19,15.8-17.62,0-20.65-10.15-20.65-16.14Z"/><path class="cls-2" d="M454.58,53.58c6.39,0,23.21,2.75,23.21,25.42S461,104.42,454.58,104.42s-23.2-2.75-23.2-25.42S448.19,53.58,454.58,53.58Zm0,42.3c5.45,0,13.12-3.36,13.12-16.88S460,62.12,454.58,62.12,441.47,65.48,441.47,79,449.13,95.88,454.58,95.88Z"/><path class="cls-2" d="M555.6,54.85H565v48.3H554.93L535.22,68.71h-.13v34.44h-9.42V54.85H536.3l19.17,33.63h.13Z"/></g></g></svg>