<svg version="1" xmlns="http://www.w3.org/2000/svg" width="1018.667" height="1018.667" viewBox="0 0 764.000000 764.000000"><path d="M288.8 62.5c-.2.3-2.2.7-4.3 1-5.6.7-9.7 1.5-12 2.2-2.1.7-2.8.9-6 1.7-1.1.2-3.3 1-5 1.7-1.6.7-3.2 1.3-3.5 1.4-2.1.6-17.4 7.8-18 8.4-.3.3-2.1 1.5-4 2.5-3.8 2.1-14.2 8.7-15 9.6-.3.3-2.7 2.1-5.5 3.9-2.7 1.9-5.2 3.7-5.5 4.1-.3.3-2.3 1.8-4.5 3.5-2.2 1.6-4.4 3.4-5 4-.5.6-3 2.7-5.5 4.7-23.8 19.3-70.6 67-84.6 86.4-1 1.5-2.6 3.4-3.5 4.3-2.1 2.1-18.4 23.9-24 32.1-2.4 3.6-4.6 6.7-4.9 7-.5.5-10.4 15.5-14 21.4-3.8 6.1-12.7 21.8-16.3 28.6-2.2 4.1-4.4 7.9-4.8 8.4-.5.6-.9 1.8-.9 2.7 0 1-.4 1.9-.8 2.1-1.1.4-13.1 27.2-17.6 39.3-2.1 5.5-4.2 10.9-4.6 12-.5 1.1-1.4 3.8-2.1 6-1.3 4.1-1.4 4.5-2.3 8-.2 1.1-1 3.3-1.6 5-.7 1.6-1.4 4.1-1.6 5.5-.3 1.4-1 4.3-1.6 6.5-1.3 4.7-1 3.2-3.7 16.5-1.1 5.8-2.3 12.3-2.7 14.5-.3 2.2-.7 5.1-.9 6.5-2 13.2-2.8 53.3-1.2 65 .4 3 1 7.5 1.2 10 .3 2.5.8 5.6 1.2 7 .3 1.4.7 3.4.8 4.5.2 1.1.9 4.2 1.5 7 .6 2.7 1.3 5.7 1.5 6.5 1.2 5.2 6.6 21.5 9 27 20.2 47.6 55.8 83.5 110.1 110.9 13.8 6.9 49.3 20.3 59.5 22.5 1.3.3 6.7 1.7 11.9 3.1 5.2 1.4 10.9 2.8 12.5 3.1 1.7.2 3.7.7 4.5.9 1.7.5 3.6.8 16 3 4.7.9 9.7 1.7 11 2 3.3.6 14.4 2.1 23 3 8.3.9 15.3 1.6 21 2.2 3.6.3 23.4.7 44 .7 37.6 0 53.3-.5 85.5-2.9 14.9-1.1 17.8-1.3 22.5-1.9 2.5-.4 6.5-.8 9-1 9.4-.9 28.8-5.4 46.5-10.6 3.9-1.2 7.5-2.2 8-2.4 6.7-1.6 35.6-11.9 45.3-16.2 2-.9 4.6-2 5.7-2.4 11.8-4.9 55-27.4 57.5-30 .3-.3 2.1-1.4 4-2.4 1.9-1.1 4-2.4 4.5-2.8.6-.5 4.8-3.4 9.5-6.5 7.4-4.9 27.4-19.8 30.6-22.8.6-.5 3.5-3 6.5-5.5 10.3-8.7 31.5-30.6 38.9-40.1 1.4-1.8 4-5.1 5.8-7.3 1.7-2.3 3.6-4.6 4-5.1 4.5-5.6 19.5-30 23.4-38 .8-1.7 1.9-3.9 2.6-5 5.6-9.8 16.3-40 18.8-53 .2-1.1.6-3.1.9-4.5.3-1.4.8-3.9 1.1-5.5.3-1.7.7-4.1.9-5.5 2.6-14.6 2.7-53.7.1-66.6-.2-1.2-.7-3.7-1-5.5-.3-1.9-.8-4.5-1.1-5.9-.3-1.4-.7-3.5-.9-4.8-.3-1.3-.8-3.3-1.1-4.5-2.9-11-6.3-22.3-7.5-25.2-.4-1.1-2.3-5.8-4.1-10.5-3.9-10.1-12.8-28.4-19.4-39.5-4.5-7.7-19.2-29.5-20.5-30.5-.3-.3-2.2-2.6-4.1-5.1-11.9-15.8-46.7-50.9-58.3-58.8-1.2-.8-2.3-1.8-2.6-2.1-.4-.6-19-14.4-28-20.7-1.4-1-2.9-1.7-3.3-1.5-.4.1-1-.5-1.3-1.3-.4-.8-1-1.5-1.5-1.5-.6 0-5.5-2.8-11.1-6.1-16.4-9.9-43.6-23.3-62.8-30.9-8.5-3.4-33.2-12-36-12.6-1.4-.3-5.1-1.4-8.2-2.4-10.3-3.4-42.3-11.3-59.1-14.6-1-.2-2.6-.5-3.5-.8-.9-.3-3.3-.7-5.2-1-1.9-.3-6-1-9-1.6-7.3-1.4-21.6-4-31-5.5-1.9-.3-5.7-1-8.5-1.5-5.8-1.1-10.5-1.9-15.5-2.6-1.9-.2-6-.9-9-1.4-5-.8-8.8-1.3-19-2.7-4.6-.6-39.7-1.3-40.2-.8zm34 29.9c8 .6 10.7.9 19 2.2 2 .3 5.1.7 6.7.9 3.1.4 9.1 1.3 13.5 2 1.4.2 4.3.7 6.5 1 2.3.3 5.2.8 6.5 1 1.4.3 8.4 1.4 15.5 2.6 7.2 1.1 14.4 2.3 16 2.6 1.7.2 4.1.6 5.5.8 2.1.4 9.2 1.7 21.5 4 24.8 4.7 64.3 18 92.2 31 5.3 2.5 10.2 4.5 10.9 4.5.7 0 1.4.3 1.6.7.2.5 4.6 2.9 9.8 5.5 35.9 17.8 72.2 41.8 98.9 65.3 7.8 6.8 25.4 24.7 31.2 31.5 2.9 3.5 5.9 7 6.4 7.6 10.8 12.6 24.4 35.1 31.4 51.9 5.7 13.7 6.3 15.3 6.8 18 .2 1.1.7 3.1 1.3 4.5 1.1 3.1 2.7 9.4 3.4 14 .3 1.9.8 4.5 1 5.7 2.7 13.1 2.8 52 .1 64.3-.3 1.4-.7 4.4-1 6.8-.9 8.7-9.5 39.3-11.6 41.6-.5.6-.9 1.6-.9 2.3 0 1.6-9.1 20.6-13.7 28.5-3.6 6.3-13.8 22-16 24.8-.6.8-4.2 5.3-7.9 10-7.3 9.2-33.1 35.4-40.4 41-2.5 1.8-5.3 4.1-6.2 4.9-8.7 8-33.1 24.3-54.3 36.3-13.4 7.7-32.6 16.7-51 24-14.3 5.7-45.1 15.9-47.5 15.7-.3 0-1.7.4-3.3 1-1.5.6-3.8 1.3-5 1.5-1.2.2-4.9 1.1-8.2 1.9-3.3.9-8 1.9-10.5 2.2-2.4.4-4.7.8-5 1-.3.2-2.5.6-5 1s-4.7.8-5.1 1.1c-.7.4-9.8 1.6-13.6 1.8-1.3.1-2.3.3-2.3.6s-.8.6-1.7.6c-1 0-4.7.4-8.3.8-6.3.7-8.7.9-20 2.1-28.8 2.8-79.9 2.3-104.5-1.1-2.2-.3-5.8-.7-8-1-2.2-.2-5.6-.7-7.5-1-1.9-.3-5.3-.7-7.5-1-4.2-.6-6.6-1-10.1-1.8-1.2-.2-3.9-.7-6-1-2.2-.4-5.5-1.1-7.4-1.6-1.9-.5-4.6-1.1-6-1.4-5.3-1-12-2.8-21.5-5.5-3.8-1.1-8.1-2.3-9.5-2.6-1.4-.4-3.4-1-4.5-1.5s-4.2-1.6-7-2.6c-10.2-3.4-25.4-9.8-38-15.9-12.4-6-32.6-18-33.3-19.7-.2-.4-.8-.8-1.4-.8-3.6 0-37.1-29.8-44.4-39.6-1.6-2.1-3.2-4.1-3.5-4.4-1.4-1.1-10.5-15.9-14.2-22.8-8.3-15.9-14-35.8-16.3-57.2-.8-7.4-.8-30 0-37.5.5-3.9 1-8.1 1.1-9.5 1.9-17.5 14.3-63.9 20-75.1.9-1.6 1.6-3.2 1.6-3.6.1-.9 1-3.1 3-7.8.7-1.7 1.3-3.2 1.4-3.5.1-.3 1.1-2.6 2.3-5.3 1.2-2.6 2.2-4.9 2.2-5.2.1-1 16.9-33.4 21.5-41.5 7.9-13.9 30.7-49.7 32.5-51 .4-.3 1.3-1.5 1.9-2.8.7-1.3 1.9-3.1 2.7-4 1.4-1.6 9.8-13 13.4-18.3.8-1.2 2-2.7 2.5-3.3.6-.6 3-3.8 5.5-7.1 4.6-6.2 15.6-20 19.3-24.5 14.4-16.9 19.5-22.6 32.2-35.4 12-12 17.3-16.7 30.1-26.8 3.8-2.9 7.1-5.6 7.2-6 .2-.5.8-.8 1.4-.8.5 0 2.4-1.1 4.2-2.5 1.8-1.4 3.6-2.5 3.9-2.5.4 0 3.2-1.6 6.3-3.6 3.1-2 6.1-3.7 6.8-3.8.6-.1 3-1.2 5.3-2.4 5.3-2.8 17.1-6 24.7-6.7 3.3-.3 6.1-.6 6.2-.8.4-.4 15.8 0 24.2.7z"/><path d="M522.9 209.4c-.2.2-2 .7-3.9 1-6.8 1.1-8.1 1.5-14.8 4.8-14.8 7.2-26.5 23.5-29.6 41.3-.3 1.6-.8 4.1-1.1 5.5-1 4.6-.7 17.4.5 24 1.8 9.6 8.1 21.7 14.8 28.7 5.7 5.9 14.1 12.3 16.1 12.3.6 0 1.1.5 1.1 1.2 0 .6.3.8.7.5.3-.4 1.1-.3 1.7.1 3.1 2.4 14.7 5.9 25.6 7.8 4.2.7 16.3.7 18.8 0 .9-.3 3.3-.8 5.2-1.1 1.9-.3 3.9-1 4.4-1.6.6-.5 1.8-.9 2.7-.9 1 0 2.4-.6 3.1-1.3.7-.7 1.8-1.4 2.3-1.5 2.1-.4 11.4-8.9 15-13.7 9-12.2 12.8-23.6 12.9-39 0-10.2-.6-15-2.9-21.5-1.5-4.5-6.5-15.1-7.5-16-.3-.3-1.8-2.3-3.5-4.5-4.6-6.2-11.5-12.2-19.6-16.8-4.3-2.6-16.4-7.1-21.9-8.3-3.2-.7-19.6-1.5-20.1-1zm21.4 32.9c10.4 3.6 19.2 11.4 23.6 20.7 5 10.7 2.7 28.6-4.4 34.8-8.8 7.6-25.8 7.8-38.5.5-4.5-2.6-15.4-13.2-15-14.5.1-.2-.4-1.6-1-3.2-6-16-.5-35 11.5-39.1 5.1-1.7 17.5-1.3 23.8.8zM245 267.9c-29.8 6.4-48.9 26.6-56.4 59.8-2.1 9.1-1.8 31.5.4 39.5 2.8 10.2 4.4 14.8 5.2 14.8.5 0 .8.7.8 1.5s.5 1.5 1 1.5c.6 0 1 .7 1 1.5 0 2.8 13.2 14.9 20.5 18.6 6.9 3.6 16.6 7.3 21.5 8.3 1.4.3 3.4.7 4.6 1 9.6 2.1 32.3 2.8 40.4 1.1 21.2-4.2 41.4-19.8 49.8-38.5 3.5-7.8 5.1-12 4.7-12-.3 0 0-1.2.6-2.7 2.1-5.6 3-24.8 1.6-32.8-.3-1.7-.9-4.5-1.2-6.3-.9-4.9-5.8-16.5-9.7-22.9-4.2-7-13.7-16.7-20.8-21.4-4.9-3.2-13.7-7.7-16.5-8.3-.5-.2-2.8-.8-5-1.4-7.3-2-9.9-2.3-22-2.7-8.9-.3-14.2.1-20.5 1.4zm38.2 31.9c7.3 2.6 13.3 6.7 19.6 13.6 4.6 5.1 10.3 14.7 10.9 18.6 2.3 13.7-1.6 24-13.7 36-5.8 5.9-14.3 11.9-17.4 12.4-.6.1-1.5.4-2.1.8-3.8 2.3-15.1 2.9-23 1.2-20-4.1-35.5-21.5-34-38.1 1.3-15.1 11.1-32.6 23-41 8.8-6.2 24.9-7.7 36.7-3.5zM573.5 455.5c-5.8 2.8-18.4 7.9-23.5 9.4-6.1 1.8-11.9 2.2-27.9 2.3-16.9.1-22.3 1.1-30.1 5.5-4.5 2.7-12.4 10.2-17.1 16.4-1.5 1.9-5.1 6.5-8 10.4-10.1 13.3-17.4 18.6-24.7 17.9-7.6-.7-12.2-1.5-12.7-2.5-.4-.5-1.1-.7-1.6-.4-.5.4-2.3-.7-3.9-2.4-2.4-2.4-2.9-3.6-2.5-6 .9-5 2.3-8 7.2-14.8 5.7-8 6.8-14.3 3.4-19.1-3-4.3-6.9-5.5-15.6-4.9-11.4.8-19.6 6.1-25.9 16.7-7.4 12.5-8 28.3-1.6 40.9 1.5 3.1 3.8 6.7 5 8.1 1.2 1.4 2.5 3 2.8 3.6.4.6 3.2 3.1 6.3 5.6 6.3 5 16.3 10.1 22.4 11.3 2.2.5 4.7 1 5.5 1.2 3.7.8 15.2.5 20.1-.7 5.9-1.4 16.1-6 18.5-8.5.9-.8 1.9-1.5 2.4-1.5.9 0 16.6-15.4 26-25.6 3.6-3.9 8.2-8.3 10.2-9.8 5.4-4 14.1-6.9 24.8-8.2 26.9-3.1 43-8 56.7-17 9.4-6.3 12.4-14.8 7.6-22.1-5.2-8.1-14.4-10.4-23.8-5.8z"/></svg>