<svg xmlns="http://www.w3.org/2000/svg" viewBox="0 0 250 150"><defs><style>.cls-1{opacity:0.25;}.cls-2{fill:#fff;}</style></defs><title>Asset 2</title><g id="Layer_2" data-name="Layer 2"><g id="Layer_1-2" data-name="Layer 1"><path class="cls-1" d="M232.11,1A17.93,17.93,0,0,0,249,17.89V132.11A17.93,17.93,0,0,0,232.11,149H17.89A17.93,17.93,0,0,0,1,132.11V17.22A17.27,17.27,0,0,0,17.22,1H232.11m1-1H16.25A16.24,16.24,0,0,1,0,16.25V133.08A16.93,16.93,0,0,1,16.92,150H233.08A16.93,16.93,0,0,1,250,133.08V16.92A16.93,16.93,0,0,1,233.08,0Z"/><path class="cls-2" d="M250,16.92V0H233.08A16.93,16.93,0,0,0,250,16.92Z"/><path class="cls-2" d="M0,133.08V150H16.92A16.93,16.93,0,0,0,0,133.08Z"/><path class="cls-2" d="M16.25,0H0V16.25A16.24,16.24,0,0,0,16.25,0Z"/><path class="cls-2" d="M233.08,150H250V133.08A16.93,16.93,0,0,0,233.08,150Z"/></g></g></svg>