<svg xmlns="http://www.w3.org/2000/svg" viewBox="0 0 1700.88 708.72"><defs><style>.cls-1,.cls-2{opacity:0.5;}.cls-2{fill:none;}</style></defs><title>logo</title><g id="Layer_2" data-name="Layer 2"><g id="Layer_1-2" data-name="Layer 1"><path d="M306,380.34c.1-30.64.69-55.3-.25-79.92-.82-21.6-.64-43.19-.31-64.77q.34-23,.47-46.06a6.63,6.63,0,0,1,3.58-6.18c15.34-9.55,30.62-19.22,45.92-28.84,16.25-10.22,32.46-20.51,48.78-30.61C417,116,430,108.48,442.8,100.56c9.11-5.64,18-11.65,27-17.43,4.57-2.94,9.23-5.76,13.87-8.59a19,19,0,0,1,11.93-2.82,12.91,12.91,0,0,1,3.27.65,4.92,4.92,0,0,1,2.24,7.85,9.72,9.72,0,0,1-2.45,2.25,50.12,50.12,0,0,1-5.41,3.11c-12.28,5.87-24,12.78-35.78,19.55q-9,5.15-17.86,10.35c-1.24.72-2.47,1.48-3.69,2.24a1.83,1.83,0,0,0-.73,2.5c.31.73.65,1.46,1,2.17,16.43,33.1,32.7,66.28,49.68,99.1,7.72,14.92,15.55,29.78,24.29,44.14,1.25,2.05,2.6,4,3.8,6.12a26.49,26.49,0,0,1,2.3,4.73c1.39,4.19-.64,7.27-5,7.9a25.13,25.13,0,0,1-2.88.13,6.49,6.49,0,0,1-6-3.21,42.23,42.23,0,0,1-2.15-3.75q-10.17-20.93-20.3-41.88c-.49-1-.91-2-1.4-3.06Q465.66,206.3,452.83,180q-12.33-25.23-24.74-50.41c-.7-1.43-1.45-2.85-2.28-4.21a1.84,1.84,0,0,0-2.51-.7,13.74,13.74,0,0,0-1.7.89q-9.87,5.92-19.73,11.88c-.28.16-.54.35-.82.51a4.55,4.55,0,0,0-2.55,4.29c0,1.28-.07,2.56-.06,3.84.1,38.87.05,77.75.44,116.63.1,10.87.78,21.75.35,32.61-1.06,27.35-.39,54.71-.46,82.06,0,10.71.62,21.43.58,32.14a97.88,97.88,0,0,1-5.07,32.08c-7.11,20.48-20.71,35-40.4,43.85-8.36,3.77-17.22,5.87-26.25,7.34a162.65,162.65,0,0,1-34.91,1.71c-12.49-.66-24.79-2.59-36.48-7.42a60.15,60.15,0,0,1-30.6-27.18,40.3,40.3,0,0,1-4.59-13.57,14.75,14.75,0,0,1-.12-3.81,6.11,6.11,0,0,1,4.47-5.65,7.13,7.13,0,0,1,7.81,2.27,11,11,0,0,1,2.06,4.29c.36,1.39.67,2.8.92,4.22,1.61,9.12,6.37,16.25,13.62,21.86,7.48,5.79,16,9.28,25,11.83,8.72,2.47,17.66,2.79,26.65,2.38a11.45,11.45,0,0,0,1.42-.17,2.37,2.37,0,0,0,2.17-2.2c.13-1.27.19-2.56.2-3.83.05-5-.06-9.93.11-14.88C306.39,433.2,305.76,403.77,306,380.34Z"/><path d="M127.58,74.58c12.64,0,25.28.06,37.91,0a196.72,196.72,0,0,1,30.11,2.11c17.94,2.68,34.12,9.54,48.08,21.28a108.3,108.3,0,0,1,31.84,44.91,89.52,89.52,0,0,1,6.07,30.92c.14,9.29-.09,18.53-2.28,27.65a104.64,104.64,0,0,1-18,38.4c-10.2,13.71-22.71,24.67-38.29,31.94-9.95,4.65-20.44,7.25-31.26,8.87-6.68,1-13.39.77-20.1,1-30.22,1-60.45.34-90.68.51a52.27,52.27,0,0,1-5.73-.33,2.3,2.3,0,0,1-2.14-2.24,35,35,0,0,1-.19-3.83c0-19.83-.3-39.68.23-59.5.4-15.2.73-30.4.3-45.58-.83-28.95-.39-57.9-.76-86.84,0-2.24,0-4.48.14-6.72a2.27,2.27,0,0,1,2.43-2.41c1.59-.14,3.2-.13,4.79-.13h47.52Zm37.88,125.56c-.57,12.22.68,25,.64,37.78,0,9.28.1,18.56.19,27.83.06,5.53.27,5.76,5.66,5.54,4.79-.2,9.58-.62,14.37-.78A57.87,57.87,0,0,0,197.71,269a96.15,96.15,0,0,0,35.14-16,91.18,91.18,0,0,0,24.25-26.93c12.15-20.17,16-41.9,12-65a89.85,89.85,0,0,0-16.32-37.52c-11.52-15.87-26.38-27.23-45.15-33.33-11.68-3.79-23.68-5.26-35.89-5.44-5.25-.07-5.35.13-5.41,5.36-.36,30.86.24,61.73-.82,92.59C165.3,188.35,165.46,194,165.46,200.14Z"/><path class="cls-1" d="M868.81,108.29l5.9-3.65a64.71,64.71,0,0,1,26.44-9.5,43.49,43.49,0,0,1,24.34,3.63,22,22,0,0,1,10.23,9.11,14.24,14.24,0,0,0,1,1.62,1.61,1.61,0,0,0,2.49.41c.94-.61,1.82-1.32,2.74-2,5.83-4,11.85-7.62,18.59-9.88,10.54-3.54,21.23-4.58,32.08-1.51,11.17,3.16,17.61,10.58,19.29,22,1.33,9.07,1.07,18.2.58,27.31a233.71,233.71,0,0,0,0,24c.34,7,.3,14.07.41,21.11a8.15,8.15,0,0,1-.22,1.9,2.28,2.28,0,0,1-1.9,1.91,27.14,27.14,0,0,1-3.82.26c-11.52,0-23,0-34.56,0-5.7,0-6-.32-6-6q.12-34.31.28-68.63a61.83,61.83,0,0,0-.17-6.24c-.45-4.85-2.77-6.74-7.67-6.36a21.86,21.86,0,0,0-7.34,2.1,61,61,0,0,0-8.19,5,6.84,6.84,0,0,0-3.31,6.39c.13,10.4,0,20.8,0,31.2q0,18.24,0,36.48c0,5.74-.2,6-5.85,6q-17.52,0-35,0c-5.05,0-5.5-.47-5.49-5.48,0-12.8-.17-25.61.26-38.4.27-8.15.46-16.3.4-24.46,0-4.63-.34-9.26-.67-13.89-.27-3.79-1.68-5-5.54-5.09A16.14,16.14,0,0,0,881.6,109a50.78,50.78,0,0,0-11.49,6.89,4.82,4.82,0,0,0-2,4.12c0,1.12,0,2.24,0,3.36q0,31.68,0,63.36c0,1.92,0,3.84-.13,5.75a2.41,2.41,0,0,1-2.47,2.44,26.66,26.66,0,0,1-3.35.17c-11.52,0-23,0-34.56,0-5.62,0-6-.36-6-6q0-34.32.1-68.64c0-6.08-.11-12.16-.08-18.24,0-4.35.67-5.07,5-5.11,9.92-.1,19.84,0,29.76,0,1.92,0,3.84,0,5.76,0a21.26,21.26,0,0,1,2.87.17c2.25.34,2.87,1.06,3,3.54.08,1.43,0,2.88.06,4.31A4.9,4.9,0,0,0,868.81,108.29Z"/><path class="cls-1" d="M693.48,134.17q0,27.11,0,54.21c0,6.55-.07,6.66-6.71,6.67q-16.78,0-33.58,0c-5.8,0-5.93-.21-6.2-5.81,0-1.17.68-2.86-.88-3.36-1.07-.35-1.84,1.05-2.67,1.75A37.11,37.11,0,0,1,616,196.86c-13.17-.89-23.76-7-32.14-17a50.93,50.93,0,0,1-12-33.12c-.12-9.63,1.22-18.92,6.28-27.2,9.61-15.7,23.44-24.63,42.23-24.64,7.68,0,14.73,2.6,21.24,6.64,1.09.68,2.12,1.44,3.18,2.16.64.43,1.28,1.18,2.1.78,1.08-.51.82-1.67.72-2.56-.65-5.9-.42-11.82-.51-17.73,0-2.56-.09-5.12.05-7.67s1-3.3,3.6-3.54c1.11-.1,2.24-.08,3.36-.08q16.31,0,32.62,0a32.93,32.93,0,0,1,4.76.34,2.08,2.08,0,0,1,1.83,1.94c.13,1.43.18,2.87.18,4.31q0,27.35,0,54.68Zm-45.81,10.49v-24c0-1.11-.06-2.23,0-3.35a5.31,5.31,0,0,0-2.14-4.57,79.21,79.21,0,0,0-10-7.33,23.43,23.43,0,0,0-8.07-2.91c-3.38-.56-5.59,1-6.06,4.43a60.87,60.87,0,0,0-.52,7.63c0,3,.23,6.07.23,9.1,0,17.73,0,35.46,0,53.19a66,66,0,0,0,.26,7.18c.39,3.68,2.08,5,5.77,4.79,3-.15,5.52-1.55,7.92-3.14a77.17,77.17,0,0,0,9.12-7.73,10.12,10.12,0,0,0,3.58-8.41C647.53,161.27,647.67,153,647.67,144.66Z"/><path class="cls-1" d="M618.34,292.69c0,1.73-.13,3.47-.12,5.2,0,12,.08,24,.1,36a32.45,32.45,0,0,1-.27,4.3,2.1,2.1,0,0,1-1.92,1.85,22.92,22.92,0,0,1-2.87.18c-12.16,0-24.32,0-36.47,0-4.53,0-4.91-.39-4.9-5,0-12.8.15-25.6.14-38.39q0-35-.12-70.07c0-1.91,0-3.84.16-5.75a2.26,2.26,0,0,1,2.17-2.17,28.81,28.81,0,0,1,3.35-.19c11.67,0,23.35,0,35,0,5.35,0,5.74.38,5.74,5.72,0,15.2-.09,30.39-.14,45.59,0,2.4,0,4.8,0,7.2,0,.63,0,1.33.63,1.7s1.21-.08,1.69-.49L627.8,272c7.58-6.63,15.07-13.38,23.17-19.39a62.64,62.64,0,0,1,11.45-7,23.14,23.14,0,0,1,11.67-2.11,9.77,9.77,0,0,1,2.79.58,4.74,4.74,0,0,1,2.89,5.45,4.62,4.62,0,0,1-4.46,3.68,16.42,16.42,0,0,1-3.31-.43,16.08,16.08,0,0,0-12,2.28c-2,1.31-4,2.57-6,4-3.45,2.55-3.55,3.09-1.48,6.66,1.52,2.63,3.12,5.22,4.69,7.82,8.18,13.56,16.32,27.14,24.55,40.67,4.66,7.65,9.46,15.22,15.52,21.88a11.21,11.21,0,0,1,1.6,2.37,1,1,0,0,1-.72,1.46,17.66,17.66,0,0,1-3.33.25c-14.4,0-28.8-.08-43.19.07-3.5,0-5.53-1.23-7.22-4.25-7.19-12.84-14.59-25.56-21.93-38.31-1-1.79-2.18-3.51-3.28-5.26Z"/><path class="cls-1" d="M822,291.35q0,20.88,0,41.74c0,7.32.12,7.14-7.11,7.13-11.2,0-22.39,0-33.59,0-5.46,0-5.76-.25-5.76-5.64,0-6.19-.17-5.69-5.16-2.69-7.44,4.46-15.17,8.31-23.87,9.63-7.15,1.09-14.32,1.3-21.42-.38a32.52,32.52,0,0,1-5.44-1.83c-8.4-3.67-13.45-10.06-15.17-19.05a50.85,50.85,0,0,1-1-10q.08-10.31.06-20.62,0-20.16-.1-40.3c0-6.53,0-6.6,6.76-6.61q16.54,0,33.1,0c6.47,0,6.58.15,6.56,6.84q-.07,33.57-.13,67.16c0,2.56,0,5.13.25,7.67.39,3.92,2.41,5.55,6.41,5.54a17.21,17.21,0,0,0,6.48-1.59,48.11,48.11,0,0,0,10.25-6.16,5.57,5.57,0,0,0,2.5-4.89c0-.32,0-.64,0-1,.2-10.23.58-20.46.55-30.68,0-12-.43-24-.65-36a34.48,34.48,0,0,1,.13-4.31,2.53,2.53,0,0,1,2.44-2.5,26.75,26.75,0,0,1,3.35-.16c11.52,0,23,0,34.54,0,5.71,0,6,.31,6,5.95q0,21.35,0,42.69Z"/><path class="cls-1" d="M1098.27,291.69q0,20.63,0,41.25a40.05,40.05,0,0,1-.22,4.78,2.45,2.45,0,0,1-2.51,2.4,27.71,27.71,0,0,1-2.88.09c-11.67,0-23.34,0-35,0-5.55,0-5.7-.2-5.8-5.57,0-1.28,0-2.56-.08-3.83s-.94-1.59-2-1c-2.07,1.21-4.09,2.5-6.16,3.71a60.16,60.16,0,0,1-21,7.95c-7.46,1.17-15,1.34-22.36-.56-11.87-3.06-19.49-12.19-20.21-24.43-.31-5.42-.2-10.87-.21-16.3,0-12.47.07-24.94,0-37.41,0-4.15-.41-8.3-.53-12.45-.22-8.06.38-7.66,7.17-7.66,11.19,0,22.38,0,33.57,0,5.74,0,5.9.36,5.74,6-.2,6.55-.21,13.11-.22,19.67q0,24.71,0,49.4a31.84,31.84,0,0,0,.78,8.09c.68,2.62,2,3.77,4.66,4a16.49,16.49,0,0,0,7.93-1.48c4.19-1.7,7.77-4.42,11.37-7.08a3.91,3.91,0,0,0,1.62-3.31c0-1.92.08-3.84.08-5.75q0-30.94-.11-61.88c0-1.6,0-3.2.1-4.79.14-1.79.9-2.51,2.73-2.74a23,23,0,0,1,2.88-.13c11.67,0,23.34,0,35,0,5.25,0,5.67.43,5.69,5.8q0,21.59,0,43.17Z"/><path class="cls-1" d="M1210.43,444.38q0-17.52,0-35a33.14,33.14,0,0,0-.24-4.78,5.26,5.26,0,0,0-5.09-4.86,14.27,14.27,0,0,0-5.69.52,38.8,38.8,0,0,0-12.88,7.25,4.91,4.91,0,0,0-1.92,3.7c-.19,3-.55,6.06-.55,9.09q-.09,29.75-.06,59.5c0,1.44,0,2.88-.08,4.31-.15,1.79-.89,2.49-2.75,2.71a25,25,0,0,1-2.87.13c-11.68,0-23.35,0-35,0-5.11,0-5.58-.43-5.58-5.39,0-5.91-.22-11.83.37-17.74.27-2.69.15-5.43.15-8.15,0-15.67,0-31.35,0-47,0-3.19-.34-6.38-.42-9.58a71.68,71.68,0,0,1,.12-7.18c.12-1.56,1-2.21,2.52-2.37,1-.09,1.91-.09,2.87-.09q17.76,0,35.51,0c5.41,0,5.54.19,5.76,5.71,0,.79,0,1.6.09,2.39.17,1.78,1.08,2.35,2.54,1.44a105.09,105.09,0,0,1,11.34-6.25c8.37-3.88,17.12-6.3,26.42-5.94a38.33,38.33,0,0,1,19.58,5.64,22.21,22.21,0,0,1,10.38,14.9,47.42,47.42,0,0,1,1,9.05q0,15.82.06,31.66,0,16.56.07,33.11c0,1,.09,1.92,0,2.88-.08,1.93-.7,2.64-2.53,2.83-1.11.11-2.23.11-3.35.11h-33.59c-.64,0-1.28,0-1.92,0-3.78-.17-4.38-.71-4.4-4.62,0-12.63,0-25.27,0-37.9Z"/><path class="cls-1" d="M1383.37,446.19c0,7.52,0,15,0,22.55a30.18,30.18,0,0,0,2.84,14,10.42,10.42,0,0,1,.64,1.8,1.56,1.56,0,0,1-1.29,2.13,42.24,42.24,0,0,1-4.77.27q-18,0-36,0c-1,0-1.92,0-2.88,0-4-.13-4.4-.49-4.73-4.33,0-.64,0-1.29-.09-1.92-.13-1.25-.91-1.71-2-1.16s-1.93,1.13-2.91,1.67c-6.34,3.52-13,6.22-20.24,7.13-15.34,1.92-28.1-2.81-37.61-15.22-8.53-11.12-8.78-32.15,6.07-42.9a50.56,50.56,0,0,1,21.92-9.06,57.47,57.47,0,0,1,30.59,3.42,17.32,17.32,0,0,0,2.26.79,1.34,1.34,0,0,0,1.79-1.09,8.08,8.08,0,0,0,.21-1.9c0-5.91,0-11.83-.14-17.75a14.32,14.32,0,0,0-.43-3.32,8,8,0,0,0-5.15-5.9,18.59,18.59,0,0,0-5.08-1.33c-6.24-.49-12.43-.42-18.5,1.57a31.64,31.64,0,0,0-14,9,15.62,15.62,0,0,1-4.7,4,5.7,5.7,0,0,1-6.33-.48,4.63,4.63,0,0,1-1.6-5.56,10.45,10.45,0,0,1,3.45-4.51,42.53,42.53,0,0,1,11.72-6.47,76.17,76.17,0,0,1,17.22-4.07,111.65,111.65,0,0,1,20.59-.71c8.78.42,17.52,1.32,26,3.76a42.59,42.59,0,0,1,12.59,5.78,22,22,0,0,1,9.79,16.78c1,9.58.53,19.17.69,28.76,0,1.44,0,2.88,0,4.32Zm-46.24,6.07h0V441.71c0-1.75,0-3.51-.05-5.27A3.69,3.69,0,0,0,1335,433a41.76,41.76,0,0,0-13.14-4.31c-4.07-.58-6.7,1.48-7.52,5.57a27.84,27.84,0,0,0-.67,5.21q-.09,15.1,0,30.2a22.32,22.32,0,0,0,.69,4.72,4.32,4.32,0,0,0,4.47,3.59,15.27,15.27,0,0,0,6.59-.86,43.53,43.53,0,0,0,8.81-4.81,6.23,6.23,0,0,0,2.94-5.64C1337.06,461.85,1337.13,457.05,1337.13,452.26Z"/><path class="cls-1" d="M742.39,442.28c0,7.51,0,15,0,22.54,0,6.3.7,12.44,3.33,18.24a7.42,7.42,0,0,1,.58,1.82,1.41,1.41,0,0,1-1.16,1.77,15.19,15.19,0,0,1-2.85.26H702a21.31,21.31,0,0,1-2.4-.1c-1.87-.23-2.53-.89-2.79-2.69,0-.16,0-.32,0-.48-.56-5.13-.56-5.12-4.88-2.65a57.14,57.14,0,0,1-20.65,7.37c-13.61,1.85-25.38-2.11-34.87-12a31.89,31.89,0,0,1-4.75-37,31.57,31.57,0,0,1,10.16-10.68,48.41,48.41,0,0,1,20.44-7.71A58.1,58.1,0,0,1,686,422.39c2.78.72,5.42,1.92,8.15,2.84,1.65.55,2.55,0,2.56-1.67q0-9.6-.15-19.18a16.45,16.45,0,0,0-.77-3.75,7.18,7.18,0,0,0-3.82-4.68,15.78,15.78,0,0,0-6.38-2c-5.1-.28-10.2-.39-15.26.78a32.71,32.71,0,0,0-16.18,8.84c-1.47,1.47-2.91,3-4.47,4.33a5.91,5.91,0,0,1-5.4,1.28,5,5,0,0,1-3.71-6.23,8.23,8.23,0,0,1,2.91-4.31,45.68,45.68,0,0,1,5.52-3.78,64.22,64.22,0,0,1,24.12-7.4,120.07,120.07,0,0,1,20.58-.7c9.9.5,19.76,1.45,29.21,4.81a36.55,36.55,0,0,1,10.58,5.51c4.43,3.49,7.47,7.78,8.26,13.55a61.57,61.57,0,0,1,.65,8.12c0,7.83,0,15.66,0,23.5Zm-69.24,12.09h0c0,5.59,0,11.17,0,16.76,0,7,3.39,7.16,7.75,6.78s7.84-2.47,11.34-4.76c3-2,4.59-4.43,4.48-8.3-.23-8.61,0-17.23,0-25.85,0-.79,0-1.59,0-2.39a3.66,3.66,0,0,0-2.45-3.73c-2.82-1.12-5.63-2.26-8.48-3.26a21.47,21.47,0,0,0-4.2-.95c-4.42-.57-7.42,1.66-8.15,6.09a26.78,26.78,0,0,0-.27,4.3C673.13,444.16,673.15,449.27,673.15,454.37Z"/><path class="cls-1" d="M1075.14,529.13c4,1.52,7.74,1.53,11.3,2.35a74.72,74.72,0,0,1,11.89,3.69,38.11,38.11,0,0,1,9.08,5.31,23.49,23.49,0,0,1,9.28,16.19,103.35,103.35,0,0,1,.91,12.91q-.06,20.64,0,41.27c0,1.6.07,3.2,0,4.8a26.82,26.82,0,0,0,3.51,13.3c.59,1.13,1.3,2.2,1.9,3.33,1.71,3.23,1.15,4.13-2.65,4.32h-51.83c-2.51.12-4.35-.55-4.84-3.43-.22-1.3-1-1.56-2.1-1.13-.9.35-1.76.78-2.62,1.18a51.58,51.58,0,0,1-18.88,5.14c-16.19,1-29.54-4.81-39-18.16-8.49-12-9.37-34,7-46.63a52.58,52.58,0,0,1,25.41-10.43,62.84,62.84,0,0,1,27.46,2.34,6.44,6.44,0,0,0,1.39.35,1.5,1.5,0,0,0,1.73-1.29,18.64,18.64,0,0,0,.14-3.34c-.15-3.35-.44-6.7-.54-10.05-.13-4.54-1.24-6.42-6.53-7.28a40.9,40.9,0,0,0-13.38.2,27.92,27.92,0,0,0-17.2,9.64,17.82,17.82,0,0,1-5.16,4.23,9.6,9.6,0,0,1-11.47-1.75,9.27,9.27,0,0,1-.67-11.15,19.69,19.69,0,0,1,7-6.41,61.62,61.62,0,0,1,21-7.95c7.67-1.38,6.37-1.32,8.57-7.2,2.13-5.69,4.13-11.43,6.19-17.15.33-.9.67-1.8,1-2.7a3.75,3.75,0,0,1,3.68-2.56c1,0,1.91-.07,2.87-.07h31.2a31.15,31.15,0,0,1,3.34.18,1.32,1.32,0,0,1,1,2.11c-1.28,1.84-2.62,3.63-4,5.39q-7.11,9.06-14.25,18.09C1076.41,527.4,1076,528.05,1075.14,529.13Zm-7.11,9.24c0,.21-.1.4,0,.51a6.75,6.75,0,0,0,.79,1.18,15,15,0,0,1,3.78,10.57c0,2.4.08,4.8.08,7.19q0,31.42,0,62.83c0,1.44,0,2.88.08,4.31.14,1.85.84,2.54,2.71,2.71,1.27.11,2.55.09,3.83.09h22.54c1.92,0,3.84,0,5.75-.06,2.29-.13,3-.89,2.41-3-1.4-5.34-1.29-10.76-1.28-16.2q0-21.11,0-42.2a67.28,67.28,0,0,0-.78-9.07,15.22,15.22,0,0,0-6.26-10.36,33.11,33.11,0,0,0-9.32-4.85c-6.69-2.33-13.65-3.26-20.64-4C1070.45,537.83,1069.12,537.46,1068,538.37Zm-24.55,33.73a6.27,6.27,0,0,0-1.41-.64,41.22,41.22,0,0,0-23,5.16,32,32,0,0,0-10,8.1c-5.38,6.86-5.7,14.66-4.16,22.76a20.94,20.94,0,0,0,4.17,9.06c4.69,5.91,10.5,10.18,17.92,12.09,5.66,1.46,11.36,1.27,17.08.47.24,0,.44-.39.67-.62-.28-.86-1.1-1.13-1.7-1.62a9.72,9.72,0,0,1-3.52-7.08c-.07-.95-.11-1.91-.11-2.87,0-11,0-22,0-33C1039.42,579.62,1040.14,575.62,1043.48,572.1Zm4.8,27.51h0c0,4.64,0,9.27,0,13.91a32.63,32.63,0,0,0,.17,3.83c.24,2,1.23,2.72,3.27,2.66,3.17-.1,5.78-1.67,8.41-3.2a6.68,6.68,0,0,0,3.62-6.26c0-8.63.06-17.26.15-25.89a3.08,3.08,0,0,0-1.76-3.11,34,34,0,0,0-9.55-3.09c-2.34-.41-3.72.64-4,2.94a32.59,32.59,0,0,0-.25,4.31C1048.26,590.34,1048.28,595,1048.28,599.61Zm13.19-74.37v-.08c.63,0,1.27,0,1.9,0a6.44,6.44,0,0,0,6.06-3c1.65-2.34,3.54-4.5,5.3-6.75,1-1.25,2-2.51,2.82-3.84.37-.58.2-1.41-.58-1.46a115.68,115.68,0,0,0-15.24,0,2.5,2.5,0,0,0-2.18,1.64c-1.37,3.56-2.68,7.15-3.9,10.76a1.79,1.79,0,0,0,1.54,2.46C1058.61,525.13,1060.05,525.15,1061.47,525.24Z"/><path class="cls-1" d="M1601.64,636.82h-23.5c-1.12,0-2.24,0-3.36,0-2,0-3.27-.56-3.69-2.82-.33-1.81-1.09-2-2.75-1.34-2.95,1.2-5.85,2.6-8.86,3.64a47.68,47.68,0,0,1-26.92,1.36,39.12,39.12,0,0,1-22.64-14.39c-8.28-10.7-9.85-22.64-5.32-35.32,2.46-6.91,7.49-11.84,13.34-15.93a49.72,49.72,0,0,1,26-8.68c8.18-.48,16.3,0,24.12,2.82a6,6,0,0,0,.93.23c1.21.25,1.94-.18,2-1.3a19.68,19.68,0,0,0,.11-2.87c-.21-4-.38-8-.71-12-.26-3.13-1.55-4.78-4.52-5.41-3.58-.76-7.18-1.41-10.92-.76s-7.28.85-10.71,2.37a29.77,29.77,0,0,0-10.48,7.42,18.69,18.69,0,0,1-6.77,5.23c-3.71,1.5-6.94.64-9.7-2s-3.4-6-2.09-9.7a12.22,12.22,0,0,1,3-4.32,31.07,31.07,0,0,1,7.38-5.28,66.88,66.88,0,0,1,20.81-7,4.34,4.34,0,0,1,1-.12c2.56.09,3.63-1.52,4.37-3.65,1.57-4.53,3.22-9,4.83-13.55.75-2.11,1.46-4.23,2.25-6.33,2-5.31,2-5.31,7.51-5.34,2.4,0,4.8,0,7.2,0h23c1.12,0,2.24,0,3.36,0,2.45.12,3,1,1.57,2.93-2.78,3.7-5.67,7.33-8.54,11s-5.58,7-8.34,10.52a20.19,20.19,0,0,0-1.6,2.38,1.23,1.23,0,0,0,.9,1.82c2.52.42,5.06.74,7.57,1.19a59.67,59.67,0,0,1,16.37,5.26,39.73,39.73,0,0,1,6.85,4.4,23.33,23.33,0,0,1,8.75,15,78.2,78.2,0,0,1,1,12.89c0,13.59,0,27.18,0,40.77,0,.79,0,1.6,0,2.39a32.63,32.63,0,0,0,5.19,20.07c2.44,3.92,2.08,4.44-2.6,4.46C1618.59,636.85,1610.12,636.82,1601.64,636.82Zm-27.5-98.42c0,.2-.14.41-.09.48.31.36.66.69,1,1a14.27,14.27,0,0,1,4.38,10.3c.23,7.66.55,15.32.62,23,0,4.62-.43,9.25-.46,13.87-.08,11.66,0,23.33,0,35,0,1.28,0,2.56.07,3.83.16,1.84.83,2.43,2.77,2.6.64.06,1.28,0,1.92,0h28.28c.64,0,1.28,0,1.91,0,2.28-.16,3-.86,2.43-3-1.42-5.81-1.36-11.71-1.33-17.62.05-13.9,0-27.8,0-41.7a65,65,0,0,0-.66-8.11c-.63-4.8-3.19-8.24-6.91-11a32,32,0,0,0-8.49-4.36C1591.28,539.72,1582.77,538.7,1574.14,538.4Zm-21.79,90.66c-5.39-3.33-6.14-8-6.07-13.22.12-9.6,0-19.2,0-28.8,0-8.35.27-8.93,4.34-15.17-3.23-.83-6.34.13-9.47.45-7.19.73-13.53,3.55-19.45,7.57-13.26,9-12.5,26.38-6.81,35.53C1521.41,625.87,1537.17,633.52,1552.35,629.06Zm2.87-28.76h0c0,2.24,0,4.47,0,6.71,0,3.51,0,7,.11,10.53.12,2.78,1.35,3.68,4.08,3.09a26.08,26.08,0,0,0,8.25-3.7,5.93,5.93,0,0,0,3-5.57c-.05-4,.14-8,.4-12,.3-4.61.09-9.25.1-13.88a3.08,3.08,0,0,0-1.31-2.93,22,22,0,0,0-11.3-3.42c-1.94,0-2.82.9-3.1,2.94a24.85,24.85,0,0,0-.2,3.34C1555.21,590.4,1555.22,595.35,1555.22,600.3Zm12.48-74.43c.8,0,1.6-.06,2.39,0a6.24,6.24,0,0,0,6.08-2.9c2.62-3.6,5.5-7,8.22-10.54,1-1.26.59-2.24-.9-2.26-4.62-.06-9.23,0-13.85-.05a3.23,3.23,0,0,0-3.28,2.28c-1,2.52-1.9,5.06-2.81,7.61C1561.37,526.12,1561.17,525.9,1567.7,525.87Z"/><path class="cls-1" d="M902.49,280.16v-24c0-1.12,0-2.24,0-3.36-.17-3.32-.83-3.87-4.11-3.58a20.43,20.43,0,0,1-3.81.24,8,8,0,0,1-3.16-1,3.39,3.39,0,0,1,.23-5.9,9.77,9.77,0,0,1,6.11-.67c4.08.6,4.84,0,4.78-4.15,0-.8.06-1.6.12-2.39a3.86,3.86,0,0,1,2.66-3.62c2.25-.82,4.47-1.74,6.69-2.62,11.15-4.42,22.17-9.12,32.6-15.09,4.4-2.52,5.17-1.57,5,3.19-.17,4.94,0,9.9-.6,14.84a59.67,59.67,0,0,0-.15,8.14,2.21,2.21,0,0,0,2.43,2.4c3,.08,6.07,0,9.1,0a34.56,34.56,0,0,1,4.78.15,3.44,3.44,0,0,1,3,3.69,3.38,3.38,0,0,1-2.95,3.28,22.08,22.08,0,0,1-3.82.2c-3,0-6.07-.19-9.1-.15-2.8,0-3.43.68-3.61,3.32-.08,1.11-.06,2.23-.05,3.35.05,18.54.07,37.08.19,55.62,0,4.15.41,8.29.7,12.44.14,2.1.43,4.32,2.76,5.15,2,.72,3.72-.48,5.23-1.69a23.41,23.41,0,0,0,6.26-8.38c.77-1.58,1.43-3.22,2.31-4.73,1.26-2.16,3-3,4.7-2.48,1.9.59,2.76,2.52,2.27,5.16a19.12,19.12,0,0,1-2,5.37c-5.71,10.84-14.91,16.81-26.74,19a46.92,46.92,0,0,1-15.24.29c-15-2.14-24.73-12.38-26-27.51-.53-6.54-.74-13.07-.65-19.63.08-4.95,0-9.91,0-14.86Z"/><path class="cls-1" d="M859.5,340.21c-6.23,0-12.46.05-18.7,0-3.83,0-4.39-.66-4.55-4.46a17.57,17.57,0,0,1,0-1.92c1.16-18,.45-36.1.61-54.15.15-17.57,0-35.15,0-52.73,0-1.92,0-3.84.18-5.75a2.4,2.4,0,0,1,2.48-2.41,28.89,28.89,0,0,1,3.35-.15q17,0,34,0c5.86,0,6.31.39,6.28,6.27,0,8.15.06,16.29-.4,24.44-.44,8-.2,16-.2,24q0,26.61.07,53.22c0,1.91.25,3.82.31,5.74a43.78,43.78,0,0,1,0,5.25c-.17,1.84-.94,2.47-2.8,2.63-1.11.09-2.23.08-3.35.08H859.5Z"/><path class="cls-1" d="M882.41,590c0,7.83.11,15.67,0,23.51a30.88,30.88,0,0,0,4.5,16.91c.33.55.63,1.11.94,1.68,2,3.79,1.69,4.49-2.45,4.5q-25.67,0-51.34,0c-.32,0-.65,0-1,0-3-.19-3-.24-4-3.57-.4-1.32-.91-1.65-2-1.21s-2,.9-3.06,1.38A62,62,0,0,1,813.11,637a43.72,43.72,0,0,1-26.88-1.17c-8.47-3.17-15.6-8.2-20.43-16-6.74-10.79-7.54-22.22-2.71-34A30.46,30.46,0,0,1,772.52,574a51.43,51.43,0,0,1,25.75-10.82,63.48,63.48,0,0,1,27.47,2.31c.31.09.61.2.92.27,1.35.29,2.27-.28,2.37-1.61a34.45,34.45,0,0,0,.08-4.31c-.19-3.51-.46-7-.69-10.53a4.86,4.86,0,0,0-3.54-4.63,11.36,11.36,0,0,0-2.28-.72c-9.27-1-18.23-.48-26.17,5.21a23.13,23.13,0,0,0-4.58,4.2,20.06,20.06,0,0,1-4.6,4.17,10,10,0,0,1-7.83,1.34A8.61,8.61,0,0,1,773,547.8a13.86,13.86,0,0,1,5.31-7.21A52.31,52.31,0,0,1,791,533.84a77.52,77.52,0,0,1,18.64-4.27,114.34,114.34,0,0,1,18.67-.7,140.73,140.73,0,0,1,24.72,3,55.24,55.24,0,0,1,13.07,4.67,35.78,35.78,0,0,1,8.58,6.07A22.72,22.72,0,0,1,881.49,556a79.46,79.46,0,0,1,1,12.42c0,7.2,0,14.4,0,21.6Zm-50-51.56c.82,1,1.42,1.75,2,2.5a14.27,14.27,0,0,1,3,8.44c.2,7.35.38,14.71.67,22,.24,6.23-.95,12.45-.12,18.68a6.91,6.91,0,0,1-.06,1.43c-.8,10.7-.28,21.42-.35,32.13,0,3.43.56,3.9,3.85,4.07.48,0,1,0,1.44,0h27.35a25.06,25.06,0,0,0,2.87-.13c1.55-.19,2.1-1,1.87-2.7a4.3,4.3,0,0,0-.09-.47c-1.34-5.49-1.31-11.08-1.29-16.69,0-14.23,0-28.46,0-42.7a51.33,51.33,0,0,0-.72-8.1,15.77,15.77,0,0,0-6.85-10.56,34.31,34.31,0,0,0-9-4.5c-6.7-2.29-13.67-3.22-20.66-4A6.24,6.24,0,0,0,832.39,538.44Zm-24.56,33.44a4.18,4.18,0,0,0-1.26-.46,42,42,0,0,0-27,8.05C770.64,585.89,767,595.32,770,608c2.62,11.27,14.82,20.36,26.26,21.52a62.12,62.12,0,0,0,11.49-.08c.76-.07,1.6-.11,1.94-1.34-4.44-2.65-5.54-7-5.4-11.86,0-.8,0-1.6,0-2.39,0-8.8,0-17.59,0-26.38S804.31,578.74,807.83,571.88Zm5.37,27.76h-.07c0,4.62,0,9.25,0,13.87a34.75,34.75,0,0,0,.14,3.82c.23,2,1.19,2.73,3.23,2.69,2.82-.06,5.18-1.4,7.59-2.66,3.13-1.63,4.7-4,4.51-7.69a96,96,0,0,1,.35-11c.29-4.61.1-9.24.13-13.87a3.38,3.38,0,0,0-2.2-3.36,39,39,0,0,0-7.67-2.62c-4.65-1-5.86-.22-6,4.53C813.09,588.79,813.2,594.22,813.2,599.64Z"/><path class="cls-1" d="M1392.08,584.05q0,22.56,0,45.11a47.81,47.81,0,0,1-.17,4.79,2.52,2.52,0,0,1-2.45,2.49,32.72,32.72,0,0,1-3.83.17h-41.27a28.73,28.73,0,0,1-3.83-.19,2.45,2.45,0,0,1-2.43-2.49c-.15-1.27-.12-2.56-.23-3.83s-.91-1.59-2-1.05-2.27,1.18-3.4,1.78a67.07,67.07,0,0,1-25.59,7.58,46.9,46.9,0,0,1-20.31-2.51c-11-4-17.64-11.67-19.74-23.28a78.52,78.52,0,0,1-.8-13.86q-.06-29.52-.06-59c0-1.76-.08-3.52,0-5.28.07-2.38.49-2.78,2.8-2.93.8,0,1.6,0,2.4,0q21.36,0,42.71,0c6,0,6.21.18,6.13,6.24-.17,12.79-.53,25.58-.65,38.37-.1,11.36,0,22.72,0,34.07a18,18,0,0,0,.53,5.71,2.74,2.74,0,0,0,2.82,2.15,9.75,9.75,0,0,0,2.86-.23,30.7,30.7,0,0,0,11.15-6.39,4.36,4.36,0,0,0,1.35-3.47c0-2.56.11-5.12.1-7.67q0-30.72-.1-61.43c0-1.76,0-3.52.2-5.27a2,2,0,0,1,1.87-1.88,25,25,0,0,1,3.35-.2h43.19c.48,0,1,0,1.44,0,3.21.17,3.75.71,4,4.08.06,1,0,1.92,0,2.88v45.59Zm-8.92,0h0q0-18.72,0-37.44c0-1.6,0-3.2-.2-4.79a2,2,0,0,0-1.9-1.85,22.89,22.89,0,0,0-2.87-.14h-26.4c-.64,0-1.28,0-1.92.05-2.09.19-2.76.83-2.9,3-.1,1.6-.06,3.2,0,4.8q.38,34.8-.06,69.59c0,2.4-.06,4.8.08,7.2s.88,3,3.28,3.22c.8.07,1.6.06,2.4.06,8.32,0,16.64,0,25,0,5.35,0,5.54-.24,5.55-5.8Q1383.18,603,1383.16,584ZM1318,626.79c-.93-.55-1.46-.9-2-1.19a8.6,8.6,0,0,1-4.77-7.28c-.35-3.65-.76-7.32-.78-11-.09-14.21,0-28.42,0-42.64,0-2.39.28-4.78.34-7.17.11-4.79.23-9.58.22-14.36,0-2.72-.64-3.2-3.52-3.34-.48,0-1,0-1.44,0h-25.87c-.8,0-1.6,0-2.39.06-2,.19-2.74.9-2.9,3.06-.1,1.27-.06,2.55-.06,3.83q0,25.63,0,51.26c0,3.67,0,7.36.3,11,.8,10,6.6,16.92,16.35,19.47,6.91,1.81,13.92,1.52,20.9.39C1314.21,628.59,1316.23,628.66,1318,626.79Z"/><path class="cls-1" d="M1110.35,289.35q0-16.31,0-32.6c0-1.59-.16-3.19-.25-4.78s-.27-3.19-.24-4.78c.06-3.75.69-4.44,4.56-4.46,12.47,0,24.93,0,37.39,0a13.75,13.75,0,0,1,1.44.06c2.33.24,3.07.92,3.37,3.25a28.78,28.78,0,0,1,.14,3.35c0,1.92,0,3.84,0,5.75,0,.92-.26,2.09.7,2.61s1.7-.54,2.35-1.15c1.51-1.43,3-2.93,4.44-4.38a50.23,50.23,0,0,1,9.08-7,30.63,30.63,0,0,1,12.15-4.19,14.37,14.37,0,0,1,11.28,3,6.16,6.16,0,0,1-.07,9.91,7.46,7.46,0,0,1-6.37,1.31,22.35,22.35,0,0,1-3.16-1.11c-5.63-2.5-10.93-1.55-16,1.56a33.89,33.89,0,0,0-7.34,6.13c-.43.47-.79,1-1.25,1.44-4.39,4.21-6.88,9.15-5.9,15.41-.94,11.16-.64,22.36-.43,33.53.14,7,.53,14,.5,21.07a39.91,39.91,0,0,1-.28,4.77,2.28,2.28,0,0,1-2.24,2.11c-1,.08-1.92.12-2.87.12q-18,0-36,0c-5.28,0-5.62-.32-5.57-5.82,0-4.31.44-8.61.47-12.92C1110.4,310.76,1110.35,300.06,1110.35,289.35Z"/><path class="cls-1" d="M976,433.37c0-7.68.07-15.36,0-23-.06-5.12-.46-10.23-.52-15.34,0-5.32.29-5.59,5.79-5.61q17.76,0,35.51,0c5.16,0,5.48.34,5.6,5.37.07,2.88,0,5.76.13,8.64a1.41,1.41,0,0,0,.67,1.1,1.49,1.49,0,0,0,1.23-.39c2.42-2.33,4.8-4.7,7.19-7.06a39,39,0,0,1,9.8-6.83,26,26,0,0,1,14-2.68,12.36,12.36,0,0,1,6.68,2.39,6.26,6.26,0,0,1,2.65,6.73c-.65,2.81-2.74,4.24-5.45,4.75a9.08,9.08,0,0,1-4.73-.35,27.12,27.12,0,0,1-2.7-1c-4.28-2-8.41-1.27-12.5.56a22.8,22.8,0,0,0-6.37,4.22,90.32,90.32,0,0,0-8.15,8.78,12.33,12.33,0,0,0-3,8.33c.11,13.6,0,27.19,0,40.79,0,5.75.38,11.5.54,17.25a27,27,0,0,1-.21,4.31,2.48,2.48,0,0,1-2.47,2.47,28.69,28.69,0,0,1-3.35.13h-35c-.8,0-1.6,0-2.4-.05-2.59-.21-3.4-.9-3.44-3.61-.08-6.4-.28-12.82.11-19.19s.36-12.79.45-19.18c0-3.84,0-7.68,0-11.52Z"/><path class="cls-1" d="M771.84,389.39h22.54c5.64,0,5.64,0,8.66,5,5.7,9.45,11.37,18.91,17.11,28.33,2.74,4.51,5.58,8.95,8.41,13.41a15.42,15.42,0,0,0,1.71,2.3,1.07,1.07,0,0,0,1.68,0,11.61,11.61,0,0,0,1.36-2c6.51-11.55,13.13-23.06,19-35,1.48-3,2.78-6.11,4.22-9.14a34.43,34.43,0,0,1,2.47-4.65,4.63,4.63,0,0,1,5.49-1.85c2.52.77,3.58,2.73,2.69,5.21a24.28,24.28,0,0,1-1.66,3.45q-15.39,27.66-30.8,55.3Q824.3,468.53,814,487.19c-2.84,5.12-3.28,5.15-6.34.35q-19.87-31.14-39.74-62.26c-6.52-10.26-13.63-20.12-20.4-30.2-1-1.52-3.18-3.08-2.17-4.93.84-1.56,3.24-.72,4.94-.74C757.45,389.35,764.64,389.39,771.84,389.39Z"/><path class="cls-1" d="M965.12,438.1c.49,23.68-18,50.22-50.63,50.68-24.93.34-50.92-18.75-51.14-51.3-.23-32,26.92-51,51.23-50.7C944.14,387.2,965.39,410.5,965.12,438.1Zm-52.91-.47h-.09V475.5c0,.8,0,1.6,0,2.39.16,3.22.72,3.74,4.11,3.83a31.93,31.93,0,0,0,9-1.06c19.26-5.08,33.24-20.37,33.4-42.58.09-11.78-3.66-22.34-12-30.91s-18.17-13.41-30.09-14.05c-3-.16-4.08.8-4.26,3.77-.08,1.27-.06,2.56-.06,3.83Z"/><path class="cls-1" d="M808.85,145.25c.29,23-15.59,49.84-48.84,51.55-28.19,1.45-50.79-20.16-52.82-46.9-2.58-34,24.64-53.8,48.12-55C781.09,93.6,807.64,112.3,808.85,145.25Zm-53.08.29h-.11v35.51c0,1.92,0,3.85.08,5.76.13,2.23.76,2.87,2.91,3a30.31,30.31,0,0,0,10-1c12.8-3.5,22.92-10.5,28.94-22.59,5-10.14,5.9-20.8,3.24-31.78-2.19-9-7.07-16.31-14-22.37a44,44,0,0,0-25.14-10.78c-6-.6-5.93,1-5.87,5.36,0,.8,0,1.6,0,2.4Z"/><path class="cls-1" d="M1240.67,345.94c-1.12-.06-2.25,0-3.35-.18a10.88,10.88,0,0,1-6.41-3c-1.8-1.78-2.32-3.8-1.48-5.64a5.47,5.47,0,0,1,5.92-3.1,18.14,18.14,0,0,1,3.19,1c1,.39,2,1,3.1,1.29,4.07,1.11,8,.83,11.29-2.06,1.81-1.57,3.46-3.32,5.12-5a3.18,3.18,0,0,0,.28-4.36c-2.09-3.21-4.11-6.49-6.18-9.71-12.81-19.92-25.66-39.81-39-59.39-2.34-3.44-4.8-6.79-7.14-10.23-1-1.43-.45-2.56,1.17-2.71,1.11-.11,2.24-.11,3.35-.11q22.56,0,45.12,0c5.83,0,5.86,0,8.39,5.19a250.4,250.4,0,0,0,18.32,31.5c.54.79,1.08,1.59,1.64,2.37,3.26,4.53,3.41,4.54,6.41,0q11.67-17.6,22.45-35.76a28.15,28.15,0,0,1,2.69-4,4,4,0,0,1,5.23-.72,4.3,4.3,0,0,1,2.17,5.29,15.24,15.24,0,0,1-1.93,3.3c-12.91,17.72-24.94,36-37,54.35-5.45,8.29-10.66,16.74-16.54,24.73-1.33,1.81-2.69,3.58-4.09,5.33a32,32,0,0,1-12.54,9.42A22.07,22.07,0,0,1,1240.67,345.94Z"/><path class="cls-1" d="M571.84,441.45c0-7,.08-14.07,0-21.1-.12-8-.42-16-.58-24a30.4,30.4,0,0,1,.28-4.77,2.29,2.29,0,0,1,2.25-2.11c1.12-.07,2.24-.12,3.35-.12q17.26,0,34.54,0c5.44,0,5.75.29,5.76,5.65q0,26.85,0,53.71a90.3,90.3,0,0,1-.65,10.52,36.1,36.1,0,0,1-27.17,31.23,47.7,47.7,0,0,1-22.32.24,28.74,28.74,0,0,1-9.65-4.11,12.47,12.47,0,0,1-3.74-3.67,6.44,6.44,0,0,1-1.14-4.08,3.89,3.89,0,0,1,2.64-3.65,3.81,3.81,0,0,1,4,.86,23.33,23.33,0,0,1,3.36,4.65,5.89,5.89,0,0,0,4.69,2.92,3.07,3.07,0,0,0,3.55-2.48,27.88,27.88,0,0,0,.86-7.61c0-1.12,0-2.24,0-3.35Z"/><path class="cls-1" d="M1120.52,438.84c-.41,6.88-.21,13.75-.5,20.63-.24,5.74.23,11.5.38,17.26,0,1.76.07,3.52,0,5.27-.08,4.23-.6,4.87-4.62,4.89-12.47.06-25,0-37.42,0a11.79,11.79,0,0,1-2.38-.24,2.21,2.21,0,0,1-1.86-1.94,30.61,30.61,0,0,1-.19-3.83c.16-28.47.45-56.94.11-85.41-.07-5.81.22-6.06,5.81-6.07q17.5,0,35,0c5.32,0,5.6.3,5.61,5.78Q1120.55,417,1120.52,438.84Z"/><path class="cls-1" d="M1231,581.46q0,14.64,0,29.28c0,1.44.07,2.88.15,4.31a2.14,2.14,0,0,0,1.08,2,2.11,2.11,0,0,0,2.47-1,47.78,47.78,0,0,0,3.27-4.72c.88-1.51,1.46-3.2,2.3-4.74a17.1,17.1,0,0,1,2.4-3.56,7.41,7.41,0,0,1,8.38-1.77c3,1.33,4.2,3.85,4.23,7a16.43,16.43,0,0,1-1.93,7.36c-5.65,11.52-14.82,18.67-27.2,21.66a47.21,47.21,0,0,1-25.58-.47,32,32,0,0,1-22.88-28.47c-.54-6.07-.74-12.13-.72-18.21.06-12.64,0-25.28,0-37.92,0-.48,0-1,0-1.44.06-3.85-.26-5.4-4.74-5.24a8.54,8.54,0,0,1-2.81-.5c-3.7-1.17-5.52-3.83-5.26-7.58a6.92,6.92,0,0,1,6.36-6.68c1.26-.18,2.56-.1,3.83-.22a2.4,2.4,0,0,0,2.51-2.39,15.84,15.84,0,0,0,.2-2.39c0-2.63,1.48-4,3.85-4.81q13.08-4.75,25.73-10.58c6.55-3,12.86-6.46,19.14-10,1.12-.63,2.2-1.31,3.35-1.87,1.53-.74,2.58-.17,2.6,1.52.06,5.27,0,10.55-.37,15.82-.3,4.14-.4,8.31-.42,12.46,0,2.7.82,3.33,3.59,3.1,1.27-.1,2.53-.39,3.8-.51a17.23,17.23,0,0,1,5.73.15c3.89,1,6.08,3.69,6.08,7.55S1248,545.15,1244,546a23,23,0,0,1-4.77.24,28.29,28.29,0,0,1-2.85-.4c-5-.6-5.61-.09-5.64,4.91,0,10.24,0,20.48,0,30.72ZM1229.34,627c-5.37-2.44-6.46-6.5-6.75-11-.14-2.23-.45-4.45-.46-6.68-.11-23.64-.23-47.28-.23-70.92,0-6.87-.12-13.74.73-20.58a23.32,23.32,0,0,0,0-3.83c0-.9-.83-1.33-1.73-1s-1.75.79-2.6,1.23c-8.69,4.42-17.61,8.32-26.69,11.87-5.93,2.32-5.7,1.83-5.7,8.21q0,30.66-.06,61.34c0,4.48.42,8.91.84,13.37,1,10.54,10.49,19.77,21.38,20.57a75.33,75.33,0,0,0,12.92-.12A22.2,22.2,0,0,0,1229.34,627Z"/><path class="cls-1" d="M725.12,581.28q0,14.15,0,28.3a19.63,19.63,0,0,0,.72,6.64,1.34,1.34,0,0,0,2.26.64,20.5,20.5,0,0,0,5.12-7.44,41.65,41.65,0,0,1,2.55-5.14,7.43,7.43,0,0,1,5.47-3.52c5-.67,8.81,3.25,8.22,8.63a21.06,21.06,0,0,1-2.62,7.67c-6,11.17-15.42,17.72-27.59,20.43a47.82,47.82,0,0,1-23.26-.36c-13.88-3.77-23-14.78-24.11-29.49a206.31,206.31,0,0,1-.41-25.85c.56-10.84.15-21.74.16-32.61a9.73,9.73,0,0,0-.1-1.43,2.18,2.18,0,0,0-2.18-2.13c-1.43-.14-2.89,0-4.3-.28-4.22-.7-6.76-3.58-6.72-7.46a6.91,6.91,0,0,1,5.88-7.09,30.41,30.41,0,0,1,3.83-.23c3.1-.17,3.38-.46,3.6-3.74.05-.79.07-1.59.1-2.39a3.11,3.11,0,0,1,2.08-2.94c1.17-.5,2.37-1,3.57-1.4,15.12-5.72,29.93-12.1,43.81-20.48a17,17,0,0,1,1.68-.92c2.11-1,3.09-.55,3.06,1.75-.1,6.39-.31,12.78-.5,19.17-.09,3-.32,6.06-.32,9.09,0,2.14.83,2.82,3,2.72,1.43-.06,2.85-.35,4.27-.51a16.71,16.71,0,0,1,5.73.08c3.92.92,6.12,3.6,6.16,7.46s-2.07,6.55-6,7.54a15.66,15.66,0,0,1-5.71.11,46.2,46.2,0,0,0-5.24-.4,2,2,0,0,0-2.25,2,38.73,38.73,0,0,0-.18,4.31q0,14.63,0,29.25Zm-1.72,45.77c-4.59-2.35-6.26-5.64-6.49-9.73-.27-4.94-.64-9.89-.69-14.84-.15-16.64-.25-33.27-.21-49.9,0-10.71-.35-21.43.73-32.12a47.91,47.91,0,0,0,.09-5.75c0-1.81-.74-2.2-2.47-1.44-.59.26-1.15.56-1.72.86a286.27,286.27,0,0,1-27.16,12.08C680,528.37,680,528,680,534.12q0,28.3,0,56.61c0,5.6.3,11.17.67,16.76a23.91,23.91,0,0,0,22.48,22.18,91.93,91.93,0,0,0,11.5-.15A24.88,24.88,0,0,0,723.4,627.05Z"/><path class="cls-1" d="M610.41,638.6c-11.15-.34-21.93-2.28-31.82-7.79a64.21,64.21,0,0,1-6.41-4.2,9.53,9.53,0,0,1-3.73-5.44,7.16,7.16,0,0,1,2.08-7.47,7.34,7.34,0,0,1,7.58-1.65,14.08,14.08,0,0,1,4.88,3c7,6.2,15.58,8.53,24.65,9.45a2.06,2.06,0,0,0,1-.12c.66-.23,1.1-.71.87-1.44a10.13,10.13,0,0,0-2.41-3.55c-3.42-3.81-6.82-7.64-10.32-11.37-6.91-7.34-13.57-14.9-19.87-22.78a54.51,54.51,0,0,1-5.91-9.29,28.2,28.2,0,0,1,4.78-32.06c7.44-7.88,16.68-12.2,27.18-14.15,12.89-2.38,25.11.19,37,5.08a19.61,19.61,0,0,1,7.13,4.76c3.19,3.47,3.66,7.23,1.3,10.43s-6.29,4.14-10.33,2.3a34.3,34.3,0,0,1-4.93-2.94,34.77,34.77,0,0,0-11.26-5.19,25.46,25.46,0,0,0-7.63-.53c-1.74.11-2.3,1.06-1.63,2.57a15.16,15.16,0,0,0,3,4.32c2.19,2.33,4.39,4.66,6.65,6.93,6,6,12,11.93,18,18a55,55,0,0,1,11,15.06,32,32,0,0,1,3.05,19.11,28.24,28.24,0,0,1-9.94,17.55,46.29,46.29,0,0,1-22.86,10.42A48.67,48.67,0,0,1,610.41,638.6Zm-5.34-100.45a41.58,41.58,0,0,0-17.65,6.93,26.57,26.57,0,0,0-7.14,7c-4.14,6.23-4.51,12.81-1.61,19.6a40.76,40.76,0,0,0,5.86,9.29c6.81,8.48,14.22,16.41,21.55,24.42,2.91,3.18,5.75,6.42,8.61,9.64a22.34,22.34,0,0,1,1.49,1.88c2.29,3.25,3.78,6.65,2.35,10.75-.36,1,.23,1.7,1.08,1.54,8-1.52,15.29-4.52,20.95-10.68a19,19,0,0,0,4.56-8.3c1.64-6.41.32-12.36-2.83-18a46.1,46.1,0,0,0-7.91-10.18Q624,571.77,613.7,561.41a59.1,59.1,0,0,1-8-9.51C603.06,547.83,601.49,543.56,605.07,538.15Z"/><path class="cls-1" d="M1408.07,584.16q0-22.54,0-45.09c0-1.75,0-3.51.17-5.26a2.22,2.22,0,0,1,2.16-2.17c1.11-.1,2.23-.15,3.35-.15q21.35,0,42.69,0c5.5,0,5.65.19,5.8,5.61,0,.63,0,1.28,0,1.91s-.13,1.74.66,2.17c1.1.6,1.77-.42,2.41-1a42.61,42.61,0,0,1,12.36-8.13,28.7,28.7,0,0,1,15-2.27,16.13,16.13,0,0,1,8.32,3.44,9.82,9.82,0,0,1,3.47,10.72,9.92,9.92,0,0,1-8.61,7.32,12.22,12.22,0,0,1-5.69-.42,14,14,0,0,1-2.26-.79c-5.28-2.85-10-1.13-14.3,2a48,48,0,0,0-10.2,10.74,6,6,0,0,0-1.22,3.57c0,1.43,0,2.87,0,4.31q.06,29.51.1,59c0,1.44,0,2.89-.13,4.31a2.47,2.47,0,0,1-2.47,2.46,30.6,30.6,0,0,1-3.83.18q-20.62,0-41.25,0c-6.36,0-6.5-.18-6.5-6.4q0-23,0-46.05Zm45.25-.87h0q0-18.48,0-36.95c0-1.28,0-2.57-.08-3.84-.15-1.83-.86-2.47-2.76-2.63-1-.08-1.92-.06-2.88-.06h-25c-.48,0-1,0-1.44,0-3.6.14-4,.55-4.12,4.29,0,1.76,0,3.52,0,5.28,0,6.24.13,12.48.12,18.72,0,17.92-.11,35.83-.14,53.75,0,5.66.22,5.88,6,5.9q12.24,0,24.48,0c5.63,0,5.8-.22,5.8-6.07Q1453.32,602.49,1453.32,583.29Z"/><path class="cls-1" d="M955.09,541.91c1.66-.27,2.42-1.6,3.47-2.49,5.05-4.33,10.63-7.7,17.17-9.2a24.21,24.21,0,0,1,13.26.43,13.65,13.65,0,0,1,4.94,2.87c3.21,2.94,4.44,7.17,3,10.89a10.38,10.38,0,0,1-9,6.86,12.12,12.12,0,0,1-7-1.14c-5.63-2.92-10.47-1.21-15.14,2.26-3.91,2.91-6.86,6.69-9.84,10.45a6.41,6.41,0,0,0-1.31,4c0,1.6-.06,3.2,0,4.8q0,28.32.1,56.63c0,1.44,0,2.88,0,4.32-.15,3.2-.75,3.76-4.1,4-.79,0-1.59,0-2.39,0H906.79a30.6,30.6,0,0,1-3.83-.18,2.52,2.52,0,0,1-2.41-2.53,13.51,13.51,0,0,1-.12-1.91c.05-10.56-.24-21.13.26-31.67.55-11.36.67-22.72.3-34.06-.29-9-.42-17.9-.56-26.85,0-1.44,0-2.89,0-4.32.18-2.82.76-3.39,3.42-3.57.79,0,1.6,0,2.4,0q21.11,0,42.23,0c6,0,6,0,6.07,6.26C954.62,539.12,954.23,540.59,955.09,541.91Zm-9.4,42.65h0V546.7c0-1.12,0-2.24,0-3.35-.18-2.74-.8-3.47-3.48-3.49q-14.61-.09-29.23,0c-2.87,0-3.49.59-3.49,3.34,0,8.14-.14,16.3.28,24.43a164.82,164.82,0,0,1,.2,18.19c-.76,12.61-.32,25.22-.5,37.84,0,3.43.54,3.9,3.81,4.09.48,0,1,0,1.44,0,9,0,17.89,0,26.84,0,4.15,0,4.2-.13,4.2-4.38Z"/><path class="cls-1" d="M594.32,384.13A54.24,54.24,0,0,1,582,382.67a20.93,20.93,0,0,1-5.75-2.33c-5.89-3.33-8-14.1.25-18.66a19.89,19.89,0,0,1,4.88-1.94c6.25-1.5,12.55-2.33,19-1.26,2.51.42,5.09.45,7.54,1.28a19.49,19.49,0,0,1,6,3,10.2,10.2,0,0,1-.33,16.47,21.46,21.46,0,0,1-8.77,3.71A52.93,52.93,0,0,1,594.32,384.13Z"/><path class="cls-1" d="M1098,384.15a56.29,56.29,0,0,1-13.42-1.62,16.18,16.18,0,0,1-6.4-3.14,10.72,10.72,0,0,1,.37-17c2.78-2.07,6-2.89,9.32-3.51a55,55,0,0,1,19.52,0,22.71,22.71,0,0,1,8.51,3.05c6.69,4.28,6.82,13,.29,17.58a21.15,21.15,0,0,1-8.38,3.36C1104.17,383.57,1100.55,384.26,1098,384.15Z"/><path class="cls-1" d="M1049.65,208.4c3.18,0,6.37,0,9.56,0,1.12,0,2.24,0,3.35.13,2.35.25,2.83,1.21,1.6,3.09-.18.27-.35.53-.55.78-5,6.39-10.09,12.76-15.09,19.17a6,6,0,0,1-4.9,2.53q-7.41,0-14.82,0a6.35,6.35,0,0,1-1.87-.38,1.61,1.61,0,0,1-1.15-1.84,9.16,9.16,0,0,1,.4-1.87c2.1-5.85,4.33-11.66,6.3-17.55,1-2.9,2.78-4.05,5.68-4,3.83.05,7.66,0,11.49,0Z"/><rect class="cls-2" width="1700.88" height="708.72"/></g></g></svg>