<svg xmlns="http://www.w3.org/2000/svg" viewBox="0 0 429.57 113.17"><defs><style>.cls-1{opacity:0.5;}.cls-2{fill:#fff;}</style></defs><title>zrada-logo-jp</title><g id="Layer_2" data-name="Layer 2"><g id="Layer_1-2" data-name="Layer 1"><g class="cls-1"><path class="cls-2" d="M23.31,5.68v22.2H20.88V25.76H2.35V28H0V5.68ZM20.88,23.51V7.94H2.35V23.51Z"/><path class="cls-2" d="M59.69,6.59a.81.81,0,0,1-.5.34c-3.13,4.77-8.41,9.78-13.59,13.52A66.31,66.31,0,0,1,52.5,27l-2.06,1.79a70.42,70.42,0,0,0-15.84-13l1.62-1.71a66.21,66.21,0,0,1,7.5,5A50.47,50.47,0,0,0,55.52,7.57H30.84V5.28H57.3l.41-.2Z"/><path class="cls-2" d="M94.09,19.17v2.15h-14v7.27c0,2.69-1.62,2.72-7.2,2.72a11,11,0,0,0-1-2.15c1.35,0,2.66.06,3.6.06,2.09,0,2.19,0,2.19-.67V21.32h-14V19.17h14V16l1,.07A29.91,29.91,0,0,0,84,12.28H70.08V10.19H86.29l.41-.13,1.78,1.11a.72.72,0,0,1-.51.3,38.5,38.5,0,0,1-7.83,5.92v1.78ZM67.22,6.46v5.71H65V4.3H77.68V0l3,.2c0,.24-.2.41-.67.47V4.3H93v7.87H90.66V6.46Z"/><path class="cls-2" d="M110.1,18.8l-4.74,1V31.38h-2.22v-11c-1.85.4-3.53.77-4.88,1a.6.6,0,0,1-.44.5L97,19.3c1.68-.26,3.83-.67,6.19-1.14V9.48H99.81a31.94,31.94,0,0,1-1.25,5.28,13.53,13.53,0,0,0-1.68-.94C97.82,11.1,98.33,6.39,98.67,2l2.62.58c-.07.23-.3.33-.71.37-.1,1.41-.27,2.92-.44,4.37h3V.17L106,.34c0,.23-.21.4-.64.47V7.3h4.27V9.48h-4.27v8.28l4.54-.91Zm16-12,1.21.1a7.21,7.21,0,0,1-.06.77c-.64,15.74-1.22,20.92-2.49,22.5-.64.91-1.35,1.28-3.57,1.28-.74,0-1.58,0-2.42-.07a5.37,5.37,0,0,0-.64-2.25c1.51.1,2.86.13,3.46.13a1.24,1.24,0,0,0,1.22-.57c1-1.14,1.64-6,2.18-19.74h-2.62c-1,8.14-3.3,17.73-6.9,22.5a8.55,8.55,0,0,0-2-1.11c3.7-4.44,6-13.45,7-21.39h-2.9c-1.28,6.9-3.86,15.07-7.23,19.24a8.86,8.86,0,0,0-2-1.11c3.4-3.83,6-11.4,7.27-18.13H113a28.71,28.71,0,0,1-3.3,7.4A14.93,14.93,0,0,0,108,15c2.32-3.33,3.93-9.14,4.81-15l2.79.61c-.07.23-.31.37-.74.37-.34,2-.74,3.9-1.25,5.78h12Z"/><path class="cls-2" d="M130.51,7.8V5.89h12.34V7.8Zm11.27,12.08v9.88H134v1.58h-2V19.88Zm-.1-9.29v1.85h-9.59V10.59Zm-9.59,6.49V15.23h9.59v1.85Zm9.49-15.74V3.2h-9.29V1.34Zm-1.82,20.45H134v6.06h5.72Zm19-7.46h3.36v2H143v-2h4.61c.3-1.48.64-3.23,1-5.08h-3.7v-2h4c.2-1.28.41-2.59.61-3.77h-5.32v-2h16.72v2h-9.22l-.57,3.77h7.67ZM145.61,31.41V19.17h14.16v12h-2.19V29.86h-9.82v1.55Zm12-10.19h-9.82v6.56h9.82Zm-1-12h-5.81c-.31,1.81-.64,3.6-.95,5.08h6.76Z"/><path class="cls-2" d="M181.76,6.25a.85.85,0,0,1-.84.54c-1.21,10.46-4.71,19.58-10.29,19.58-2.83,0-5.38-2.83-5.38-8.14A14.75,14.75,0,0,1,180.38,3.4c9.72,0,13.92,6.15,13.92,12.71,0,8-4.64,11.87-12.77,13.75a14.42,14.42,0,0,0-1.42-2.05c7.74-1.48,11.71-5.24,11.71-11.6,0-5.55-3.57-10.59-11.44-10.59-.33,0-.7,0-1,.06Zm-3.23-.43a12.38,12.38,0,0,0-11,12.34c0,3.6,1.54,5.85,3.16,5.85C174.77,24,177.69,15,178.53,5.82Z"/><path class="cls-2" d="M227.63,4.14a.91.91,0,0,1-.44.3,28.76,28.76,0,0,1-8,10.76,14.12,14.12,0,0,0-2.05-1.38,20.2,20.2,0,0,0,6.69-8.34H199.78V3.2h25.36l.37-.17Zm-13.12,6.12c0,.27-.33.5-.77.57-1,7.94-3.7,15.5-10.63,19.5a16.38,16.38,0,0,0-2-1.54C208,25,210.45,18,211.25,9.89Z"/><path class="cls-2" d="M260.75,24.38v2.29H233V24.38ZM257.46,5.92V8.24H236.57V5.92Z"/><path class="cls-2" d="M272.86,8.24a95.12,95.12,0,0,1,9.55,4.84,64.75,64.75,0,0,0,6-11.74l3.3,1.35c-.13.3-.61.47-1.21.4a78.21,78.21,0,0,1-6,11.24,63.06,63.06,0,0,1,7.33,5.18l-1.61,2.11a62.53,62.53,0,0,0-7.16-5.24,55.16,55.16,0,0,1-14.23,13.75A10.38,10.38,0,0,0,267,28.45a54.55,54.55,0,0,0,14.09-13.28,95.18,95.18,0,0,0-9.48-4.95Z"/><path class="cls-2" d="M300.1,14h28.08v2.38h-26.8a1.53,1.53,0,0,1-1.08.64Z"/><path class="cls-2" d="M335.07,10.73a48.7,48.7,0,0,1,9.05,3l-1,2.12a49.37,49.37,0,0,0-9.05-3.09Zm2,16.44C348,23.51,355.48,17.69,360,7.6A24.52,24.52,0,0,0,362,9.08c-4.51,10-12.34,16.21-22.63,19.88a.81.81,0,0,1-.41.84Zm1.68-24.78a54.06,54.06,0,0,1,9,3.29l-1.11,2.06a51.71,51.71,0,0,0-8.91-3.4Z"/><path class="cls-2" d="M389.68,9.85V30.3h-2V28.82h-15.1V26.94h15.1V20.11H373.91V18.23h13.76V11.7H373.41V9.85Z"/><path class="cls-2" d="M403.6,3.8a42.07,42.07,0,0,1,10,4.57l-1.28,2.12a43.27,43.27,0,0,0-9.82-4.67Zm-.13,23.31c11.94-3.7,19.87-10.4,23.91-19.71a13.22,13.22,0,0,0,2.19,1.38C425.36,18,417.16,25.16,405.76,29a1.15,1.15,0,0,1-.47.77Z"/></g><path class="cls-2" d="M55.07,102.81H81.84v7.94H20.36v-7.94h26V85.59H26.82V77.66H46.39V62.32H23.66V54.38H78.34v7.94H55.07V77.66H75.78v7.93H55.07Z"/><path class="cls-2" d="M190.32,81.42a31.75,31.75,0,1,1-31.75-31.75A31.81,31.81,0,0,1,190.32,81.42Zm-19.5.07c0,5.72-3.3,10.36-12.51,12.58a32.93,32.93,0,0,1,3.49,5.11c10.36-2.76,15.2-8.54,15.2-17.83,0-10.09-7.19-16.07-18-16.07-11.17,0-18.9,8.94-18.9,18.09,0,7.2,3.29,11,7.46,11,7.4,0,11.71-8,13.79-23.33C168,71.74,170.82,76.24,170.82,81.49Zm-25,2a12.88,12.88,0,0,1,9.42-12.11c-1.55,11.57-4.64,17.15-7.33,17.15C146.33,88.55,145.79,85.93,145.79,83.51Z"/><path class="cls-2" d="M258.92,60.91V67.3H234.37V60.91Zm38.34,31.61H286.63a53,53,0,0,0,12.11,12.58,29.22,29.22,0,0,0-5.32,5.71A69.73,69.73,0,0,1,282.19,98v15.2h-7.67V99a57,57,0,0,1-12.37,12.44,31.16,31.16,0,0,0-4.84-5.92v4.1H243.92v2.63h-6.66V89h20.05v16.14c4.84-2.62,9.88-7.53,13.31-12.64H259.53V85.73h15V82H265V62.45h-5.38V55.86H265V49.74l9.29.54c-.07.67-.54,1.08-1.75,1.28v4.3h11.77V49.74l9.68.54c-.06.67-.54,1.08-1.81,1.28v4.3h5.11v6.59h-5.11V82h-10v3.7h15.07ZM257.17,70.39v6.12H237.46V70.39ZM237.46,85.73V79.67h19.71v6.06ZM257,51.83V58H237.67V51.83Zm-6.46,51.38v-7.8h-6.66v7.8Zm33.7-40.76H272.51v3.64h11.77Zm-11.77,9.49v3.7h11.77v-3.7Z"/><path class="cls-2" d="M392.63,70.86l5.65,2.36a3.35,3.35,0,0,1-.88,1.21c-2.49,9.75-6.72,17.48-12.51,23.61a55.83,55.83,0,0,0,18.57,7.46A34.36,34.36,0,0,0,398,113a56.28,56.28,0,0,1-19.64-9.21,61.57,61.57,0,0,1-18.5,9.35,33.72,33.72,0,0,0-4.77-7.47A50.6,50.6,0,0,0,371.91,98a57.89,57.89,0,0,1-10.56-16.55L369,79.07a41.31,41.31,0,0,0,9.15,13.58,40.18,40.18,0,0,0,8.74-13.72H358.32c-.53,11.17-2.55,25-9.14,34.1a32.55,32.55,0,0,0-6.86-4.7c7.46-10.23,8-25.29,8-36.06V53.44h51.45v8H358.46V71.2h32.75Z"/></g></g></svg>