<svg xmlns="http://www.w3.org/2000/svg" viewBox="0 0 131.67 49.33"><defs><style>.cls-1{fill:#9199cc;}</style></defs><title>logo</title><g id="Layer_2" data-name="Layer 2"><g id="Layer_1-2" data-name="Layer 1"><path d="M19.14,20.28a1.6,1.6,0,0,0-.89-1.43,11.19,11.19,0,0,0-5-1.24C7.4,17.61,4,22.29,4,27.89c0,5,3.43,9.79,8.69,9.79A11,11,0,0,0,18.39,36a1.62,1.62,0,0,0,.75-1.36Zm0,19.13a16.09,16.09,0,0,1-6.73,1.72C5.2,41.13,0,34.85,0,27.83S5.08,14.16,12.41,14.16a19.91,19.91,0,0,1,4.77.74,1.57,1.57,0,0,0,2-1.53V7a1.58,1.58,0,0,0-1.78-1.57l-2.23.3a1.58,1.58,0,1,1-.35-3.14c1.73-.17,3.69-.35,4.73-1.58.49-.56.86-1,1.65-1,1.77,0,1.77,1.73,1.77,3.08V35.36a1.58,1.58,0,0,0,1.58,1.58h1.62a1.59,1.59,0,0,1,1.58,1.59v.28a1.58,1.58,0,0,1-1.58,1.58h-7Z"/><path d="M45,36.94h8a1.55,1.55,0,0,1,1.54,1.56v.33A1.55,1.55,0,0,1,53,40.39H35.92a1.55,1.55,0,0,1-1.55-1.56V38.5a1.55,1.55,0,0,1,1.55-1.56h2.22a1.54,1.54,0,0,0,1.55-1.55V20.2a1.56,1.56,0,0,0-1.76-1.55l-1.23.17a1.56,1.56,0,0,1-.44-3.08,6.72,6.72,0,0,0,3.8-1.52c.49-.55.86-1,1.65-1,1.77,0,1.77,1.72,1.77,3.08v.17A1.55,1.55,0,0,0,46,17.68c2.55-1.87,5.22-3.52,8.54-3.52A6.07,6.07,0,0,1,60,17.57a1.55,1.55,0,0,1-.79,2.18l-.88.36a1.54,1.54,0,0,1-2-.73,2.53,2.53,0,0,0-2.21-1.77c-2.91,0-7.57,3.8-10.12,6.06a1.53,1.53,0,0,0-.53,1.17V35.39A1.55,1.55,0,0,0,45,36.94"/><path d="M118.09,14.9h10.84a1.72,1.72,0,0,1,1.71,1.72h0a1.72,1.72,0,0,1-1.71,1.72H118.09a1.71,1.71,0,0,0-1.7,1.72V30.66c0,3.21-.37,7,3.91,7a36.88,36.88,0,0,0,9.21-1.59,1.72,1.72,0,0,1,.89,3.32,44.33,44.33,0,0,1-10.47,1.72c-4.58,0-7.34-2.71-7.34-8.74V20.07a1.71,1.71,0,0,0-1.71-1.72H105.5a1.71,1.71,0,0,1-1.71-1.72h0a1.71,1.71,0,0,1,1.71-1.72h5.38a1.71,1.71,0,0,0,1.71-1.72V9.79a1.72,1.72,0,0,1,1.71-1.72h.38a1.72,1.72,0,0,1,1.71,1.72v3.39a1.71,1.71,0,0,0,1.7,1.72"/><path class="cls-1" d="M84.73,16A22.19,22.19,0,0,0,62.91,34.39a1.74,1.74,0,0,0,1.7,2h.71A1.73,1.73,0,0,0,67,35,18,18,0,0,1,84.73,20.19a14.06,14.06,0,0,1,14,14.09s0,.08,0,.12a1.93,1.93,0,0,0,0,.24,10.78,10.78,0,0,1-10.77,10.5,8.25,8.25,0,0,1-8.21-8.27,6.2,6.2,0,0,1,6.77-6.16,4.46,4.46,0,0,1,3.87,4.15,1.72,1.72,0,0,0,1.71,1.58H93a1.55,1.55,0,0,0,1.54-1.67,9,9,0,0,0-8.69-8.28A10.41,10.41,0,0,0,75.58,36.87,12.42,12.42,0,0,0,87.94,49.33a14.92,14.92,0,0,0,14.92-14.57v-.12c0-.11,0-.24,0-.36A18.23,18.23,0,0,0,84.73,16"/><path d="M84.73,6.15a22.19,22.19,0,0,0-6.29.91,2.12,2.12,0,0,0-1.49,2h0a2.09,2.09,0,0,0,2.71,2,17.71,17.71,0,0,1,5.07-.74,13.7,13.7,0,0,1,5.47,1.14,2.09,2.09,0,0,0,2.94-1.9,2.11,2.11,0,0,0-1.25-1.93,18,18,0,0,0-7.16-1.49"/></g></g></svg>