<svg xmlns="http://www.w3.org/2000/svg" viewBox="0 0 133.74 35.88"><title>logo</title><g id="Layer_2" data-name="Layer 2"><g id="Layer_1-2" data-name="Layer 1"><path d="M17.88,8.4a4.17,4.17,0,0,0,4.2-4.2,4.2,4.2,0,0,0-8.4,0A4.17,4.17,0,0,0,17.88,8.4Zm0-7.9a3.67,3.67,0,0,1,3.7,3.7,3.7,3.7,0,1,1-7.4,0A3.66,3.66,0,0,1,17.88.5Z"/><path d="M67.92,8.4a4.17,4.17,0,0,0,4.2-4.2,4.2,4.2,0,0,0-8.4,0A4.17,4.17,0,0,0,67.92,8.4Z"/><path d="M133.2,19.26c-2.94,3.9-11.88,15.06-15.9,15.06-.78,0-1.32-.36-1.32-1.5,0-4.14,8.94-15.66,11-19.26l-8.7.24c-6.54,12.6-13.8,20-17,20a1.61,1.61,0,0,1-1.62-1.74c0-1.92,1.32-4.14,8.88-15.78l2.1-3.24-8.64.24c-1,1.75-4,6-6.26,10.17a4.24,4.24,0,0,1-1.06.15c-1.86,0-2.64-1.74-2.64-3.42,0-2.76,2.28-5.82,4.14-7.74-8.22.3-8.58.66-10.86,3.36-2.88,1.2-6.78,5.1-11.16,11.4L74,27.12l9.18-13.56-8.64.24L66.44,28.15c-2.95,3.31-6.17,6.17-8.54,6.17-1,0-1.38-.84-1.38-2,0-3,5.1-10.62,10.26-18.78l-8.58.24C55,19.15,52.38,23.31,51,26.55c-4,4.57-7.51,7.77-9.81,7.77-.84,0-1.38-.6-1.38-1.74,0-4.38,8.22-15.06,10.8-19l-8.52.24-1.56,3.12h-.12a4.84,4.84,0,0,0-5.16-4.08C25.18,12.84,18,20.6,17.14,27.3c-3.14,3.65-6.7,7-9.28,7-1,0-1.38-.84-1.38-2,0-3,5.1-10.62,10.26-18.78l-8.58.24C3.48,21.66,0,26.94,0,30.54c0,3.3,1.74,5.34,5,5.34,3.84,0,6.6-2,10.32-5.76.61-.62,1.2-1.27,1.77-1.91,0,.15,0,.31,0,.47,0,5,2,7.2,5.82,7.2,4.26,0,7.8-3.42,10.32-6.42l.18.12c0,2.22,0,6.3,5.4,6.3,4,0,7.82-3.32,11.74-7.89A8.73,8.73,0,0,0,50,30.54c0,3.3,1.74,5.34,5,5.34,3.82,0,6.58-2,10.27-5.72l-2.83,5,8-.36c2.28-4.86,9.36-15.36,14.22-17.88V17a6.61,6.61,0,0,0-.48,2.82c0,2.82,2.46,5.34,6.36,5.34a14.34,14.34,0,0,0,4.63-.72,15.45,15.45,0,0,0-2,6.18c0,3,1.62,5.22,4.92,5.22,4.38,0,8.34-3.84,11.82-7.86l.12.12a7.88,7.88,0,0,0-.54,2.64c0,2.58,1.5,5.1,5,5.1,7.2,0,15.12-11.34,19.2-16.14ZM5,35.38C2.09,35.38.5,33.66.5,30.54s2.69-7.49,6.4-13.67l1.55-2.58,7.36-.2c-.42.67-.85,1.35-1.28,2C9.94,23.31,6,29.54,6,32.34c0,2.24,1.31,2.48,1.88,2.48l.4,0A9.31,9.31,0,0,1,5,35.38Zm21.84-2.14c-1.56,0-2-1.68-2-3,0-5.58,6.24-16.68,11.16-16.68a2.62,2.62,0,0,1,2.64,2.76C38.64,23.52,30.12,33.24,26.82,33.24Z"/></g></g></svg>