<?xml version="1.0" encoding="utf-8"?>
<!-- Generator: Adobe Illustrator 22.0.1, SVG Export Plug-In . SVG Version: 6.00 Build 0)  -->
<svg version="1.1" id="Layer_1" xmlns="http://www.w3.org/2000/svg" xmlns:xlink="http://www.w3.org/1999/xlink" x="0px" y="0px"
	 viewBox="0 0 133.7 35.9" style="enable-background:new 0 0 133.7 35.9;" xml:space="preserve">
<style type="text/css">
	.st0{fill:#FFFFFF;}
</style>
<title>logo</title>
<g id="Layer_2_1_">
	<g id="Layer_1-2">
		<path class="st0" d="M17.9,8.4c2.3,0,4.2-1.8,4.2-4.1c0,0,0,0,0-0.1c0-2.3-1.9-4.2-4.2-4.2s-4.2,1.9-4.2,4.2
			C13.7,6.5,15.5,8.4,17.9,8.4C17.8,8.4,17.9,8.4,17.9,8.4z M17.9,0.5c2,0,3.7,1.6,3.7,3.6c0,0,0,0,0,0.1c0,2-1.7,3.7-3.7,3.7
			s-3.7-1.7-3.7-3.7l0,0C14.2,2.2,15.8,0.5,17.9,0.5C17.8,0.5,17.9,0.5,17.9,0.5z"/>
		<path class="st0" d="M67.9,8.4c2.3,0,4.2-1.8,4.2-4.1c0,0,0,0,0-0.1c0-2.3-1.9-4.2-4.2-4.2c-2.3,0-4.2,1.9-4.2,4.2
			S65.6,8.4,67.9,8.4L67.9,8.4z"/>
		<path class="st0" d="M133.2,19.3c-2.9,3.9-11.9,15.1-15.9,15.1c-0.8,0-1.3-0.4-1.3-1.5c0-4.1,8.9-15.7,11-19.3l-8.7,0.2
			c-6.5,12.6-13.8,20-17,20c-0.9,0-1.6-0.7-1.6-1.6v-0.1c0-1.9,1.3-4.1,8.9-15.8l2.1-3.2l-8.6,0.2c-1,1.8-4,6-6.3,10.2
			c-0.3,0.1-0.7,0.1-1.1,0.1c-1.9,0-2.6-1.7-2.6-3.4c0-2.8,2.3-5.8,4.1-7.7c-8.2,0.3-8.6,0.7-10.9,3.4c-2.9,1.2-6.8,5.1-11.2,11.4
			L74,27.1l9.2-13.6l-8.6,0.2L66.5,28c-3,3.3-6.2,6.2-8.5,6.2c-1,0-1.4-0.8-1.4-2c0-3,5.1-10.6,10.3-18.8l-8.6,0.2
			c-3.2,5.4-5.8,9.5-7.2,12.8c-4,4.6-7.5,7.8-9.8,7.8c-0.8,0-1.4-0.6-1.4-1.7c0-4.4,8.2-15.1,10.8-19l-8.5,0.2l-1.6,3.1h-0.1
			c-0.4-2.5-2.6-4.3-5.2-4.1c-10.1,0-17.2,7.7-18.1,14.4c-3.1,3.6-6.7,7-9.3,7c-1,0-1.4-0.8-1.4-2c0-3,5.1-10.6,10.3-18.8l-8.6,0.2
			C3.5,21.7,0,26.9,0,30.5c0,3.3,1.7,5.3,5,5.3c3.8,0,6.6-2,10.3-5.8c0.6-0.6,1.2-1.3,1.8-1.9c0,0.1,0,0.3,0,0.5c0,5,2,7.2,5.8,7.2
			c4.3,0,7.8-3.4,10.3-6.4l0.2,0.1c0,2.2,0,6.3,5.4,6.3c4,0,7.8-3.3,11.7-7.9c-0.3,0.8-0.5,1.7-0.6,2.5c0,3.3,1.7,5.3,5,5.3
			c3.8,0,6.6-2,10.3-5.7l-2.8,5l8-0.4c2.3-4.9,9.4-15.4,14.2-17.9V17c-0.4,0.9-0.5,1.9-0.5,2.8c0,2.8,2.5,5.3,6.4,5.3
			c1.6,0,3.1-0.2,4.6-0.7c-1.1,1.9-1.8,4-2,6.2c0,3,1.6,5.2,4.9,5.2c4.4,0,8.3-3.8,11.8-7.9l0.1,0.1c-0.3,0.8-0.5,1.7-0.5,2.6
			c0,2.6,1.5,5.1,5,5.1c7.2,0,15.1-11.3,19.2-16.1L133.2,19.3z M5,35.4c-2.9,0-4.5-1.7-4.5-4.8s2.7-7.5,6.4-13.7l1.5-2.6l7.4-0.2
			c-0.4,0.7-0.9,1.4-1.3,2C9.9,23.3,6,29.5,6,32.3c0,2.2,1.3,2.5,1.9,2.5h0.4C7.2,35.2,6.1,35.4,5,35.4z M26.8,33.2
			c-1.6,0-2-1.7-2-3c0-5.6,6.2-16.7,11.2-16.7c1.4,0,2.6,1.1,2.6,2.6c0,0.1,0,0.1,0,0.2C38.6,23.5,30.1,33.2,26.8,33.2L26.8,33.2z"
			/>
	</g>
</g>
<g>
	<path class="st0" d="M98.8,10.8V2.4h2.4c0.7,0,1.3,0.2,1.7,0.5s0.6,0.8,0.6,1.4c0,0.5-0.1,0.9-0.4,1.2s-0.6,0.6-1.1,0.8v0
		c0.6,0.1,1,0.3,1.4,0.6s0.5,0.8,0.5,1.4c0,0.7-0.3,1.3-0.8,1.7s-1.2,0.7-2,0.7H98.8z M99.8,3.3V6h1c0.5,0,1-0.1,1.3-0.4
		s0.5-0.6,0.5-1.1c0-0.8-0.5-1.2-1.6-1.2H99.8z M99.8,6.9v3h1.3c0.6,0,1-0.1,1.3-0.4s0.5-0.6,0.5-1.1c0-1-0.7-1.5-2-1.5H99.8z"/>
	<path class="st0" d="M111.4,10.8H107V2.4h4.3v0.9h-3.3v2.8h3v0.9h-3v2.9h3.5V10.8z"/>
	<path class="st0" d="M119.3,3.3h-2.4v7.5h-1V3.3h-2.4V2.4h5.8V3.3z"/>
	<path class="st0" d="M127.5,10.8h-1.1l-0.9-2.4H122l-0.8,2.4H120l3.2-8.4h1L127.5,10.8z M125.2,7.5L123.9,4c0-0.1-0.1-0.3-0.1-0.6
		h0c0,0.2-0.1,0.4-0.1,0.6l-1.3,3.6H125.2z"/>
</g>
</svg>
