<?xml version="1.0" encoding="utf-8"?>
<!-- Generator: Adobe Illustrator 22.0.1, SVG Export Plug-In . SVG Version: 6.00 Build 0)  -->
<svg version="1.1" id="Layer_1" xmlns="http://www.w3.org/2000/svg" xmlns:xlink="http://www.w3.org/1999/xlink" x="0px" y="0px"
	 viewBox="0 0 133.7 35.9" style="enable-background:new 0 0 133.7 35.9;" xml:space="preserve">
<style type="text/css">
	.st0{fill:none;}
</style>
<title>logo</title>
<path class="st0" d="M6,32.3c0-2.8,3.9-9,8.5-16.3c0.4-0.7,0.9-1.3,1.3-2l-7.4,0.2l-1.5,2.6C3.2,23,0.5,27.4,0.5,30.5
	s1.6,4.8,4.5,4.8c1.1,0,2.2-0.2,3.3-0.6H7.9C7.3,34.8,6,34.6,6,32.3z"/>
<path class="st0" d="M19.5,7.6c1.3-0.6,2.1-1.9,2.1-3.3V4.1c0-2-1.7-3.7-3.7-3.6c0,0-0.1,0-0.1,0c-2,0-3.6,1.7-3.6,3.7c0,0,0,0,0,0
	C14.2,6.8,16.8,8.7,19.5,7.6z"/>
<polygon points="66.5,28 66.4,28.2 66.4,28.2 66.5,28 "/>
<path d="M17.8,8.4h0.2c2.2,0,4-1.8,4-4v0c0-2-1.4-3.9-3.3-4.3c-2.7-0.5-5.1,1.5-5.1,4.1C13.7,6.5,15.5,8.4,17.8,8.4z M14.2,4.2
	c0-2,1.6-3.7,3.6-3.7c0,0,0.1,0,0.1,0c2,0,3.7,1.6,3.7,3.6v0.1c0,1.4-0.8,2.8-2.1,3.3C16.8,8.7,14.2,6.8,14.2,4.2
	C14.2,4.2,14.2,4.2,14.2,4.2z"/>
<path d="M67.9,0.5c0.3,0,0.5,0,0.8,0.1c1.7,0.3,2.9,1.9,2.9,3.8c0,1.9-1.6,3.5-3.5,3.5l-0.2,0c-2,0-3.7-1.7-3.6-3.7
	C64.2,2.2,65.9,0.5,67.9,0.5 M67.9,0c-2.3,0-4.2,1.9-4.2,4.2c0,2.3,1.8,4.2,4.1,4.2h0.2c2.2,0,4-1.8,4-4v0c0-2-1.4-3.9-3.3-4.3
	C68.5,0,68.2,0,67.9,0L67.9,0z"/>
<path d="M109.7,13.6l-1.6,2.4c-7.6,11.7-9,14-9,16c0,0.1,0,0.1,0,0.2c0,1.2,1,2.1,2.1,2.1c0.3,0,0.7-0.1,1.1-0.2
	c-1.4,0.8-2.8,1.2-4.3,1.2c-2.8,0-4.4-1.7-4.4-4.7c0.2-2,0.8-3.9,1.8-5.7l0.7-1.2c1.4-2.7,3.2-5.4,4.5-7.4c0.7-1,1.2-1.9,1.6-2.5
	L109.7,13.6 M126.1,14.1c-0.6,0.9-1.5,2.2-2.4,3.6c-3.5,5-8.2,12-8.2,15.1c0,1.3,0.6,2,1.7,2c-0.9,0.3-1.8,0.5-2.7,0.5
	c-3.3,0-4.5-2.4-4.5-4.6c0-0.8,0.2-1.7,0.5-2.5l-0.1-0.5l-0.1-0.1l-0.3,0c2.7-3.3,5.7-7.8,8.6-13.3L126.1,14.1 M110.6,13l-8.6,0.2
	c-1,1.8-4,6-6.3,10.2l-0.7,1.2c-1,1.8-1.7,3.9-1.9,6c0,3,1.6,5.2,4.9,5.2c4.4,0,8.3-3.8,11.8-7.9l0.1,0.1c-0.3,0.8-0.5,1.7-0.5,2.6
	c0,2.6,1.5,5.1,5,5.1c7.2,0,15.1-11.3,19.2-16.1l-0.5-0.4c-2.9,3.9-11.9,15.1-15.9,15.1c-0.8,0-1.3-0.4-1.3-1.5
	c0-4.1,8.9-15.7,11-19.3l-8.7,0.2c-6.5,12.6-13.8,20-17,20c0,0,0,0,0,0c-0.9,0-1.6-0.7-1.6-1.6c0,0,0-0.1,0-0.1
	c0-1.9,1.3-4.1,8.9-15.8L110.6,13L110.6,13z"/>
<path d="M95,13c-1.4,1.7-3.5,4.5-3.5,7.2c0,1.9,0.9,3.9,3,3.9c-1.3,0.4-2.6,0.6-3.9,0.6l-0.1,0c-3.8,0-5.9-2.5-5.9-4.9
	c0-0.9,0.1-1.8,0.4-2.6l0-0.2v-0.1l-0.4-0.3c0.3-0.2,0.5-0.3,0.8-0.4l0.2-0.1C87.8,13.7,88.1,13.3,95,13 M82.2,14.1l-8.6,12.8
	l0.2,0.7l0.2,0.1l0.2,0c-1.7,2.5-3.1,5-4,6.7l-6.8,0.3l2.4-4.2l1.2-2.1l0,0l0.1-0.1l7.9-14L82.2,14.1 M96.2,12.4
	c-8.2,0.3-8.6,0.7-10.9,3.4c-2.9,1.2-6.8,5.1-11.2,11.4L74,27.1l9.2-13.6l-8.6,0.2l-8,14.2l0,0l0,0l-0.1,0.1c0,0,0,0,0,0l-1.2,2.1
	l-2.8,4.9l8-0.4c2.3-4.9,9.4-15.4,14.2-17.9V17c-0.4,0.9-0.5,1.9-0.5,2.8c0,2.8,2.5,5.3,6.4,5.3c0,0,0.1,0,0.1,0
	c1.5,0,3-0.2,4.5-0.7c0,0.1-0.1,0.1-0.1,0.2l0.7-1.2c-0.3,0.1-0.7,0.1-1.1,0.1c-1.9,0-2.6-1.7-2.6-3.4C92,17.4,94.3,14.4,96.2,12.4
	L96.2,12.4z"/>
<g>
	<path d="M26.8,33.2C26.8,33.2,26.8,33.2,26.8,33.2L26.8,33.2C26.8,33.2,26.8,33.2,26.8,33.2L26.8,33.2z"/>
	<path d="M34.4,13.4c-4.9,1.9-10.1,11.7-10.1,16.9c0,2.2,1,3.5,2.5,3.5l0-0.4l0,0.1l0,0.3c0,0,0,0,0,0l0,0v0c0.6,0,1.3-0.3,2.1-0.7
		c-1.8,1.4-3.8,2.4-6.1,2.4c-3.6,0-5.3-2.1-5.3-6.7l0-0.4l0-1C18.5,20.8,25.4,13.8,34.4,13.4 M49.7,14.1c-0.4,0.6-0.9,1.4-1.5,2.2
		c-3.5,5-8.8,12.6-8.8,16.3c0,1.7,1,2.2,1.9,2.2c0.2,0,0.3,0,0.5,0c-0.9,0.4-1.9,0.6-2.9,0.6c-4.5,0-4.9-2.9-4.9-5.8l-0.2-0.4
		L33.5,29l-0.2,0c3.1-3.6,5.8-8.6,5.8-12.7c0-0.1,0-0.1,0-0.2c0-0.5-0.2-1.1-0.4-1.5c0.6,0.6,1,1.4,1.2,2.4l0.5,0.4h0.1l0.4-0.3
		l1.4-2.9L49.7,14.1 M35.6,12.8c-0.1,0-0.3,0-0.4,0c0,0,0,0,0,0c-10,0-17.2,7.7-18.1,14.4l0,1c0,0.1,0,0.3,0,0.4c0,5,2,7.2,5.8,7.2
		c4.3,0,7.8-3.4,10.3-6.4l0.2,0.1c0,2.2,0,6.3,5.4,6.3c4,0,7.8-3.3,11.7-7.9l0.4-1.4c-4,4.6-7.5,7.8-9.8,7.8c-0.8,0-1.4-0.6-1.4-1.7
		c0-4.4,8.2-15.1,10.8-19l-8.5,0.2l-1.6,3.1h-0.1C40,14.6,38,12.8,35.6,12.8L35.6,12.8z M26.8,33.2C26.8,33.2,26.8,33.2,26.8,33.2
		c-1.5,0-2-1.7-2-3c0-5.6,6.2-16.7,11.2-16.7c0,0,0,0,0,0c1.4,0,2.6,1.2,2.6,2.6c0,0.1,0,0.1,0,0.2C38.6,23.5,30.1,33.2,26.8,33.2
		C26.8,33.2,26.8,33.2,26.8,33.2L26.8,33.2L26.8,33.2z"/>
</g>
<path d="M7.9,34.3c-1,0-1.4-0.8-1.4-2c0-3,5.1-10.6,10.3-18.8l-8.6,0.2C3.5,21.7,0,26.9,0,30.5c0,3.3,1.7,5.3,5,5.3
	c3.8,0,6.6-2,10.3-5.8c0.6-0.6,1.2-1.3,1.8-1.9c0,0,0,0.1,0,0.1l0-1C14,31,10.4,34.3,7.9,34.3z M5,35.4c-2.9,0-4.5-1.7-4.5-4.8
	S3.2,23,6.9,16.9l1.5-2.6l7.4-0.2c-0.4,0.7-0.8,1.3-1.3,2C9.9,23.3,6,29.5,6,32.3c0,2.2,1.3,2.5,1.9,2.5h0.4
	C7.2,35.2,6.1,35.4,5,35.4z"/>
<path d="M65.9,14.1c-0.4,0.7-0.9,1.4-1.3,2C60,23.3,56,29.5,56,32.3c0,2.3,1.3,2.5,1.9,2.5c0.1,0,0.2,0,0.3,0
	c-1,0.4-2.1,0.6-3.2,0.6c-2.9,0-4.5-1.7-4.5-4.8c0.1-0.8,0.2-1.6,0.5-2.4l0.4-1.4l0,0c1.1-2.6,3.1-5.9,5.5-10c0.5-0.8,1-1.6,1.5-2.5
	L65.9,14.1 M66.8,13.5l-8.6,0.2c-3.2,5.4-5.8,9.5-7.2,12.8c0,0,0,0,0,0L50.5,28c-0.3,0.8-0.5,1.7-0.5,2.5c0,3.3,1.7,5.3,5,5.3
	c3.8,0,6.6-2,10.3-5.7l0,0.1l1.2-2.1c-2.9,3.3-6.2,6.2-8.5,6.2c-1,0-1.4-0.8-1.4-2C56.5,29.3,61.6,21.7,66.8,13.5L66.8,13.5z"/>
<path d="M26.8,33.2C26.8,33.2,26.8,33.2,26.8,33.2C26.8,33.2,26.8,33.2,26.8,33.2L26.8,33.2z"/>
</svg>
