<svg xmlns="http://www.w3.org/2000/svg" viewBox="0 0 46.01 39.87"><defs><style>.cls-1{fill:none;stroke:#000;stroke-miterlimit:10;opacity:0.3;}</style></defs><title>quote</title><g id="Layer_2" data-name="Layer 2"><g id="Layer_1-2" data-name="Layer 1"><path class="cls-1" d="M.7,36.1Q9.91,28,9.91,20.18q0-6.85-7.15-11A8.57,8.57,0,0,1,5.12,2.86,8.28,8.28,0,0,1,11.24.5,8.16,8.16,0,0,1,18,3.71a12.53,12.53,0,0,1,2.55,8.07,26.3,26.3,0,0,1-4.28,14.33Q12,32.86,3.35,39.2Zm25,0Q34.9,28,34.9,20.18q0-6.85-7.15-11a8.57,8.57,0,0,1,2.36-6.34A8.28,8.28,0,0,1,36.23.5,8.17,8.17,0,0,1,43,3.71a12.53,12.53,0,0,1,2.54,8.07,26.29,26.29,0,0,1-4.27,14.33Q37,32.86,28.34,39.2Z"/></g></g></svg>