<svg xmlns="http://www.w3.org/2000/svg" viewBox="0 0 580.32 507.7"><defs><style>.cls-1{fill:#fff;}</style></defs><title>logo</title><g id="Layer_2" data-name="Layer 2"><g id="Layer_1-2" data-name="Layer 1"><path class="cls-1" d="M189.94,133.46c3.53-2.61,7.54-2.08,10.71,1,3.49,3.35,3.94,7.67,3.94,12.15q0,119.28,0,238.57v4.37h45.76v-4.65q0-116.69,0-233.36c0-7.28-.11-14.58-.69-21.83-.73-9.26-2.69-18.27-7.5-26.44-12-20.37-41.34-22.13-54.3-5.16-1.34,1.76-2.92,3.32-4.77,5.41V0H137.21V389.53H183v-4.64q0-119.28-.14-238.56c0-6.11,2.84-9.72,7.11-12.87"/><path class="cls-1" d="M558.59,89.59v-48A82.15,82.15,0,0,1,550,41.5c-3.54-.39-5.51,1-7.47,4-15.94,23.83-32,47.61-51.61,68.68a3.7,3.7,0,0,0-1.14,2c-.11,4.25-.05,8.5-.05,13.12H513v4.51q0,102.95,0,205.88a106.7,106.7,0,0,0,.74,13.49c1.49,11.41,5.6,21.71,14.4,29.56,14.56,13,35,13.69,52.2,2V345.88c-1.21.66-2.4,1.38-3.65,2-8.75,4.12-17.1-.76-17.88-10.46-.1-1.15-.08-2.31-.08-3.47V129.18h21.61V89.59Z"/><path class="cls-1" d="M377.21,420.4v-3.79a34.3,34.3,0,0,0-4.09,0c-2.68.36-5.35,1.26-8,1.22a73.26,73.26,0,0,1-9.6-1.3C345,415,339,420.14,338.94,430.65c0,12,0,24.08,0,36.11,0,10.65,5.32,15.9,16.06,15.93h12.63v17H348.84v-8.33H339.9c0,2.51.13,4.81,0,7.09-.28,4.19.91,7.49,5,9.27H372c4.45-1.86,5.29-5.53,5.28-9.87q-.09-38.71,0-77.43m-9.51,53.89c-4.8,0-9.51.27-14.17-.09-3.22-.26-5.19-2.57-5.21-5.91-.07-12.58-.09-25.17,0-37.76,0-3.67,2.47-6,6.17-6.14,4.34-.14,8.68,0,13.2,0Z"/><path class="cls-1" d="M423.19,416.57c-2.77-.33-3.72.79-4.26,3.48-2.07,10.41-4.43,20.77-6.71,31.14-1.13,5.18-2.31,10.35-3.46,15.53l-.53-.09q-5.4-25-10.79-49.82H388c.16.78.25,1.33.39,1.88,5,20.27,10.08,40.52,15,60.81a11.24,11.24,0,0,1-.05,5c-1.79,7.75-3.77,15.45-5.68,23.17h9q6.07-24.51,12.14-49c3.4-13.88,6.71-27.78,10.16-42.06a52.75,52.75,0,0,1-5.8,0"/><path class="cls-1" d="M112.82,86.71c-8.2,0-15.94-.1-23.67,0a76.6,76.6,0,0,0-36.51,9.46C35.83,105.49,24.92,119.93,17,137,5.47,161.9,1.75,188.55.62,215.52c-.92,22-.65,44.17-.23,66.24a267.2,267.2,0,0,0,7.7,60.75C11,354.1,15,365.3,22.82,374.68c10.34,12.43,25.47,13.51,37.49,2.69,2.25-2,4.39-4.19,6.74-6.44,0,4.58.17,9,0,13.36-.39,8.46-5.4,14.85-13.73,16.47a32.6,32.6,0,0,1-13.66.06c-6.74-1.69-13.13-4.73-19.9-7.29.14-.15-.18.07-.29.37C15,406.05,10.52,418.18,6.21,430.38a3.21,3.21,0,0,0,1.19,2.87c12.86,6.93,25.94,13.26,41,13.66,14.7.4,28.54-2.26,40.56-11.33,17.1-12.9,23.76-30.89,23.79-51.51q.24-146.7.07-293.39Zm-47.34,250c-3.1,1.36-6.57,1.79-9.16-.62-2.19-2-4.56-4.73-5.14-7.49-1.85-8.89-3.92-17.93-4.08-26.95-.64-34.81-.89-69.64-.56-104.46.1-10.76,1.83-21.64,4.08-32.2,2.05-9.63,7.43-17.79,16.45-24.1v4.91q0,92.52-.06,185c0,2,1.25,4.64-1.53,5.86"/><path class="cls-1" d="M368.42,392.85c8.73-12.81,17.42-25.59,26.21-38.5a33.71,33.71,0,0,1-10-19.51,137.16,137.16,0,0,1-1.46-18.64q-.13-112.47-.06-224.95V86.81c-9.17,0-17.87-.5-26.49.16a101.62,101.62,0,0,0-22.06,3.89c-21,6.45-34.95,21.37-45.21,40.1-13.76,25.15-18.58,52.61-19.2,80.78-.58,26.23-.05,52.51.42,78.76a294.56,294.56,0,0,0,6.3,57.45c2.62,12,6.11,23.77,14,33.56,7,8.59,15.73,13.35,27.06,10.76,7.56-1.72,13-6.95,17.67-12.77,2.94-3.63,5.5-7.55,8.45-11.62,5.17,11.39,10.95,21.85,24.37,25m-34.24-44.37c-3.16,1.06-6.4,1.33-8.55-1.58-1.88-2.55-3.84-5.45-4.43-8.46-1.92-9.95-4.39-20-4.59-30.05q-1.08-54.28-.6-108.59c.09-10.76,1.83-21.65,4-32.22,2-9.63,7.7-17.4,17.27-23V149q0,96.67,0,193.34c0,2.73-.14,5.09-3.18,6.11"/><path class="cls-1" d="M457.09,200.82c-4.5-15.16-9.1-30.36-9.47-46.35a35.41,35.41,0,0,1,1.5-11.56c3.74-11.32,14.92-15.53,25.4-9.86,2.58,1.4,5,3.13,7.79,4.92,0-13.58,0-26.64-.09-39.71a4,4,0,0,0-1.91-2.79A99.13,99.13,0,0,0,470,90.57c-26.6-10.54-51.26.93-60.17,28.12-4.83,14.74-5.37,30-4.15,45.3,1.55,19.43,6.22,38.28,11.84,56.86,6.74,22.32,14.12,44.44,20.75,66.78,3.78,12.73,6.85,25.69,6.62,39.15-.28,15.62-13.07,25.5-27.79,21-4.37-1.33-8.21-4.36-12.49-6.73,0,13.86-.05,28,.1,42.08,0,1,1.26,2.37,2.28,2.9a60.06,60.06,0,0,0,24.16,6.86c20.1,1.18,38.11-6.94,47.7-25.7,5.19-10.16,7-21.2,7.69-32.46,1.3-21.62-2.35-42.69-8.14-63.33-6.64-23.65-14.33-47-21.31-70.56"/><path class="cls-1" d="M269.72,474.79H250.58V451.36h22.61c3.2,0,5.2-2,5.28-4.79.22-7.85.1-15.72-.22-23.57-.19-4.42-2.53-6.34-7-6.37q-11.28-.11-22.56,0c-4.6,0-7.14,2.43-7.16,7.07q-.13,25.86,0,51.71c0,4.42,2.46,7,6.84,7.16,7.74.21,15.5.14,23.24,0,2.8-.05,5.7-1.17,6.14-4.14.75-5.14.76-10.39,1.07-15.58h-9.08Zm-19.08-50.33h18.91v19.22H250.64Z"/><path class="cls-1" d="M167.18,416.63q-11.44-.12-22.9,0c-4.38,0-7,2.51-7,6.83q-.12,26,0,52.05c0,4.19,2.41,6.93,6.55,7.05,7.86.22,15.73.19,23.59,0,3.71-.09,6.29-2.24,6.51-5.54.32-4.67.08-9.39.08-14.23h-8.65v12h-19V451.36c7.7,0,15,0,22.26,0,3.15,0,5.5-2,5.52-4.84.06-7.75.1-15.5-.09-23.25-.1-4.28-2.57-6.58-6.83-6.63m-2.09,27.07H146.28V424.52h18.81Z"/><path class="cls-1" d="M219.63,416.18c-5.65.25-11.27,1.05-16.9,1.61a14.75,14.75,0,0,1-3.78.26c-3.18-.54-6.32-1.34-9.82-2.12v66.59h9.07V425.43H218v57.09h8.7a11,11,0,0,0,.21-1.47c0-19.33.06-38.65,0-58,0-4.59-2.54-7.11-7.25-6.89"/><path class="cls-1" d="M320.55,416.18c-4.83.24-9.63,1.08-14.44,1.65-1,.12-2.54.65-3,.18-2.9-2.91-6.24-.65-9.56-1.53v66h9V454.33c0-8.68-.05-17.36.08-26,0-1,1-2.92,1.64-3,4.81-.25,9.64-.14,14.84-.14v12.9h9c0-5.22.22-10.18-.06-15.12-.26-4.66-2.82-7-7.47-6.8"/></g></g></svg>