<svg xmlns="http://www.w3.org/2000/svg" viewBox="0 0 528.78 164.36"><defs><style>.cls-1{fill:#fff;}</style></defs><title>logo</title><g id="Layer_2" data-name="Layer 2"><g id="Layer_1-2" data-name="Layer 1"><path class="cls-1" d="M70.72,71.13a44,44,0,0,0-4.53-2L66,69l-.44-.15a17.15,17.15,0,0,1,5.56-33.33,16.88,16.88,0,0,1,13,6.21l3.38,4.11,5.32-7.75-2-2.33A26,26,0,1,0,62.88,77.49c10.62,3.9,18.43,11.2,22.59,21.13a40.17,40.17,0,0,1-36.83,55.69,40.16,40.16,0,0,1-36.4-56l2.38-5.56-9.8,0-1,2.47a49.16,49.16,0,0,0,44.82,68.09A49.18,49.18,0,0,0,94,95.57C89.55,84.79,81.73,76.57,70.72,71.13Z"/><path class="cls-1" d="M136.35,146.43a8.21,8.21,0,1,1-16.42-.06l.46-119.75-9,0-.46,119.76a17.21,17.21,0,0,0,17.15,17.27,17.24,17.24,0,0,0,17.27-17.15l0-4-9,0Z"/><rect class="cls-1" x="164.06" y="91.02" width="136.96" height="9.01" transform="translate(136.16 327.71) rotate(-89.79)"/><path class="cls-1" d="M203.82,137.7l0,6.35c-.12,5.86-3.88,10.61-8.4,10.6a7.12,7.12,0,0,1-4.73-2,6,6,0,0,1-.51-.5l-.31-.34-.13-.09a30.24,30.24,0,0,1-3.6-5.37c-10.29-19-17.79-63.48-19.57-116.09l-.13-3.85-9.37,0-.52,137.34,9,0,.2-53.44c.27,1.38.54,2.74.82,4.08,4.31,20.66,9.66,35,15.88,42.7a18.89,18.89,0,0,0,1.84,2l.1.1c.14.15.29.3.51.5l.33.29.13.11a13.64,13.64,0,0,0,8.78,3.71l.59,0h.66c7.16,0,13.52-4.91,16.19-12.57a22.93,22.93,0,0,0,1.25-7.42l.45-117.28-9,0Z"/><path class="cls-1" d="M324.05,4.1A8.37,8.37,0,0,1,307.31,4l0-4-9,0,0,4a17.37,17.37,0,0,0,34.74.13v-4l-9,0Z"/><path class="cls-1" d="M315.59,27a17.22,17.22,0,0,0-17.27,17.14L297.93,147a17.21,17.21,0,0,0,17.14,17.28,17.24,17.24,0,0,0,17.28-17.15v-4l-9,0v4a8.21,8.21,0,0,1-16.42-.06l.39-102.87a8.21,8.21,0,0,1,16.42.07l0,4,9,0,0-4A17.23,17.23,0,0,0,315.59,27Z"/><path class="cls-1" d="M270.45,27.08a17.23,17.23,0,0,0-17.27,17.14l-.39,102.87a17.21,17.21,0,0,0,17.14,17.27,17.23,17.23,0,0,0,17.28-17.14v-4l-9,0v4a8.21,8.21,0,1,1-16.42-.06L262,95.83l17,.06,0-9-17-.06.16-42.56a8.21,8.21,0,1,1,16.42.06l0,4,9,0,0-4A17.24,17.24,0,0,0,270.45,27.08Z"/><path class="cls-1" d="M460.3,28.18c-37.9-.14-68.85,30.23-69,67.71s30.58,68.08,68.48,68.22,68.86-30.23,69-67.7S498.2,28.32,460.3,28.18ZM445.45,67.93A8.33,8.33,0,0,0,431,64.57l-1.95,2.29-3-1.37-.74-.34L420.67,63,423.88,59a17.37,17.37,0,0,1,30.4,7l1.16,5L449.9,71h-.7l-3-.09Zm32.91,19a17.36,17.36,0,0,1-30.39-7l-1.17-5,5.54.12.71,0,3,.09L456.8,78a8.32,8.32,0,0,0,14.44,3.36l2-2.28,3,1.36.75.34L481.57,83Zm26.2-4-.7,0-3-.09-.74-2.92a8.34,8.34,0,0,0-14.45-3.36l-2,2.29-3-1.37-.74-.33L475.33,75l3.21-4a17.37,17.37,0,0,1,30.4,7l1.16,5Z"/><path class="cls-1" d="M379,100.28v0a18.67,18.67,0,0,0-4.5-9.13l-.12-.13a2.83,2.83,0,0,0-.25-.28c-2.42-2.42-6.38-3.68-11.77-3.73l-.25,0a8.74,8.74,0,0,1-1.82-.2,6.43,6.43,0,0,1-.66-.17c12-21.09,18.67-42.35,18.69-59.91v-.25H370v.24c-.49,16.32-6.37,35.46-16.56,54A8.61,8.61,0,0,1,353,78V26.42h-8.5V163.88H353V103.45a9,9,0,0,1,5.81-8.34,9.19,9.19,0,0,1,6.61,0,9,9,0,0,1,5.17,5.1l0,.29c0,25,6.29,48.08,17.17,63.28l.07.1h9.94l-.32-.41C385.73,148.38,379,125.34,379,100.28Z"/></g></g></svg>