<svg xmlns="http://www.w3.org/2000/svg" viewBox="0 0 743.84 172.33"><defs><style>.cls-1{opacity:0.5;}.cls-2{fill:#fff;}.cls-3{fill:#ed1c24;}</style></defs><title>logo</title><g id="Layer_2" data-name="Layer 2"><g id="Layer_1-2" data-name="Layer 1"><g class="cls-1"><polygon class="cls-2" points="7.3 48.8 72.95 48.8 0 123.13 0 134.48 112.04 134.48 112.04 114.83 38.01 114.83 112.04 40.5 112.04 30.14 7.3 30.14 7.3 48.8"/><polygon class="cls-2" points="176.51 88.97 224.68 88.97 224.68 71.2 176.51 71.2 176.51 47.91 259.03 47.91 259.03 30.14 152.22 30.14 152.22 134.48 260.02 134.48 260.02 114.83 176.51 114.83 176.51 88.97"/><polygon class="cls-2" points="406.52 102.99 321.22 30.14 304.64 30.14 304.64 134.48 326.45 134.48 325.47 61.53 410.76 134.48 427.35 134.48 427.35 30.14 405.53 30.14 406.52 102.99"/><polygon class="cls-2" points="623.61 30.14 623.61 48.8 671.48 48.8 671.48 134.48 695.77 134.48 695.77 48.8 743.84 48.8 743.84 30.14 623.61 30.14"/></g><path class="cls-3" d="M610.42,59.18l0-1.55L566.54,36.76l-.39-.09H545.64V0H521.82V36.67H501.31l-.39.09L457.09,57.63v.07h0v1.48h0v41.66l43.3,24.07v0h.06l.47.26.44.12h20.51v47h23.82v-47h20.51l.44-.12,43.83-24.37,0-.76h-.07V59.23ZM566.24,38.57l39.86,19H567.58L547,51.48ZM521.82,63.91l-18.71-5.5,18.71-5.49Zm1.11,2,21.65,0,1.06.88,18.09,15.12h-60l18.09-15.1Zm22.71-13,18.72,5.5-18.72,5.51Zm17.61-14.48-17.61,11.8V38.43Zm-41.43,0V50.22l-17.6-11.79Zm-20.61.14L520.53,51.5l-20.67,6H461.34Zm-.87,84.35-41-22.77.12-.06H459V60.26l41.35,23Zm.86-41.19L460.84,59.29h39l20.87,6.13Zm64,41.85H502.27V83.67h62.92Zm.4-42.41L546.71,65.4l20.87-6.1h39l-39.48,22v-.08Zm42.8,18.92H608l.12.06-41,22.77V83.25l41.27-22.94Z"/></g></g></svg>