<?xml version="1.0" encoding="utf-8"?>
<!-- Generator: Adobe Illustrator 22.0.1, SVG Export Plug-In . SVG Version: 6.00 Build 0)  -->
<svg version="1.1" id="Layer_1" xmlns="http://www.w3.org/2000/svg" xmlns:xlink="http://www.w3.org/1999/xlink" x="0px" y="0px"
	 viewBox="0 0 441 156.1" style="enable-background:new 0 0 441 156.1;" xml:space="preserve">
<style type="text/css">
	.st0{fill:#FFFFFF;}
</style>
<title>logo-w-outline</title>
<g id="Layer_2_1_">
	<g id="Layer_1-2">
		<path class="st0" d="M221.6,27.3c0.3,0,0.7,0,1,0c1.7,0.1,3.2,1.1,4,2.7c1.2,2.3,1.8,4.8,1.7,7.3c0,5.1-0.9,10.2-2.8,15
			c-0.1,0.4-0.2,0.7-0.3,1.1c0,0.1,0,0.1,0.1,0.3c0.3,0.1,0.7,0.2,1,0.2c1-0.1,2-0.5,2.8-1c3.3-1.7,6.5-3.4,9.7-5.2
			c0.2-0.1,0.5-0.2,0.8-0.3h0.1c2.8,1,6,1.2,8.2,3.8c1.3,1.6,2.6,3.4,3.6,5.2c0.4,0.6,0.5,1.3,0.5,2c-0.1,3.3-0.3,6.7-0.4,10
			c-0.1,2.4-0.4,4.8-0.3,7.2c0.1,3.2,1.3,6.3,3.3,8.8c1.3,1.6,3.4,2.6,5.1,3.8c1.6,1.1,3.6,1.7,5.5,1.6c1.3,0,2.6-0.2,3.9-0.4
			c3.1-0.5,6-1.6,8.6-3.3c1.4-0.8,2.9-1.3,4.2-2.3c4.7-3.3,9.5-6.4,12.2-11.9c1.8-3.8,3.7-7.4,4.6-11.5c0.5-2.3,2.1-4.2,4.2-5
			c0.6-0.3,1.3-0.5,2-0.5c0.7,0,1.4,0.2,2,0.5l3,1.3c0.5,2.1,0.8,3.8,1.2,5.5c0.3,1.6,0.1,3.2-0.5,4.7c-2.8,6.2-1.8,11.9,2.2,17.3
			c1.2,1.8,3.1,3.1,5.2,3.6c1.1,0.5,2.4,0.8,3.7,0.8c0.6,0,1.3-0.1,1.9-0.3c0.4,0.1,0.8,0.1,1.3,0.1c2.6,0,5-1.3,6.4-3.4
			c0.4-0.6,1-1.1,1.4-1.7l0.5,0.3c0,0.4,0.1,1-0.1,1.2c-0.8,1-1.7,1.9-2.6,2.7c-1.2,1.1-2.5,2.2-3.9,3.1c-0.9,0.6-1.9,0.9-3,1h-0.1
			c-1.9-0.1-3.8-0.3-5.7-0.8c-2-0.5-4-1.2-6-1.7c-3.4-0.8-6.4-2.8-8.3-5.7c-0.2-0.2-0.4-0.4-0.6-0.6c-0.5,0.3-1,0.7-1.5,1.1
			c-3.4,3.5-7.7,6.2-12.3,7.8c-4,1.3-8.2,2.1-12.4,2.6c-1.8,0.2-3.6,0.4-5.5,0.3c-1,0-1.9,0-2.9,0c-4.6-0.1-9.3-0.4-13.9-0.7
			c-1.2-0.1-8.1-2.8-8.9-3.8c-1-1-1.9-2.1-2.6-3.4c-4-8-5.6-17-4.7-25.8c0.1-0.7,0.2-1.4,0.2-2.2c-0.1-1.7-1.5-3-3.2-3
			c-0.3,0-0.6,0-0.9,0.1c-1,0.3-2,0.7-2.9,1.2c-2.5,1.2-5.2,1.8-7.9,1.9h-0.2c-1.1-0.1-2.2,0.4-2.8,1.3c-1,1.3-2,2.7-2.9,4.1
			c-3.6,5.8-8,11-13.1,15.5c-2.8,2.3-5.2,5-7.2,8c-0.9,1.3-2,2.5-3.4,3.4c-4.4,3.2-8.8,6.7-13.9,9c-4,1.9-8.3,3-12.7,3.1
			c-2.2,0-4.5-0.3-6.6-1c-3.3-1-6.3-2.6-9-4.8c-2.9-2.3-5.9-4.6-8.8-7c-0.6-0.5-1.2-1-1.6-1.7c-2.3-4.1-4.7-8.2-6.9-12.3
			c-1.6-3.1-1.7-6.6-1.9-10.1c-0.1-1.7-0.1-3.4,0-5c-0.1-2.7,2-4.9,4.7-5c0.1,0,0.2,0,0.3,0c0.3,0,0.6,0,0.9,0.1
			c1.4,0.2,2.7,0.4,4,0.6c1.6,0.2,3,1.2,3.6,2.8c0.7,1.6,1.5,3.1,2.5,4.6c1.5,2.5,2.1,5.4,1.8,8.3c-0.4,5.5,0.9,10.9,3.7,15.6
			c0.9,1.5,1.9,3,2.8,4.5c1,1.5,2.4,2.6,4.1,3.3c4.6,2.4,9.8,3.6,15,3.6h1.2c0.7-0.1,1.4-0.3,2.1-0.5c0-0.1,0-0.2,0-0.3
			c0.6-0.1,1.1-0.3,1.6-0.7c2.8-0.9,5.3-3.2,7.4-5.1c3.8-3.4,7.6-6.9,11.1-10.6c3.8-3.9,7.7-7.8,11.1-12c2.3-2.8,5.2-5.8,6.1-9.4
			c0.4-1.4-0.4-2.8-1.8-3.1c-0.1,0-0.1,0-0.2,0c0,0,0-0.1,0.1-0.1c-0.4-0.2-0.8-0.4-1.3-0.5H213c-2.9,0-5-1.6-7.1-3.2
			c-1.5-1.1-2.1-2.9-1.7-4.7c1.3-6.1,2.8-12.2,8.2-16.3c0.4-0.4,0.7-0.9,0.9-1.3C215.4,29.1,218,27.2,221.6,27.3 M221.3,28.5
			c-0.3-0.1-0.5-0.1-0.8-0.1c-0.3,0-0.7,0.1-1,0.2h-0.2v0.1c-0.5,0.4-0.9,0.9-1,1.5l0,0c-0.2,0.3-0.3,0.6-0.4,1h-0.1
			c-1.6,3.9-2.9,7.7-3.1,11.8c0,0.7,0,1.4,0.2,2c0.5,1.4,1.1,2.7,1.8,4c0.3,0.6,0.7,1.2,1.2,1.7c0,0,0,0,0.1,0
			c0.2,0.3,0.4,0.6,0.6,0.9c0.2,0.3,0.5,0.6,0.9,0.7c0.5,0.6,1.3,1,2.2,1c0.9,0,1.7-0.5,2.1-1.3c0.1-0.2,0.2-0.3,0.2-0.5
			c0.1-0.2,0.3-0.5,0.3-0.8c0.7-1.9,1.2-3.9,1.3-6c0.1-0.3,0.1-0.5,0.2-0.8c0.1-0.3,0.1-0.7,0.1-1c0.7-3.2,0.9-6.4,0.6-9.7
			c-0.2-1.1-0.6-2.2-1.2-3.1c-0.1-0.3-0.3-0.6-0.5-0.9c0,0-0.1-0.1-0.1-0.1c-0.2-0.3-0.5-0.6-0.9-0.7c-0.1-0.1-0.3-0.1-0.4-0.2l0,0
			c-0.4-0.3-0.8-0.4-1.2-0.4c-0.3,0-0.7,0.1-1,0.2 M221.5,26L221.5,26c-3.6,0-6.6,1.7-9.1,5.3c-0.1,0.2-0.2,0.4-0.3,0.6
			c-0.1,0.2-0.2,0.4-0.4,0.5c-5.5,4.2-7.2,10.1-8.6,16.9c-0.5,2.2,0.3,4.4,2.1,5.7c2.1,1.6,4.5,3.4,7.7,3.4h0.2l-0.1,0.3l1.1,0.3
			c0.9,0.2,1.4,1,1.3,1.8c0,0.1,0,0.1,0,0.2c-0.7,2.9-2.8,5.4-4.9,7.7c-0.4,0.4-0.7,0.8-1.1,1.3c-3.2,3.9-6.9,7.6-10.4,11.2
			l-0.7,0.8c-3.1,3.2-6.6,6.5-11.1,10.5l-0.4,0.4c-2,1.8-4.2,3.8-6.6,4.5l-0.2,0.1l-0.2,0.2c-0.3,0.2-0.6,0.4-1,0.4l-1,0.1v0.4
			c-0.3,0.1-0.7,0.1-1,0.1h-1.1c-5.1,0-10.1-1.2-14.6-3.5c-1.4-0.5-2.7-1.4-3.6-2.6c-0.4-0.7-0.9-1.4-1.3-2.1s-1-1.6-1.5-2.4
			c-2.7-4.5-3.9-9.8-3.6-15c0.3-3.1-0.3-6.2-1.9-8.9c-0.9-1.4-1.7-2.9-2.4-4.5c-0.7-1.9-2.4-3.2-4.4-3.4c-1.4-0.2-2.8-0.4-4-0.6
			c-0.3,0-0.7-0.1-1-0.1c-3.2-0.1-5.9,2.5-6,5.7c0,0.1,0,0.2,0,0.3c0,1.6-0.1,3.3,0,5.1v0.4c0.2,3.4,0.3,6.9,2,10.1
			c2,3.9,4.3,7.8,6.4,11.5l0.5,0.8c0.5,0.8,1.1,1.5,1.9,2l4.3,3.4c1.5,1.2,3,2.4,4.5,3.6c2.8,2.3,5.9,4,9.4,5c2.2,0.7,4.6,1,6.9,1
			c4.6-0.1,9-1.2,13.1-3.2c4.4-2.2,8.5-4.8,12.4-7.8l1.7-1.2c1.4-1,2.6-2.2,3.5-3.7c2-2.9,4.3-5.5,7-7.8c5.2-4.6,9.6-9.9,13.3-15.7
			c0.9-1.4,1.8-2.7,2.8-4.1c0.4-0.7,1.2-1,2-1h0.2c2.9-0.1,5.7-0.7,8.4-2l0.6-0.3c0.7-0.3,1.4-0.6,2.1-0.8c1.2-0.3,2.4,0.3,2.7,1.5
			c0.1,0.2,0.1,0.4,0.1,0.5c0,0.5,0,0.9-0.1,1.4l-0.1,0.5c-1,8.9,0.6,17.5,4.8,26.4c0.7,1.3,1.5,2.4,2.6,3.4l0.2,0.2
			c1,1.1,8.1,4,9.6,4.1l3.3,0.2c3.5,0.2,7.1,0.4,10.6,0.5c0.9,0,1.9,0,2.9,0c1.9,0,3.8-0.1,5.6-0.3l1-0.1c3.9-0.4,7.8-1.3,11.6-2.5
			c4.8-1.7,9.1-4.4,12.6-8c0.2-0.2,0.4-0.4,0.7-0.5c2.1,3,5.2,5.1,8.7,5.9l2.2,0.7c1.3,0.4,2.5,0.8,3.9,1.1c1.9,0.5,3.9,0.7,5.9,0.8
			h0.1c1.3,0,2.5-0.4,3.6-1.2c1.3-0.9,2.5-1.9,3.6-2.9l0.3-0.3c1-0.9,1.9-1.8,2.7-2.8c0.3-0.4,0.4-0.9,0.4-1.5c0-0.1,0-0.2,0-0.3
			l0.1-0.7l-0.6-0.3l-0.5-0.2l-0.7-0.4l-0.5,0.6l-0.5,0.5c-0.3,0.4-0.7,0.8-1,1.2c-1.3,1.9-3.4,3-5.6,3c-0.4,0-0.7,0-1.1-0.1h-0.2
			l-0.2,0.1c-0.5,0.1-1.1,0.2-1.6,0.2c-1.1,0-2.2-0.3-3.2-0.7l-0.1-0.1h-0.1c-1.9-0.4-3.6-1.6-4.6-3.2c-3.9-5.3-4.6-10.6-2.1-16.3
			c0.8-1.7,1-3.5,0.6-5.3c-0.2-1.2-0.5-2.3-0.8-3.6c-0.1-0.6-0.3-1.2-0.4-1.9l-0.1-0.5l-0.5-0.2l-0.7-0.3c-0.7-0.3-1.5-0.6-2.4-1
			c-0.7-0.3-1.5-0.5-2.3-0.5c-0.8,0-1.7,0.2-2.4,0.6c-2.5,1-4.2,3.2-4.7,5.8c-0.9,3.5-2.2,6.8-3.9,10l-0.6,1.3
			c-2.3,4.9-6.5,7.8-10.9,10.9l-0.9,0.6c-0.7,0.5-1.4,0.9-2.2,1.2c-0.7,0.3-1.4,0.6-2,1c-2.5,1.6-5.3,2.7-8.2,3.1
			c-1.2,0.2-2.5,0.3-3.7,0.4c-1.8,0.1-3.5-0.4-4.9-1.4c-0.5-0.4-1.1-0.7-1.7-1.1c-1.2-0.7-2.3-1.5-3.3-2.5c-1.9-2.3-3-5.2-3.1-8.2
			c0-1.6,0-3.3,0.2-4.9c0-0.7,0.1-1.5,0.1-2.2c0-0.9,0.1-1.8,0.1-2.8c0.1-2.4,0.2-4.8,0.3-7.3c0-0.9-0.2-1.8-0.7-2.6l-0.1-0.2
			c-1.1-1.8-2.3-3.5-3.6-5.2c-1.9-2.2-4.2-2.8-6.5-3.5c-0.8-0.2-1.5-0.4-2.2-0.7c-0.1-0.1-0.3-0.1-0.5-0.1c-0.4,0-0.8,0.2-1.2,0.4
			l-3.4,1.8c-2,1.1-4.2,2.2-6.3,3.3l-0.4,0.2c-0.6,0.4-1.2,0.6-1.8,0.7c0-0.1,0.1-0.2,0.1-0.2c1.9-4.9,2.9-10.1,2.9-15.3
			c0.1-2.7-0.5-5.5-1.8-7.9c-0.9-1.8-2.7-3-4.7-3.2c-0.4,0-0.7-0.1-1.1,0L221.5,26z M221.3,29.3l0.3-0.1c0.2-0.1,0.4-0.1,0.6-0.1
			c0.2,0,0.4,0.1,0.6,0.2l0,0l0.1,0.1l0.1,0l0.3,0.1l0,0c0.1,0.1,0.3,0.2,0.4,0.3v0.1v0l0.1,0.1V30c0.1,0.2,0.2,0.4,0.3,0.6v0.1
			l0.1,0.1c0.5,0.8,0.8,1.7,1,2.7c0.3,3.1,0.2,6.3-0.5,9.3V43v0.2c0,0.2,0,0.4,0,0.5l-0.1,0.4l-0.1,0.3v0.1v0.1
			c-0.1,1.9-0.5,3.9-1.2,5.7l0,0l0,0c-0.1,0.2-0.1,0.3-0.2,0.5v0l0,0l0,0.6c0,0.1-0.1,0.2-0.1,0.3c-0.2,0.5-0.7,0.8-1.2,0.8
			c-0.5,0-1.1-0.3-1.4-0.7l-0.1-0.2l-0.2-0.1c-0.2-0.1-0.4-0.2-0.5-0.4c-0.2-0.3-0.4-0.6-0.6-0.8l-0.1-0.2l-0.2-0.1l0,0
			c-0.3-0.4-0.6-0.8-0.8-1.3c-0.6-1.2-1.2-2.6-1.8-4c-0.2-0.5-0.2-1.1-0.2-1.6c0.1-3.7,1.2-7.1,2.8-11.1l0.2-0.1l0.1-0.6
			c0-0.2,0.1-0.5,0.2-0.7l0.1-0.2v-0.2c0-0.4,0.2-0.7,0.5-0.9l0.1-0.1c0.2-0.1,0.3-0.1,0.5-0.1c0.2,0,0.4,0.1,0.6,0.2l0.3,0.1
			L221.3,29.3z"/>
		<path class="st0" d="M48.3,16.4c1.2,0,2.3,0.2,3.4,0.5c3.4,0.8,6.8,1.7,10.2,2.6c1.2,0.3,2.4,0.8,3.5,1.5
			c3.9,2.4,7.8,4.7,11.5,7.4c2.7,2,4.3,4.9,5.4,8c0.3,0.7,0,1.5-0.7,1.8c0,0,0,0,0,0c-0.1,0.1-0.3,0.1-0.4,0.1
			c-0.5,0-0.9-0.1-1.3-0.4c-1-0.8-1.7-1.9-2.7-2.7c-2.2-1.8-4.4-3.5-6.7-5c-1.1-0.8-2.4-1.4-3.8-1.8c-2.1-1-4.4-1.4-6.7-1.4
			c-3.2,0.1-6.3,0.6-9.3,1.7h-0.2c-0.9,0-1.8,0.1-2.6,0.3c-7.6,2-14.2,6.5-18.8,12.8l-0.1,0.1c-3.2,3-6.4,6.1-9.5,9.1
			c-0.4,0.5-0.9,1-1.2,1.5c-4.9,6.4-7.6,14.2-7.9,22.3c-0.2,0.9-0.3,1.9-0.3,2.8c0,1.6,0.4,3.3,1,4.8c0.3,1,0.9,2,1.6,2.8
			c1,1.4,2.3,2.6,3.8,3.5c2.5,1.6,5.2,2.7,8.1,3.3c1.7,0.6,3.5,0.9,5.3,0.9h0.4l0,0c0.6,0.1,1.2,0.2,1.8,0.2c2.5,0,4.9-0.9,7.4-1.4
			c2.8-0.6,5.6-1.3,8.4-2.1c6-1.8,11.4-4.6,15.7-9.2c2.1-2.2,4.3-4.2,6.6-6.3c4.7-4.1,8.8-8.9,12.1-14.2c1.4-2.6,2.6-5.3,3.5-8.1
			c0.5-1.3,0.9-2.4,2.4-3c0.6,0.1,1.1,0.3,1.6,0.6c0.6,0.4,1.4,1,1.6,1.6c0.6,2.1,0.8,4.2,1.3,6.3c0.3,1.5,0.6,3,0.9,4.4
			c0.6,2.3,1.2,4.6,1.8,6.9c1,3.6,1.7,7.3,3.4,10.7c1.1,1.9,1.9,3.9,2.4,6c0.8,3.6,3.3,5.8,6,7.8c2.4,1.7,5.3,2.8,8.2,3.2
			c1.7,0.7,3.5,1.1,5.4,1.2c1.7,0,3.3-0.3,4.9-1c3.2-1.4,7.1-4.4,8.3-7.9c0.6-0.1,1.1-0.1,1.8-0.2c0.8,1,0.5,2-0.2,3.2
			c-2.1,3.6-5.5,5.8-9,7.7c-2.4,1.1-4.8,2.1-7.3,2.9c-0.6,0.2-1.1,0.3-1.7,0.3c-0.9,0-1.9-0.2-2.8-0.5c-2.4-0.8-4.8-1.6-7.3-2.3
			c-6.2-1.9-10.6-5.7-12.2-12.2c-0.3-1.1-0.7-2.1-1.1-3.2c-1.7-3.7-3.5-7.4-5.1-11.1c-0.3-1.1-1.4-1.7-2.5-1.6h-0.1
			c-2.4,0-4.8,0.1-6.8,1.8c-0.5,0.4-1,0.8-1.7,0.9c-2.4,0.5-4.1,2-5.8,3.7c-3,2.9-5.8,5.9-8.9,8.7C61.6,87.8,60,89,58.2,90
			c-2,1.2-4.2,2-6.3,3s-4.3,1-6.5,1c-1,0-2,0.1-3,0.5c-2.5,1.2-5.2,1.8-8,1.8c-2.2,0-4.4-0.3-6.5-0.7l-8.4-1.9
			c-2.8-0.5-5.3-1.8-7.4-3.7c-2.2-2.1-4.4-4.2-6.5-6.4c-2.8-3.2-4.4-7.4-4.5-11.7c-0.5-9.8,1.1-19.3,5.8-28c2-3.6,4-7.1,7.3-9.7
			c0.8-0.6,1.2-1.5,1.9-2.1c2-1.8,4.1-3.6,6.3-5.2c3.4-2.5,7-4.7,10.7-6.8c4.6-2.3,9.6-3.5,14.8-3.6L48.3,16.4 M48.3,15.4h-0.4
			c-5.3,0.1-10.5,1.4-15.2,3.7c-3.7,2.1-7.4,4.3-10.8,6.8c-1.8,1.3-3.5,2.7-5.1,4.2c-0.4,0.4-0.8,0.7-1.2,1.1
			c-0.4,0.3-0.7,0.7-1,1.1c-0.2,0.3-0.5,0.7-0.9,0.9c-3.4,2.6-5.5,6.1-7.6,10c-4.6,8.3-6.5,17.6-6,28.6c0.1,4.5,1.8,8.9,4.8,12.3
			c1.9,2.1,3.9,4,5.9,5.9l0.6,0.6c2.2,2,5,3.4,7.9,3.9l5.1,1.2l3.3,0.8c2.2,0.5,4.5,0.8,6.8,0.8c2.9,0,5.8-0.6,8.4-1.8
			c0.8-0.3,1.7-0.4,2.6-0.4h0.5c2.2,0.1,4.4-0.3,6.5-1.1c0.7-0.3,1.4-0.7,2.1-1c1.4-0.6,2.8-1.3,4.2-2.1c1.8-1.1,3.4-2.3,4.9-3.7
			c2.1-2,4.2-4,6.2-6c0.9-0.9,1.8-1.8,2.8-2.8c1.7-1.7,3.2-3,5.3-3.4c0.8-0.2,1.5-0.6,2.1-1.2c1.8-1.5,4-1.5,6.2-1.5h0.1
			c0.7-0.1,1.4,0.3,1.6,1c1,2.2,2,4.4,3,6.6c0.7,1.5,1.4,3,2.1,4.5c0.4,1,0.8,2,1.1,3c1.6,6.6,5.9,10.8,13,12.9
			c3,0.9,5.2,1.6,7.2,2.3c1,0.4,2,0.6,3.1,0.6c0.7,0,1.4-0.1,2-0.3l1.5-0.5c2.1-0.6,4.1-1.4,6-2.4c3.5-1.9,7.1-4.2,9.3-8.1
			c0.4-0.7,1.5-2.6,0.2-4.4l-0.3-0.4h-0.5l-1.2,0.1l-0.6,0.1l-0.6,0.1l-0.2,0.6c-1.1,3.2-4.7,6.1-7.7,7.3c-1.4,0.6-2.9,0.9-4.5,0.9
			c-1.7,0-3.4-0.4-5-1.1h-0.1h-0.1c-2.8-0.4-5.5-1.4-7.8-3c-2.4-1.8-4.8-3.9-5.6-7.2c-0.6-2.2-1.4-4.3-2.5-6.2
			c-1.2-2.5-2.1-5-2.6-7.7c-0.2-0.9-0.5-1.9-0.8-2.8c-0.7-2.4-1.3-4.8-1.8-6.9c-0.4-1.5-0.7-3-0.9-4.4c-0.1-0.7-0.3-1.4-0.4-2.1
			c-0.2-1.4-0.5-2.9-0.9-4.3c-0.7-1.4-1.9-2.4-3.4-2.8l-0.4-0.1L88,47.8l-0.3,0.1c-1.9,0.7-2.5,2.2-3,3.5l-0.5,1.4
			c-0.8,2.3-1.7,4.4-2.9,6.5c-3.3,5.2-7.3,9.9-11.9,14l-0.5,0.5c-2,1.9-4.2,3.8-6.1,5.9c-3.8,4-8.8,7-15.3,9
			c-2.4,0.8-5.1,1.4-8.3,2.1c-0.8,0.2-1.5,0.3-2.2,0.5c-1.6,0.5-3.3,0.8-4.9,0.9c-0.3,0-0.7,0-1-0.1V92h-1.1c-1.7,0-3.3-0.3-4.9-0.8
			h0h0c-2.8-0.6-5.4-1.7-7.8-3.3c-1.4-0.9-2.5-2-3.5-3.3l0,0l0,0c-0.7-0.7-1.2-1.6-1.5-2.5l0,0l0,0c-0.6-1.4-0.9-2.9-0.9-4.4
			c0-0.9,0.1-1.7,0.3-2.6V75v-0.1c0.3-7.9,3-15.4,7.7-21.7l0.1-0.1c0.3-0.4,0.6-0.9,1-1.3c3.5-3.4,6.6-6.3,9.5-9.1l0.1-0.1l0.1-0.1
			l0.1-0.1c4.5-6.1,10.9-10.5,18.3-12.5c0.8-0.2,1.6-0.3,2.4-0.3H51l0.2-0.1c2.9-1,5.9-1.6,9-1.6c2.1-0.1,4.3,0.4,6.2,1.3l0.1,0.1
			h0.1c1.2,0.3,2.4,0.9,3.4,1.7c2.3,1.5,4.4,3.2,6.6,5c0.5,0.4,0.9,0.8,1.3,1.3c0.4,0.5,0.9,1,1.4,1.4c0.5,0.4,1.2,0.6,1.9,0.6
			c0.3,0,0.6-0.1,0.9-0.2c1.2-0.5,1.7-1.9,1.3-3c-1-2.5-2.6-6.1-5.8-8.5s-6.4-4.3-9.7-6.2L66,20.1c-1.2-0.7-2.4-1.2-3.8-1.5
			c-3.2-0.9-6.6-1.8-10.2-2.7C50.8,15.6,49.6,15.4,48.3,15.4L48.3,15.4z"/>
		<path class="st0" d="M428.1,63c2.9,0,5.8,0.7,8.4,1.9c0.2,0.1,0.3,0.3,0.5,0.4c-2.8-1-5.8-1.5-8.8-1.6h-0.8
			c-6.6,0.2-13.2,1.3-19.6,3.3c-4.9,1.5-9.7,3-14.6,4.7c-2.4,0.9-4.7,2-7,3.2c-5.8,2.8-11.6,5.7-17.4,8.6c-1.4,0.7-2.9,1.4-4.3,2.2
			c-3.1,1.8-6.5,2.2-9.9,2.5c-1.2,0.1-2.4,0.2-3.5,0.2c-0.7,0-1.5,0-2.2-0.2c-3.1-0.5-6.1-1.2-9-2.2c-2.4-0.9-4.7-2-6.9-3.4
			c-2.2-1.2-3.5-3.5-3.4-6c0-0.6,0-1.3-0.1-1.9c-0.5-2.6,0.9-4.4,2.6-6.1c0.4-0.4,0.9-0.7,1.5-0.7c0.6,0,1.1,0.3,1.5,0.7
			c1.4,1.3,3.4,1.9,3.5,4.2c1.9,1.6,1.9,3.9,2.3,6.1c0.4,2.4,1.9,4.5,4.1,5.5c2.6,1.3,5.3,2.1,8.2,2.3c0.4,0,0.8,0,1.1,0
			c2,0,3.9-0.6,5.6-1.7c0.6-0.1,1.2-0.2,1.8-0.4c4.5-1.1,8.7-2.9,12.7-5.3c5-3,10.2-5.4,15.4-8c6.1-2.4,12.4-4.4,18.9-5.7
			c5.7-1.2,11.5-1.9,17.3-2.5C426.7,63,427.4,62.9,428.1,63 M428.2,61.9c-0.7,0-1.5,0-2.2,0.1c-6.8,0.7-12.3,1.5-17.4,2.6
			c-6.5,1.4-12.8,3.3-19,5.8h0l0,0c-1.5,0.8-3.1,1.5-4.5,2.3c-3.7,1.9-7.4,3.7-11,5.9c-3.8,2.3-8,4.1-12.4,5.2h-0.1h-0.1
			c-0.5,0.2-1,0.3-1.5,0.4h-0.3l-0.2,0.1c-1.5,1-3.2,1.5-5,1.5c-0.3,0-0.7,0-1,0c-2.7-0.2-5.4-1-7.8-2.2c-1.9-0.9-3.2-2.7-3.6-4.8
			c-0.1-0.4-0.1-0.8-0.2-1.2c-0.3-1.7-0.6-3.7-2.1-5.2c-0.3-1.9-1.6-2.9-2.7-3.7c-0.4-0.3-0.7-0.5-1.1-0.8c-0.6-0.6-1.3-0.9-2.1-0.9
			c-0.8,0-1.6,0.4-2.2,1c-1.9,1.8-3.5,3.9-2.9,7c0.1,0.6,0.1,1.1,0.1,1.7c-0.1,2.8,1.3,5.5,3.8,6.9c2.2,1.4,4.6,2.5,7,3.4
			c3,1,6.1,1.8,9.2,2.3c0.8,0.1,1.5,0.2,2.3,0.2c1.1,0,2.1-0.1,3.2-0.2h0.4c3.4-0.3,7-0.7,10.3-2.7c1-0.6,2-1.1,3.1-1.6l1.1-0.5
			l3.5-1.7c4.6-2.3,9.3-4.6,13.9-6.8l1.4-0.7c1.8-0.9,3.6-1.7,5.5-2.4c4.7-1.7,9.6-3.3,14.5-4.7c6.3-1.9,12.8-3,19.3-3.2h0.7
			c2.9,0,5.8,0.5,8.5,1.5l4.4,1.5l-3.4-3.2l-0.1-0.1c-0.2-0.2-0.4-0.4-0.6-0.5c-2.7-1.3-5.7-2-8.8-2L428.2,61.9z"/>
		<path class="st0" d="M152.2,4.3c-2.9-2.2-6.8-2.2-10.3-2.4c-2.6-0.2-6.6-1-8.9,0.6c-0.9,0.1-1.9,0.2-2.8,0.1
			c-1.5-0.2-2.9-0.7-4.4-0.9c-3.2-0.4-6.3,0.9-8.2,3.5c-0.4,0.4-0.7,0.9-1.2,1.4c-0.5,1-0.9,2-1.3,3.1c-0.1,0.2-0.2,0.4-0.4,0.5
			c-0.7,4,0.4,8.2,1.5,12.3c0.9,2,1.7,3.9,2.4,5.9c0.1,1.2,0.3,2.3,0.5,3.5c0.6,3.2,1.7,6.1,4.4,8.3c3.1,2.6,6.3,4.9,10.3,5.8
			c4.5,1,9,0.5,13.5,0c0.1,0,0.2-0.1,0.3-0.2c1.7,1.5,3.7,2.7,5.9,3.3c0.4,0,0.7,0,1.1,0.1l0.6,0.2h0.8c0.1-0.1,0.1-0.2,0.1-0.3
			c0.5,0,1,0,1.4,0c0.7-0.1,1.4-0.3,2-0.5l-3.5,0.2c-0.1-0.1-0.1-0.1-0.2-0.1c-3.4-0.5-6.4-2.1-8.6-4.7h-0.1c-1.5-3.6-0.7-4-0.3-7.3
			s2.5-5.9,5.2-7.9c-1.2,0.4-2.2,1.1-3.1,1.9c-1.8,2.5-3.3,5.2-3.2,8.5c0,1.7-0.2,3.3-0.4,5c-0.6,0.2-1.1,0.6-1.4,0.5
			c-2.1-1-4.3,1-6.5-0.2c-0.1,0-0.2-0.1-0.2-0.1c-0.9,0.3-1.8,0.3-2.7-0.1l-0.4-0.2c-1.3,0.2-2.6-0.2-3.6-1l-0.2-0.2
			c-0.9,0.1-1.8-0.1-2.6-0.7c-0.8-0.6-1.5-1.2-2.2-1.9c0,0-0.1,0-0.1,0c-0.8-0.5-1.5-1.1-2.2-1.6c0.1-0.2,0.2-0.3,0.3-0.4l0.7,0.4
			c-2.3-3.3-3.5-7.2-3.4-11.2l-0.3,0.1c-1-7.3,1-14.7,5.6-20.5l0,0c0.8-0.7,1.6-1.3,2.5-1.8c2.1-1.8,4.7-2.7,7.5-2.6
			c2.2,0,4.4,0.1,6.6,0.4c3.2,0.2,6.5,0.4,9.1,2.5c4.7,3.8,8.6,10.6,7.7,16.7c-0.1,0.6,0.9,0.9,1,0.3
			C161.6,15.7,157.5,8.3,152.2,4.3z M127.2,4.7c-0.2-0.1-0.4-0.1-0.6,0.1c-0.3,0.3-0.5,0.6-0.8,0.9l-0.5,0.4l0.1,0.1
			c-2.8,3.4-4.7,7.4-5.6,11.7l-0.3-0.2c0,0.8-0.1,1.6-0.1,2.5c0.1,0.7-0.4,1.3-1.1,1.4s-1.3-0.4-1.4-1.1c-0.6-2.3-1-4.6-1-7
			c0-0.1,0-0.3,0.1-0.4c-0.4-2.3,0.4-4.6,2.1-6.2c0.9-0.8,1.6-2,2.4-2.8c0.5-0.6,1.2-1,2-1.2c0.9-0.3,1.9-0.5,2.9-0.4l-0.1-0.1
			c1.5-0.2,3.1,0.1,4.4,0.9C128.9,3.7,128,4.2,127.2,4.7L127.2,4.7z"/>
		<path class="st0" d="M161.5,47.5c2-1.4,3.8-3,5.3-4.9c0.1-0.2,0.3-0.3,0.4-0.4c2-4.8,1.2-10.3-2-14.4c-1.2-1.5-2.9-2.5-4.8-2.8
			c0.2-0.1,0.3-0.2,0.3-0.4v-0.7c0-0.3-0.2-0.5-0.5-0.5s-0.5,0.2-0.5,0.5v0.7c0,0.1,0.1,0.3,0.2,0.4c-3.4-0.3-7,1.4-9.6,3.9
			c-0.5,0.5,0.3,1.2,0.7,0.7c1.7-1.8,4-3,6.4-3.5c3.4-0.7,6,0.7,7.8,3.6c2.6,4.2,2.7,9.5,0.3,13.8c0,0.1-0.1,0.1-0.1,0.2
			c-0.4,0.5-0.9,0.9-1.5,1.1c-0.2,0.1-0.3,0.2-0.3,0.4c-2.4,1.7-5.2,2.7-8.2,2.9c-3.4,0-6.2-2.2-9-3.9c-0.2-0.1-0.5-0.1-0.7,0.2
			c-0.1,0.2-0.1,0.5,0.2,0.7c3,1.8,5.9,4,9.5,4C157.7,48.9,159.7,48.4,161.5,47.5z"/>
		<path class="st0" d="M153.2,13.2c-3-3.9-7.2-6.6-11.9-7.6c-0.3-0.1-0.5,0.1-0.6,0.4c0,0,0,0.1,0,0.1c-2.5,1.4,0.4,6.3,1.4,7.7
			c1.2,1.8,2.7,3.4,4.5,4.7c1.6,1.2,4,2.9,6,3c1.5,0.1,2.8-1.1,3-2.6C155.8,16.8,154.4,14.7,153.2,13.2z M151.9,20.4
			c-2.7-0.3-5.9-3.3-7.6-5.2c-0.9-1-6-7.9-2.6-8.5c2.8,0.7,5.4,2,7.6,3.9c1.1,0.9,2.1,2,3,3.2C153.5,15.3,156.6,20.9,151.9,20.4
			L151.9,20.4z"/>
	</g>
</g>
</svg>
