<svg xmlns="http://www.w3.org/2000/svg" viewBox="0 0 764.34 641.23"><defs><style>.cls-1{fill:#fff;}</style></defs><title>logo-w</title><g id="Layer_2" data-name="Layer 2"><g id="Layer_1-2" data-name="Layer 1"><path class="cls-1" d="M351,640.87c-9.27.35-18.54.34-27.82.36-9.51,0-19-.41-28.49-.94-7.2-.4-14.39-.89-21.56-1.7-5.12-.58-10.26-1-15.36-1.65-5.68-.72-11.34-1.55-17-2.45s-11.52-1.88-17.25-3c-29.86-5.79-58.91-14.26-86.74-26.68a280,280,0,0,1-48.89-27.74,220.37,220.37,0,0,1-37.5-33.65A195.25,195.25,0,0,1,9.17,468.18,224.72,224.72,0,0,1,2.84,439Q1.13,427.8.43,416.5C.11,411.24,0,406,0,400.7s.09-10.53.34-15.79c.2-4.34.62-8.68,1.06-13,.48-4.67,1-9.34,1.66-14,1-6.79,2.21-13.55,3.64-20.26,6.26-29.24,16.19-57.21,28.78-84.28a524.69,524.69,0,0,1,38.4-68.13,636.79,636.79,0,0,1,55.55-72A652.25,652.25,0,0,1,197.62,47a317.6,317.6,0,0,1,26.5-20.15,187.08,187.08,0,0,1,29.95-16.69,116.27,116.27,0,0,1,23.14-7.51q6.06-1.21,12.21-1.88A171.59,171.59,0,0,1,317.55.38c5.59.3,11.17.93,16.74,1.65,6.92.88,13.81,2,20.7,3.1C360.64,6,366.27,7.06,371.91,8c4.85.83,9.7,1.63,14.55,2.45,5.87,1,11.74,1.95,17.59,3,8,1.48,16,3,23.93,4.61,28.17,5.71,56,12.68,83.24,21.95a448.85,448.85,0,0,1,84.47,38.58,390.57,390.57,0,0,1,91.06,74,329.85,329.85,0,0,1,43.32,59.61,276.36,276.36,0,0,1,24,55.67,238.29,238.29,0,0,1,7.46,32.42c.88,5.65,1.55,11.33,2.05,17A232.77,232.77,0,0,1,764,349c-.28,5.71-.93,11.4-1.71,17.07-4.09,29.86-14.07,57.7-28.68,84a302.2,302.2,0,0,1-49.52,65.57,365.58,365.58,0,0,1-57.52,47.19,470.5,470.5,0,0,1-124.88,59.17c-13.58,4.12-27.31,7.67-41.16,10.78a90.51,90.51,0,0,1-9.82,1.61c-5.34.61-10.68,1.26-16,1.81-3.65.38-7.3.64-10.95.92l-14,1.08c-.46,0-.91.09-1.37.11-5.49.31-11,.63-16.46.92-7,.36-14,.72-20.92,1-3.43.16-6.87.22-10.3.34ZM343,605.79c7.48-.15,14.92-.24,22.36-.48,4.92-.15,9.84-.43,14.74-.8,6.51-.49,13-1.1,19.49-1.73,4.9-.48,9.8-1,14.67-1.66q10.2-1.38,20.36-3.11c8.68-1.49,17.33-3.17,25.91-5.15a455,455,0,0,0,74-23.89,419.35,419.35,0,0,0,71.59-38.38,340.26,340.26,0,0,0,54.18-44.76,269.76,269.76,0,0,0,38.87-50.06c19.27-32.26,30.1-67.09,31.76-104.67a219.81,219.81,0,0,0-1-35,179.47,179.47,0,0,0-3.28-19.27A187.12,187.12,0,0,0,710,231.93a238.11,238.11,0,0,0-30.51-44.72,328.61,328.61,0,0,0-37.55-37.16,430.31,430.31,0,0,0-51.41-37.22,558.69,558.69,0,0,0-107.16-51.5,363.17,363.17,0,0,0-56.61-15.19c-8.1-1.5-16.21-2.94-24.35-4.2S386.1,39.38,378,38.08L353.9,34.22c-3.72-.59-7.45-1.19-11.19-1.69-4.54-.6-9.09-1.15-13.64-1.62-4-.42-8-.84-12-1a155.91,155.91,0,0,0-23.67.43,110.56,110.56,0,0,0-11.17,1.81,76.18,76.18,0,0,0-17.07,6.15,181,181,0,0,0-27.26,16.54,291.83,291.83,0,0,0-32.34,27.65,500.49,500.49,0,0,0-36.48,40.14c-16.23,19.73-31.42,40.24-46,61.17q-11.7,16.76-22.25,34.26a540.41,540.41,0,0,0-34.3,66.06,376.08,376.08,0,0,0-21.27,63.71,276.19,276.19,0,0,0-5.75,34.52,213.53,213.53,0,0,0-.93,23.32,177.17,177.17,0,0,0,2.74,29.7,152.57,152.57,0,0,0,42.57,81.86,230.08,230.08,0,0,0,22.88,20.23,272.76,272.76,0,0,0,49.42,30.2,362.35,362.35,0,0,0,73.12,25.41c8.57,2.05,17.2,3.8,25.88,5.33,4.95.87,9.94,1.59,14.92,2.3,4.08.59,8.17,1.1,12.25,1.6,3.18.38,6.37.75,9.56,1q5.8.54,11.63.94c5.71.38,11.42.83,17.14,1C328.11,605.58,335.56,605.64,343,605.79Z"/><path class="cls-1" d="M186.88,285.51a100.26,100.26,0,0,1,3.6-27.13,78.64,78.64,0,0,1,9.49-21.6A67.93,67.93,0,0,1,240.5,207a79,79,0,0,1,20-2.84,103.75,103.75,0,0,1,15.76.76c15.21,2.11,28.94,7.58,40.55,17.83a72.83,72.83,0,0,1,20,29.54A79.76,79.76,0,0,1,341.76,284,77,77,0,0,1,332,319c-9.73,17.38-24.38,28.49-43.6,33.59A79.3,79.3,0,0,1,267,355.17c-3.19,0-6.4-.3-9.58-.64a145.11,145.11,0,0,1-16.6-2.62,94.6,94.6,0,0,1-18.56-6.07,68.67,68.67,0,0,1-8.44-4.57,55.27,55.27,0,0,1-23.28-30A72.46,72.46,0,0,1,187,291.69C187,289.63,186.93,287.57,186.88,285.51Zm81.44-50.39a45.46,45.46,0,0,0-9.88,1.07,34.89,34.89,0,0,0-15.63,8.19,52,52,0,0,0-7.7,8.74,80.68,80.68,0,0,0-7.5,13.07,45.45,45.45,0,0,0-3.73,12.44,32.85,32.85,0,0,0,4.93,23.29A38.16,38.16,0,0,0,238.49,312,51.41,51.41,0,0,0,254.75,320a42,42,0,0,0,22.7.29,46.61,46.61,0,0,0,16.22-8A62.27,62.27,0,0,0,310,293.92a36.52,36.52,0,0,0,3.15-6.84,27.88,27.88,0,0,0,1.14-14.87,35.51,35.51,0,0,0-3.17-9,55.12,55.12,0,0,0-11.43-15.34A45.83,45.83,0,0,0,268.32,235.12Z"/><path class="cls-1" d="M439.63,493.54c-17.84-.59-32.86-7.19-44.43-21a45.58,45.58,0,0,1-9-16.84A41.46,41.46,0,0,1,387,430a43.16,43.16,0,0,1,6-11.5,31.82,31.82,0,0,1,19-12.63,35.06,35.06,0,0,1,8.85-1,18,18,0,0,1,6.68,1.37,11.1,11.1,0,0,1,6.38,6.8,12.39,12.39,0,0,1,.09,7.43,19.31,19.31,0,0,1-2.78,5.87c-1,1.51-2.14,3-3.27,4.41a36.72,36.72,0,0,0-4.38,7,21.33,21.33,0,0,0-2,6.54,6.6,6.6,0,0,0,2.55,6.37,15.75,15.75,0,0,0,3.87,2.19,32.09,32.09,0,0,0,5.91,1.75,52.54,52.54,0,0,0,8.84,1.13,17.57,17.57,0,0,0,9.48-2.55,30.62,30.62,0,0,0,5.91-4.67,68.63,68.63,0,0,0,6.12-7c2.24-2.89,4.41-5.84,6.64-8.75,2.36-3.08,4.72-6.18,7.16-9.21a65.47,65.47,0,0,1,8.63-8.83,36.45,36.45,0,0,1,13.73-7.53,48.54,48.54,0,0,1,9.78-1.72c3.89-.25,7.78-.35,11.67-.24,3.43.1,6.87.11,10.3.23A59.83,59.83,0,0,0,550.51,403a102,102,0,0,0,14.79-5.46c2.92-1.32,5.8-2.73,8.73-4a52,52,0,0,1,5.12-2,12.46,12.46,0,0,1,10,.74c1.41.75,2.81,1.54,4.15,2.4a16.14,16.14,0,0,1,3.33,3,13.26,13.26,0,0,1,1.93,15,18.45,18.45,0,0,1-3.17,4.46,32.15,32.15,0,0,1-5.27,4.39,63.64,63.64,0,0,1-7.73,4.44,110.28,110.28,0,0,1-29.87,9.83c-6.32,1.11-12.67,1.89-19,2.71a105.19,105.19,0,0,0-11.15,1.93,40.35,40.35,0,0,0-17.24,8.82,70.3,70.3,0,0,0-6.8,6.79c-2.51,2.82-5,5.66-7.52,8.47-3.52,3.92-7.16,7.72-11,11.3A86.54,86.54,0,0,1,469,484.4a54.15,54.15,0,0,1-18.12,8A48.36,48.36,0,0,1,439.63,493.54Z"/><path class="cls-1" d="M543.9,275.48a88.72,88.72,0,0,1-18.8-2.54,85.44,85.44,0,0,1-18.64-6.85,63.08,63.08,0,0,1-20.9-17,57.67,57.67,0,0,1-11.41-25.05,69.36,69.36,0,0,1-.81-21.18,81.4,81.4,0,0,1,4.34-19,56.72,56.72,0,0,1,13-20.83,52.07,52.07,0,0,1,26.81-14.43,59.43,59.43,0,0,1,16.72-1.18,74.52,74.52,0,0,1,30.36,9,65.14,65.14,0,0,1,24.28,22.77,67.19,67.19,0,0,1,9.29,24.19,65.81,65.81,0,0,1-15.81,55.48,48.7,48.7,0,0,1-22.59,14.38A59.19,59.19,0,0,1,543.9,275.48ZM531.11,178a37,37,0,0,0-7.87.79,17.28,17.28,0,0,0-11.91,8.49c-.52.89-1,1.8-1.45,2.73a33.67,33.67,0,0,0-2.76,21.41c2.37,11.88,9,20.6,19.82,26a42.63,42.63,0,0,0,7.71,2.89A41.45,41.45,0,0,0,548.22,242a28.56,28.56,0,0,0,9.34-2,19.42,19.42,0,0,0,10.15-9.32,28.2,28.2,0,0,0,2-5.1,36.92,36.92,0,0,0,1.14-6.42,37.32,37.32,0,0,0-.6-12.29,31,31,0,0,0-6.05-12.58C555.71,183.62,544.52,178.53,531.11,178Z"/></g></g></svg>