<svg xmlns="http://www.w3.org/2000/svg" viewBox="0 0 39.74 22.88"><title>icon</title><g id="Layer_2" data-name="Layer 2"><g id="Layer_1-2" data-name="Layer 1"><path d="M33.37.72C30.81,4.65,22.64,15.25,22.64,19.61c0,1.13.54,1.72,1.37,1.72,3.34,0,9.36-6.79,15.38-14.71l.35.24c-6.31,8.16-12,16-18.17,16-5.36,0-5.36-4.05-5.36-6.25L16,16.51c-2.5,3-6,6.37-10.25,6.37C2,22.88,0,20.74,0,15.73,0,8.82,7.39,0,18.11,0a4.81,4.81,0,0,1,5.13,4.06h.12L24.91,1ZM21.45,3.46A2.59,2.59,0,0,0,18.83.72c-4.89,0-11.08,11-11.08,16.56,0,1.31.41,3,2,3C13,20.26,21.45,10.61,21.45,3.46Z"/></g></g></svg>