<svg version="1" xmlns="http://www.w3.org/2000/svg" width="1706.667" height="1706.667" viewBox="0 0 1280.000000 1280.000000"><path d="M552.8 272.6c-.2.1-5.3.5-11.3.8-6.1.4-12.1.8-13.5 1.1-1.4.2-5.6.6-9.5.9-3.8.3-8.6.8-10.6 1.1-2 .3-5.1.7-7 1-3.7.4-6.1.7-22.4 3.6-6 1.1-12.1 2.1-13.5 2.3-1.4.2-3.2.6-4 .9-1.3.5-4.5 1.2-19.5 4.2-1.1.2-3.8.9-6 1.5s-4.7 1.2-5.5 1.4c-.8.2-3.5 1-6 1.7s-4.9 1.4-5.5 1.5c-.5.1-4 1.1-7.7 2.2s-7 1.7-7.3 1.4c-.3-.3-.5.1-.5.8 0 .7-.3 1.1-.6.8-.3-.4-2.1 0-4 .8s-3.6 1.4-3.9 1.4c-.3 0-1 .3-1.7.5-.7.3-6 2.1-11.8 4.1-10.5 3.6-34.4 12.9-36.4 14.2-.6.3-1.5.7-2.1.8-2.1.3-45.5 21.4-47.9 23.3-.6.4-4.7 2.7-9.1 5.1-4.4 2.3-8.2 4.5-8.5 4.9-.3.4-1.6 1.2-3 1.8-1.4.7-4.1 2.3-6.1 3.5-10.9 6.8-21.2 13.5-27.9 18.2-4.1 2.9-9.1 6.3-11 7.7-4.2 2.9-20 14.9-21.6 16.4-.7.5-2.4 1.9-3.8 2.9-1.5 1.1-3.9 3-5.4 4.3-1.5 1.3-3.3 2.9-4.1 3.5-17.4 14.4-43.3 39.2-59.8 57.3-12.7 14-37.9 44.8-39.2 48-.2.5-.8 1.4-1.3 2-4 4.8-4.8 5.9-4.8 6.5 0 .3-.8 1.5-1.8 2.6-1.1 1.1-2.1 2.4-2.3 2.9-.2.6-4.3 6.8-9 14-4.7 7.1-9.7 15-11.1 17.5-1.4 2.5-4 7-5.8 10-3.5 5.8-21 40.4-21 41.4 0 .3-1.3 3.4-2.9 6.8-11.5 25.4-24.8 68-28.7 91.8-.3 1.9-.9 5.3-1.4 7.5-.4 2.2-.8 4.7-.8 5.5 0 .8-.3 2.8-.7 4.5-.4 1.6-.8 4.6-1 6.5-.2 1.9-.7 6.9-1.2 11-1.5 14.8-.8 65.2 1.2 81.5.3 2.2.7 6 1 8.5.2 2.5.6 5.6.9 7 .3 1.4.8 4.3 1.1 6.5.4 2.2 1.1 6.2 1.6 9 .5 2.7 1.1 5.9 1.3 7 .2 1.1.9 4 1.6 6.5.7 2.5 1.4 5.3 1.6 6.2.2 1 .6 2.6.8 3.6 1.3 5.6 8 24 11.8 32.1 1.2 2.5 2.1 4.9 2 5.3-.1.5.3.8 1 .8.6 0 .9.3.5.6-.6.6 2.5 6 10 17.7 7.2 11.2 19.2 24.5 28.3 31.5 2.5 1.9 4.7 3.7 5 4.1.5.7 9.2 6.3 14.5 9.3 5.5 3.2 17.6 8.8 19.1 8.8.8 0 1.4.5 1.4 1 0 .6.3.9.8.8.4-.1 5.2 1.2 10.7 2.9 5.5 1.7 11.4 3.4 13 3.7 1.7.4 4.1.9 5.5 1.1 3.3.7 13 2.2 20.5 3.2 7.3.9 50 .9 57-.1 2.8-.4 6.6-.9 8.5-1.2 5-.7 7-1 11-1.8 1.9-.4 4.2-.8 5-1 4.8-.8 13.7-3 19-4.6 2.5-.7 4.7-1.4 5-1.5.3 0 3.2-.9 6.5-2 3.3-1 6.5-1.9 7-2.1 1.6-.3 16.6-6.3 21.2-8.4 2.4-1.1 4.5-2 4.8-2 .9 0 25.7-12.5 29.5-14.9 1.9-1.2 4.7-2.7 6.3-3.3 1.5-.7 2.7-1.6 2.7-2 0-.4.4-.8 1-.8 1.3 0 25.2-15.2 27.8-17.7.7-.7 1.7-1.3 2.1-1.3.4 0 1.6-.8 2.7-1.8 1-1 4.2-3.3 6.9-5.2 2.8-1.8 5.2-3.6 5.5-4 .3-.3 3.7-3 7.5-6 7.2-5.5 9.9-7.8 19.9-16.5 14.7-12.7 32.5-29.5 44.5-41.8 12.5-13 19.6-20.5 25.5-27.1 3.3-3.8 6.6-7.4 7.2-8 1.3-1.4 8.4-9.5 14.9-17.1 11.2-13.1 9.7-12 13.3-10.1 3 1.5 3.2 2 3.2 6.9.2 15 1.5 49.2 2 49.2.1 0 .3 1.6.5 3.5 1.9 16.1 2.9 21.9 5.6 32 1.1 4.1 2.2 8.6 2.5 9.9 2.1 10 13.5 33.3 21.7 44.3 8.1 10.9 25.4 27.8 28.5 27.8.6 0 1.2.4 1.4.8.4.9 10.5 7.2 11.6 7.2.4 0 1.3.5 1.9 1.1 1.6 1.6 19.1 8.9 21.3 8.9.9 0 2 .4 2.6 1 .5.5 1.8 1.1 2.9 1.3 1.1.1 2.6.6 3.3 1 .6.5 1.2.6 1.2.3s1.1-.1 2.6.4c1.4.6 3.9 1.2 5.7 1.5 1.8.4 5 1 7.2 1.5s6.3 1.2 9 1.5c2.8.4 6.4.8 8 1 16.5 2.2 48.5 2.2 62 .1 3-.5 11.1-1.6 15-2.2 1.1-.1 2-.3 2-.4 0-.1 1.1-.4 2.5-.6 12.7-2.3 42.7-11.2 45.8-13.7.6-.5 1.2-.7 1.2-.4 0 .6 15.2-5.9 24.1-10.3 3.2-1.6 5.9-2.6 5.9-2.2 0 .4.4.2.8-.3.4-.6 1.8-1.6 3.2-2.2 3.2-1.6 14-7.5 16-8.8.8-.5 1.7-1 2-1 1.9-.3 32.2-20.2 45.5-29.9 10.3-7.4 29.3-22.3 32-24.9.7-.7 2.8-2.5 4.8-4 4.5-3.6 11.2-9.4 14.9-12.9 1.6-1.6 3.1-2.8 3.4-2.8.2 0 1.7-1.2 3.3-2.7 1.5-1.6 8.5-8.2 15.6-14.8 20.1-18.8 48.8-48.1 68.6-69.9 2.4-2.7 6.1-6.6 8.2-8.8 2-2.1 3.7-4.1 3.7-4.3 0-.2 1-1.5 2.3-2.7 2.5-2.7 8.6-9.5 16.7-18.8 3-3.5 6.3-7.2 7.3-8.2.9-1 1.7-2 1.7-2.3 0-.3.8-1.3 1.8-2.3 2.3-2.4 9-10.2 12.7-14.7 1.7-2.1 3.9-4.8 5-6 10-11.7 22.1-26.4 39.9-48.5 7.7-9.6 14.5-18 15.1-18.7 1.2-1.5 3.2-3.9 13.6-17.3 4.6-5.8 8.7-10.7 9.1-10.8.4-.2.8-1 .8-1.7s.7-1.5 1.5-1.9c.8-.3 1.5-1 1.5-1.6 0-.5.8-1.8 1.8-2.8.9-.9 9.3-11.6 18.7-23.7 9.3-12.1 17.2-22.2 17.5-22.5.3-.3 3.9-5 8-10.5s8.1-10.6 8.8-11.4c.7-.8 4.8-5.9 9-11.5s8.1-10.6 8.7-11.2c.5-.6 1.7-2.2 2.5-3.4.8-1.2 2.5-3.4 3.8-4.8 1.3-1.5 3.1-3.8 4-5.2.9-1.4 4.5-6.1 8-10.5 3.4-4.4 6.5-8.5 7-9 .4-.6 3.1-4 5.9-7.6 5.8-7.3 5.9-6.6-1.4-11.7-4.2-2.9-5.5-2.8-7.5.5-.9 1.6-2.6 3.9-3.7 5.3-3.4 4.1-3.6 4.4-6.1 7.9-2.9 4-5.1 6.8-6.5 8.5-.6.6-2.4 2.9-4 5.1-1.7 2.2-7.7 10.1-13.5 17.5-5.7 7.4-10.8 13.9-11.2 14.5-1.2 1.5-20.9 26.6-24.1 30.5-1.5 1.9-5.4 7-8.7 11.2-3.3 4.2-7.7 9.7-9.7 12.1-2.1 2.5-4.9 6-6.3 7.8-1.4 1.8-4.1 5.2-6 7.5-1.9 2.3-4.2 5-5 6-7.4 9.3-9.6 12-10 12.4-.3.3-4.6 5.4-9.5 11.5-13 15.9-12.8 15.7-15.2 18.2-1.3 1.3-2.3 2.6-2.3 2.8 0 .3-.8 1.3-1.7 2.3-1 1-3.4 3.8-5.3 6.2-1.9 2.4-4 4.8-4.5 5.4-.6.6-3.5 4-6.5 7.6-3 3.6-5.7 6.7-6 7-.3.3-3.2 3.6-6.5 7.5-8.1 9.4-11.7 13.5-13.7 15.7-1 1-1.8 2-1.8 2.3 0 .3-1.8 2.3-4 4.5s-4 4.2-4 4.5c0 .2-1 1.5-2.2 2.7-1.3 1.3-5.7 6.1-9.8 10.7-4.1 4.7-7.9 8.9-8.5 9.5-.5.6-2.7 3-4.7 5.4-2.1 2.3-3.8 3.9-3.8 3.5 0-.5-.8.4-1.8 1.9-4.7 7.1-71.1 74.8-90.1 91.8-4.6 4.1-9.1 8.2-10 9.1-1.5 1.5-22.3 19.3-28.6 24.5-1.6 1.4-3.7 3-4.4 3.7-.8.7-3.6 2.8-6.1 4.7-2.5 1.9-5.3 4.1-6.1 4.7-4.6 4-7.8 6.3-8.7 6.3-.6 0-1.2.4-1.4.8-.5 1.2-16.7 12.6-23.8 16.8-3.6 2-6.7 4-7 4.4-.6.8-14.1 8.2-22.2 12.1-12.2 6-28.4 12-36.3 13.4-2.2.4-4.9 1-6 1.2-5.1 1.3-22.7 1.2-27-.1-2.5-.8-4.5-1.1-4.5-.8 0 .4-.4.2-.8-.4-.4-.5-2.3-1.7-4.2-2.6-10.1-4.7-19.1-19.2-21.6-34.8-1-5.9-1-23.8 0-32 .5-5.2 3.7-21.1 6-30 1.4-5.6 3.9-13.8 4.6-15.5.7-1.6 4.1-11.6 4.5-13.5.1-.3.5-1.4 1-2.5.4-1.1 2.9-7.4 5.5-14 4.9-12.4 5.8-14.6 14.3-33 7.1-15.5 27.4-55.2 32.2-63 .6-1.1 3.1-5.6 5.5-10 2.3-4.4 5.7-10.5 7.5-13.5 11.5-19.5 13.5-23 13.5-23.9 0-.5.3-1.1.8-1.3.4-.2 3.4-4.8 6.7-10.3 3.3-5.5 6.4-10.7 7-11.6.5-.9 1.9-3.2 2.9-5 1-1.9 2.2-3.6 2.5-3.9.3-.3 1.2-1.5 1.9-2.8.6-1.2 1.8-3.2 2.5-4.5.6-1.2 1.5-2.4 1.8-2.7.4-.3 2.1-3 3.8-6 1.7-3 6.7-11.1 11.1-17.8 4.4-6.8 8-12.6 8-12.8 0-.3.5-1 1.1-1.7.5-.7 3.9-5.7 7.4-11.2 3.5-5.5 6.8-10.5 7.3-11.1.5-.5 1.5-2.1 2.2-3.5.7-1.3 1.6-2.6 1.9-2.9.4-.3 2.7-3.7 5.1-7.5 2.5-3.9 4.8-7.2 5.2-7.3.5-.2.8-.7.8-1.1 0-.5 2.4-4.3 5.3-8.6 2.8-4.2 5.7-8.5 6.2-9.4 4-6.5 16-23.7 16.7-23.9.4-.2.8-1 .8-1.8s.4-1.4.8-1.4c.5 0 1.5-1.2 2.3-2.8.8-1.5 4.6-7.2 8.4-12.7 3.9-5.5 9.2-13.2 11.8-17 2.6-3.9 6.1-9 7.8-11.5 6.5-9.2 11.7-16.8 18.4-26.5 3.8-5.5 7.1-10.2 7.4-10.5.3-.3 2.4-3.2 4.6-6.5 4.1-6.1 20.8-30.2 22.2-32 2.6-3.2 8.3-11.6 8.3-12.1 0-.3.6-1.1 1.3-1.8.6-.8 1.9-2.4 2.7-3.6.8-1.2 2.7-3.9 4.1-5.9 1.4-2 6.5-9.5 11.4-16.6 4.8-7.2 9.1-13.2 9.4-13.5.3-.3 4-5.7 8.1-12s7.8-11.7 8.1-12c.7-.6 2.9-4.6 2.9-5.4 0-.7-20.8.2-22.1.9-.5.4-.9.1-.9-.5s-.5-.8-1-.5c-.6.4-7.5.8-15.3 1-7.8.3-21.4.7-30.2 1-8.8.3-22.1.8-29.5 1-17.9.5-42.1 1.4-60 2-8 .3-21.2.8-29.5 1-8.2.3-23.3.7-33.5 1.1-10.2.3-24 .7-30.7.7-6.8.1-12.3.5-12.3.8 0 .3-1.3.4-3 .3-1.6-.1-3.4.3-3.9 1-1 1.2-13.8 26.1-35.8 69.9-7.4 14.8-14.1 27.1-15 27.4-2.1.8-3.1-.7-3.8-5.5-.3-2.4-.9-5.1-1.5-6.1-.5-1-.7-2.1-.3-2.4.3-.4.1-1.3-.5-2-.7-.8-1-1.6-.7-1.9.3-.2-.5-2.9-1.6-5.9-1.1-3-2.4-6.5-2.8-7.9-3.4-10.6-15.5-31.3-25.1-43-8.3-9.9-21.2-22.1-27.2-25.8-1.6-.9-2.8-2-2.8-2.4 0-.4-.6-.8-1.4-.8-.8 0-1.6-.4-1.8-.8-.4-1-10.5-7.2-11.8-7.2-.6 0-1-.5-1-1s-.3-.9-.7-.8c-.5.1-3.7-1.2-7.3-2.9-9.7-4.5-13.8-6.1-21.5-8.4-7.4-2.1-7.7-2.2-14-3.4-2.2-.4-5.1-1-6.5-1.3-2.5-.5-65.7-1.1-66.2-.6zm69.7 23.8c9.8 2.1 22.2 7 30 11.9 11.2 6.9 23.6 20.8 29.7 33.1 7 14.4 8.9 25 8.4 47.1-.4 15.8-1.8 34.5-2.6 36.5-.1.3-.2.8-.1 1.3.1.9-2.8 19.2-3.4 20.9-.2.7-.7 3.1-1 5.2-1 6.8-10.3 42.9-13.1 50.6-.3.8-.5 1.6-.5 1.7.1.6-9 25.8-13 35.8-2.4 6-4.4 11.2-4.4 11.5-.1.3-1.1 2.5-2.2 5-1.2 2.5-3.6 7.9-5.3 12-4 9.2-23.6 48.6-27.9 55.8-1.7 2.9-3.1 5.5-3.1 5.7 0 .3-1.8 3.4-4 7s-4 7-4 7.5c0 .6-.4 1-.9 1s-1.1.8-1.4 1.7c-.6 1.8-4.4 8.7-6 10.8-2.4 3.2-5.7 8.7-5.7 9.5 0 .6-.5 1-1.1 1-.5 0-.8.4-.5.9.3.5-.1 1.5-1 2.2-.9.7-2 2.2-2.5 3.4-1 2.2-3.1 5.7-3.9 6.5-.4.3-2.5 3.4-4.8 7s-4.6 7.2-5.2 8c-10 14.3-16.8 23.9-21 29.5-1.6 2.2-4.2 5.8-5.6 8-1.5 2.2-3 4.2-3.4 4.5-.4.3-3.8 4.5-7.5 9.5-3.8 4.9-7.4 9.5-7.9 10.1-.6.6-2.4 2.9-4.1 5-3.4 4.4-8.6 10.5-15.5 18.4-2.6 3-6.1 7.1-7.6 9-1.6 1.9-3.6 4.2-4.4 5.1-.8.8-5.8 6.2-11 11.9-16.1 17.5-39.3 40.3-53 52-3.5 3-7.1 6.2-8 7-7 6.5-38.8 30-43.7 32.3-1.3.6-2.3 1.4-2.3 1.9 0 .4-.7.8-1.5.8s-1.5.4-1.5 1c0 .5-.9 1-2 1s-2 .4-2 .8c0 .5-2.6 2.2-5.7 3.7-3.2 1.6-6.1 3.4-6.5 4-.4.5-.8.6-.8.1 0-.4-1-.2-2.2.6-4 2.6-20 8.5-27.8 10.3-7.5 1.6-18.8 2.1-24.5.9-1.6-.4-3.7-.7-4.5-.8-.9-.1-2-.4-2.5-.8-.6-.3-2.1-.8-3.5-1.1-3.6-.9-13.7-7.6-18.4-12.3-4.6-4.5-13.6-18.1-13.6-20.6 0-.9-.3-1.8-.7-2-.9-.3-4.2-9.1-4.9-12.8-.3-1.4-.9-4.1-1.4-6-1.5-6-2.7-13-3.5-20.3-.2-2.6-.7-5.2-1-5.7-.3-.6-.2-1 .4-1 .6 0 .7-1.1.3-2.8-1.1-4.3-.2-30.7 1.4-42.2.3-1.9.7-5.3.9-7.5.3-2.2.7-4.9.9-6.1.2-1.2.7-4.5 1.1-7.5.4-3 .9-5.8 1.2-6.2.2-.4.7-2.4 1-4.5.8-6.5 4.7-24.2 6-27.2.3-.8.7-2.2.8-3 .1-.8.6-3.1 1-5 .5-1.9.9-3.7 1-4 0-.3.6-2.1 1.2-4s2.1-6.9 3.3-11c1.2-4.1 3.1-10 4.1-13 1.1-3 2.2-6.4 2.3-7.5.2-1.1 2-6.5 4.1-12 2-5.5 3.8-10.5 3.9-11 .2-.6.6-1.7.9-2.5.4-.8 2.2-5.6 4.1-10.5 4-10.6 16.2-39.9 18.1-43.5.7-1.4 3-6.3 5.1-11 4.3-9.4 27-54.8 28.3-56.5.5-.5 2.6-4.2 4.6-8 2.1-3.9 7.1-12.6 11.2-19.3 4-6.8 7.3-12.8 7.3-13.2 0-.5.4-1 .8-1.2.4-.2 1.9-2.1 3.2-4.3 1.3-2.2 7.1-11.1 12.9-19.9 5.8-8.7 11.1-16.6 11.6-17.5.6-.9 1.9-2.8 3-4.2 1.1-1.4 2.7-3.6 3.5-4.9 1.3-1.9 14.3-19.4 16.7-22.5.5-.6 3.2-3.9 6.1-7.5 2.9-3.6 6-7.4 6.9-8.5 2.7-3.4 11.6-13.7 15.8-18.5 9.2-10.3 37.7-38.1 46.5-45.4 5.2-4.3 10.5-8.7 11.8-9.8 1.3-1 3.6-2.7 5.1-3.6 1.4-.9 5.6-3.8 9.3-6.5 3.6-2.6 7-4.7 7.6-4.7.6 0 1.2-.4 1.4-.8 1.4-3.8 41.4-21.6 53-23.6 1.5-.2 3.1-.7 3.5-.9.5-.3 3.3-.8 6.2-1.1 3-.4 5.6-.8 5.8-1 .5-.5 24.7.2 27.8.8z"/></svg>